  0
SECTION
  2
HEADER
  9
$ACADVER
  1
AC1009
  9
$EXTMIN
 10
0.0
 20
0.0
 30
0.0
  9
$EXTMAX
 10
1000.0
 20
1000.0
 30
0.0
  9
$FILLMODE
 70
 0
  9
$SPLFRAME
 70
 1
  0
ENDSEC
  0
SECTION
  2
TABLES
  0
TABLE
  2
LAYER
 70
1
  0
LAYER
  2
0
 70
     0
 62
     7
  6
CONTINUOUS
  0
ENDTAB
  0
ENDSEC
  0
SECTION
  2
ENTITIES
  0
LINE
  8
0
 62
     0
 10
0.0950846
 20
103.621
 30
0.0
 11
293.846
 21
103.621
 31
0.0
  0
LINE
  8
0
 62
     0
 10
293.846
 20
103.621
 30
0.0
 11
293.846
 21
0.372071
 31
0.0
  0
LINE
  8
0
 62
     0
 10
293.846
 20
0.372071
 30
0.0
 11
0.0950846
 21
0.372071
 31
0.0
  0
LINE
  8
0
 62
     0
 10
0.0950846
 20
0.372071
 30
0.0
 11
0.0950846
 21
103.621
 31
0.0
  0
LINE
  8
0
 62
     0
 10
128.063
 20
20.8966
 30
0.0
 11
128.063
 21
16.1975
 31
0.0
  0
LINE
  8
0
 62
     0
 10
128.063
 20
16.1975
 30
0.0
 11
88.4372
 21
16.1975
 31
0.0
  0
LINE
  8
0
 62
     0
 10
88.4372
 20
16.1975
 30
0.0
 11
88.4372
 21
19.4276
 31
0.0
  0
LINE
  8
0
 62
     0
 10
88.4372
 20
19.4276
 30
0.0
 11
81.6875
 21
19.4276
 31
0.0
  0
LINE
  8
0
 62
     0
 10
81.6875
 20
19.4276
 30
0.0
 11
81.6875
 21
16.1975
 31
0.0
  0
LINE
  8
0
 62
     0
 10
81.6875
 20
16.1975
 30
0.0
 11
80.862
 21
16.1975
 31
0.0
  0
LINE
  8
0
 62
     0
 10
80.862
 20
16.1975
 30
0.0
 11
80.862
 21
13.3973
 31
0.0
  0
LINE
  8
0
 62
     0
 10
80.862
 20
13.3973
 30
0.0
 11
81.6875
 21
13.3973
 31
0.0
  0
LINE
  8
0
 62
     0
 10
81.6875
 20
13.3973
 30
0.0
 11
81.6875
 21
7.12858
 31
0.0
  0
LINE
  8
0
 62
     0
 10
81.6875
 20
7.12858
 30
0.0
 11
83.4125
 21
7.12858
 31
0.0
  0
LINE
  8
0
 62
     0
 10
83.4125
 20
7.12858
 30
0.0
 11
83.4125
 21
5.92695
 31
0.0
  0
LINE
  8
0
 62
     0
 10
83.4125
 20
5.92695
 30
0.0
 11
86.7131
 21
5.92695
 31
0.0
  0
LINE
  8
0
 62
     0
 10
86.7131
 20
5.92695
 30
0.0
 11
86.7131
 21
7.12858
 31
0.0
  0
LINE
  8
0
 62
     0
 10
86.7131
 20
7.12858
 30
0.0
 11
88.4372
 21
7.12858
 31
0.0
  0
LINE
  8
0
 62
     0
 10
88.4372
 20
7.12858
 30
0.0
 11
88.4372
 21
11.5976
 31
0.0
  0
LINE
  8
0
 62
     0
 10
88.4372
 20
11.5976
 30
0.0
 11
128.063
 21
11.5976
 31
0.0
  0
LINE
  8
0
 62
     0
 10
128.063
 20
11.5976
 30
0.0
 11
128.063
 21
6.89709
 31
0.0
  0
LINE
  8
0
 62
     0
 10
128.063
 20
6.89709
 30
0.0
 11
142.062
 21
6.89709
 31
0.0
  0
LINE
  8
0
 62
     0
 10
142.062
 20
6.89709
 30
0.0
 11
142.062
 21
11.5976
 31
0.0
  0
LINE
  8
0
 62
     0
 10
142.062
 20
11.5976
 30
0.0
 11
181.688
 21
11.5976
 31
0.0
  0
LINE
  8
0
 62
     0
 10
181.688
 20
11.5976
 30
0.0
 11
181.688
 21
7.12858
 31
0.0
  0
LINE
  8
0
 62
     0
 10
181.688
 20
7.12858
 30
0.0
 11
183.413
 21
7.12858
 31
0.0
  0
LINE
  8
0
 62
     0
 10
183.413
 20
7.12858
 30
0.0
 11
183.413
 21
5.92695
 31
0.0
  0
LINE
  8
0
 62
     0
 10
183.413
 20
5.92695
 30
0.0
 11
186.713
 21
5.92695
 31
0.0
  0
LINE
  8
0
 62
     0
 10
186.713
 20
5.92695
 30
0.0
 11
186.713
 21
7.12858
 31
0.0
  0
LINE
  8
0
 62
     0
 10
186.713
 20
7.12858
 30
0.0
 11
188.437
 21
7.12858
 31
0.0
  0
LINE
  8
0
 62
     0
 10
188.437
 20
7.12858
 30
0.0
 11
188.437
 21
13.3973
 31
0.0
  0
LINE
  8
0
 62
     0
 10
188.437
 20
13.3973
 30
0.0
 11
189.262
 21
13.3973
 31
0.0
  0
LINE
  8
0
 62
     0
 10
189.262
 20
13.3973
 30
0.0
 11
189.262
 21
16.1975
 31
0.0
  0
LINE
  8
0
 62
     0
 10
189.262
 20
16.1975
 30
0.0
 11
188.437
 21
16.1975
 31
0.0
  0
LINE
  8
0
 62
     0
 10
188.437
 20
16.1975
 30
0.0
 11
188.437
 21
19.4276
 31
0.0
  0
LINE
  8
0
 62
     0
 10
188.437
 20
19.4276
 30
0.0
 11
181.688
 21
19.4276
 31
0.0
  0
LINE
  8
0
 62
     0
 10
181.688
 20
19.4276
 30
0.0
 11
181.688
 21
16.1975
 31
0.0
  0
LINE
  8
0
 62
     0
 10
181.688
 20
16.1975
 30
0.0
 11
142.062
 21
16.1975
 31
0.0
  0
LINE
  8
0
 62
     0
 10
142.062
 20
16.1975
 30
0.0
 11
142.062
 21
20.8966
 31
0.0
  0
LINE
  8
0
 62
     0
 10
142.062
 20
20.8966
 30
0.0
 11
128.063
 21
20.8966
 31
0.0
  0
LINE
  8
0
 62
     0
 10
270.938
 20
20.8966
 30
0.0
 11
284.937
 21
20.8966
 31
0.0
  0
LINE
  8
0
 62
     0
 10
284.937
 20
20.8966
 30
0.0
 11
284.937
 21
6.89709
 31
0.0
  0
LINE
  8
0
 62
     0
 10
284.937
 20
6.89709
 30
0.0
 11
270.938
 21
6.89709
 31
0.0
  0
LINE
  8
0
 62
     0
 10
270.938
 20
6.89709
 30
0.0
 11
270.938
 21
20.8966
 31
0.0
  0
LINE
  8
0
 62
     0
 10
247.125
 20
20.8966
 30
0.0
 11
261.126
 21
20.8966
 31
0.0
  0
LINE
  8
0
 62
     0
 10
261.126
 20
20.8966
 30
0.0
 11
261.126
 21
6.89709
 31
0.0
  0
LINE
  8
0
 62
     0
 10
261.126
 20
6.89709
 30
0.0
 11
247.125
 21
6.89709
 31
0.0
  0
LINE
  8
0
 62
     0
 10
247.125
 20
6.89709
 30
0.0
 11
247.125
 21
20.8966
 31
0.0
  0
LINE
  8
0
 62
     0
 10
223.313
 20
20.8966
 30
0.0
 11
237.312
 21
20.8966
 31
0.0
  0
LINE
  8
0
 62
     0
 10
237.312
 20
20.8966
 30
0.0
 11
237.312
 21
6.89709
 31
0.0
  0
LINE
  8
0
 62
     0
 10
237.312
 20
6.89709
 30
0.0
 11
223.313
 21
6.89709
 31
0.0
  0
LINE
  8
0
 62
     0
 10
223.313
 20
6.89709
 30
0.0
 11
223.313
 21
20.8966
 31
0.0
  0
LINE
  8
0
 62
     0
 10
199.5
 20
20.8966
 30
0.0
 11
213.501
 21
20.8966
 31
0.0
  0
LINE
  8
0
 62
     0
 10
213.501
 20
20.8966
 30
0.0
 11
213.501
 21
6.89709
 31
0.0
  0
LINE
  8
0
 62
     0
 10
213.501
 20
6.89709
 30
0.0
 11
199.5
 21
6.89709
 31
0.0
  0
LINE
  8
0
 62
     0
 10
199.5
 20
6.89709
 30
0.0
 11
199.5
 21
20.8966
 31
0.0
  0
LINE
  8
0
 62
     0
 10
56.6251
 20
20.8966
 30
0.0
 11
70.6258
 21
20.8966
 31
0.0
  0
LINE
  8
0
 62
     0
 10
70.6258
 20
20.8966
 30
0.0
 11
70.6258
 21
6.89709
 31
0.0
  0
LINE
  8
0
 62
     0
 10
70.6258
 20
6.89709
 30
0.0
 11
56.6251
 21
6.89709
 31
0.0
  0
LINE
  8
0
 62
     0
 10
56.6251
 20
6.89709
 30
0.0
 11
56.6251
 21
20.8966
 31
0.0
  0
LINE
  8
0
 62
     0
 10
32.8125
 20
20.8966
 30
0.0
 11
46.8118
 21
20.8966
 31
0.0
  0
LINE
  8
0
 62
     0
 10
46.8118
 20
20.8966
 30
0.0
 11
46.8118
 21
6.89709
 31
0.0
  0
LINE
  8
0
 62
     0
 10
46.8118
 20
6.89709
 30
0.0
 11
32.8125
 21
6.89709
 31
0.0
  0
LINE
  8
0
 62
     0
 10
32.8125
 20
6.89709
 30
0.0
 11
32.8125
 21
20.8966
 31
0.0
  0
LINE
  8
0
 62
     0
 10
8.99996
 20
20.8966
 30
0.0
 11
23.0008
 21
20.8966
 31
0.0
  0
LINE
  8
0
 62
     0
 10
23.0008
 20
20.8966
 30
0.0
 11
23.0008
 21
6.89709
 31
0.0
  0
LINE
  8
0
 62
     0
 10
23.0008
 20
6.89709
 30
0.0
 11
8.99996
 21
6.89709
 31
0.0
  0
LINE
  8
0
 62
     0
 10
8.99996
 20
6.89709
 30
0.0
 11
8.99996
 21
20.8966
 31
0.0
  0
LINE
  8
0
 62
     0
 10
18.525
 20
39.9464
 30
0.0
 11
18.525
 21
35.2475
 31
0.0
  0
LINE
  8
0
 62
     0
 10
18.525
 20
35.2475
 30
0.0
 11
17.0009
 21
35.2475
 31
0.0
  0
LINE
  8
0
 62
     0
 10
17.0009
 20
35.2475
 30
0.0
 11
17.0009
 21
38.4775
 31
0.0
  0
LINE
  8
0
 62
     0
 10
17.0009
 20
38.4775
 30
0.0
 11
10.2499
 21
38.4775
 31
0.0
  0
LINE
  8
0
 62
     0
 10
10.2499
 20
38.4775
 30
0.0
 11
10.2499
 21
35.2475
 31
0.0
  0
LINE
  8
0
 62
     0
 10
10.2499
 20
35.2475
 30
0.0
 11
9.4258
 21
35.2475
 31
0.0
  0
LINE
  8
0
 62
     0
 10
9.4258
 20
35.2475
 30
0.0
 11
9.4258
 21
32.4473
 31
0.0
  0
LINE
  8
0
 62
     0
 10
9.4258
 20
32.4473
 30
0.0
 11
10.2499
 21
32.4473
 31
0.0
  0
LINE
  8
0
 62
     0
 10
10.2499
 20
32.4473
 30
0.0
 11
10.2499
 21
26.1772
 31
0.0
  0
LINE
  8
0
 62
     0
 10
10.2499
 20
26.1772
 30
0.0
 11
11.9751
 21
26.1772
 31
0.0
  0
LINE
  8
0
 62
     0
 10
11.9751
 20
26.1772
 30
0.0
 11
11.9751
 21
24.9769
 31
0.0
  0
LINE
  8
0
 62
     0
 10
11.9751
 20
24.9769
 30
0.0
 11
15.2756
 21
24.9769
 31
0.0
  0
LINE
  8
0
 62
     0
 10
15.2756
 20
24.9769
 30
0.0
 11
15.2756
 21
26.1772
 31
0.0
  0
LINE
  8
0
 62
     0
 10
15.2756
 20
26.1772
 30
0.0
 11
17.0009
 21
26.1772
 31
0.0
  0
LINE
  8
0
 62
     0
 10
17.0009
 20
26.1772
 30
0.0
 11
17.0009
 21
30.6476
 31
0.0
  0
LINE
  8
0
 62
     0
 10
17.0009
 20
30.6476
 30
0.0
 11
18.525
 21
30.6476
 31
0.0
  0
LINE
  8
0
 62
     0
 10
18.525
 20
30.6476
 30
0.0
 11
18.525
 21
25.9471
 31
0.0
  0
LINE
  8
0
 62
     0
 10
18.525
 20
25.9471
 30
0.0
 11
32.5258
 21
25.9471
 31
0.0
  0
LINE
  8
0
 62
     0
 10
32.5258
 20
25.9471
 30
0.0
 11
32.5258
 21
30.6476
 31
0.0
  0
LINE
  8
0
 62
     0
 10
32.5258
 20
30.6476
 30
0.0
 11
34.0499
 21
30.6476
 31
0.0
  0
LINE
  8
0
 62
     0
 10
34.0499
 20
30.6476
 30
0.0
 11
34.0499
 21
26.1772
 31
0.0
  0
LINE
  8
0
 62
     0
 10
34.0499
 20
26.1772
 30
0.0
 11
35.7752
 21
26.1772
 31
0.0
  0
LINE
  8
0
 62
     0
 10
35.7752
 20
26.1772
 30
0.0
 11
35.7752
 21
24.9769
 31
0.0
  0
LINE
  8
0
 62
     0
 10
35.7752
 20
24.9769
 30
0.0
 11
39.0758
 21
24.9769
 31
0.0
  0
LINE
  8
0
 62
     0
 10
39.0758
 20
24.9769
 30
0.0
 11
39.0758
 21
26.1772
 31
0.0
  0
LINE
  8
0
 62
     0
 10
39.0758
 20
26.1772
 30
0.0
 11
40.8009
 21
26.1772
 31
0.0
  0
LINE
  8
0
 62
     0
 10
40.8009
 20
26.1772
 30
0.0
 11
40.8009
 21
32.4473
 31
0.0
  0
LINE
  8
0
 62
     0
 10
40.8009
 20
32.4473
 30
0.0
 11
41.625
 21
32.4473
 31
0.0
  0
LINE
  8
0
 62
     0
 10
41.625
 20
32.4473
 30
0.0
 11
41.625
 21
35.2475
 31
0.0
  0
LINE
  8
0
 62
     0
 10
41.625
 20
35.2475
 30
0.0
 11
40.8009
 21
35.2475
 31
0.0
  0
LINE
  8
0
 62
     0
 10
40.8009
 20
35.2475
 30
0.0
 11
40.8009
 21
38.4775
 31
0.0
  0
LINE
  8
0
 62
     0
 10
40.8009
 20
38.4775
 30
0.0
 11
34.0499
 21
38.4775
 31
0.0
  0
LINE
  8
0
 62
     0
 10
34.0499
 20
38.4775
 30
0.0
 11
34.0499
 21
35.2475
 31
0.0
  0
LINE
  8
0
 62
     0
 10
34.0499
 20
35.2475
 30
0.0
 11
32.5258
 21
35.2475
 31
0.0
  0
LINE
  8
0
 62
     0
 10
32.5258
 20
35.2475
 30
0.0
 11
32.5258
 21
39.9464
 31
0.0
  0
LINE
  8
0
 62
     0
 10
32.5258
 20
39.9464
 30
0.0
 11
18.525
 21
39.9464
 31
0.0
  0
LINE
  8
0
 62
     0
 10
273.32
 20
39.9464
 30
0.0
 11
287.32
 21
39.9464
 31
0.0
  0
LINE
  8
0
 62
     0
 10
287.32
 20
39.9464
 30
0.0
 11
287.32
 21
25.9471
 31
0.0
  0
LINE
  8
0
 62
     0
 10
287.32
 20
25.9471
 30
0.0
 11
273.32
 21
25.9471
 31
0.0
  0
LINE
  8
0
 62
     0
 10
273.32
 20
25.9471
 30
0.0
 11
273.32
 21
39.9464
 31
0.0
  0
LINE
  8
0
 62
     0
 10
247.125
 20
39.9464
 30
0.0
 11
261.126
 21
39.9464
 31
0.0
  0
LINE
  8
0
 62
     0
 10
261.126
 20
39.9464
 30
0.0
 11
261.126
 21
25.9471
 31
0.0
  0
LINE
  8
0
 62
     0
 10
261.126
 20
25.9471
 30
0.0
 11
247.125
 21
25.9471
 31
0.0
  0
LINE
  8
0
 62
     0
 10
247.125
 20
25.9471
 30
0.0
 11
247.125
 21
39.9464
 31
0.0
  0
LINE
  8
0
 62
     0
 10
220.931
 20
39.9464
 30
0.0
 11
234.932
 21
39.9464
 31
0.0
  0
LINE
  8
0
 62
     0
 10
234.932
 20
39.9464
 30
0.0
 11
234.932
 21
25.9471
 31
0.0
  0
LINE
  8
0
 62
     0
 10
234.932
 20
25.9471
 30
0.0
 11
220.931
 21
25.9471
 31
0.0
  0
LINE
  8
0
 62
     0
 10
220.931
 20
25.9471
 30
0.0
 11
220.931
 21
39.9464
 31
0.0
  0
LINE
  8
0
 62
     0
 10
201.881
 20
39.9464
 30
0.0
 11
215.882
 21
39.9464
 31
0.0
  0
LINE
  8
0
 62
     0
 10
215.882
 20
39.9464
 30
0.0
 11
215.882
 21
25.9471
 31
0.0
  0
LINE
  8
0
 62
     0
 10
215.882
 20
25.9471
 30
0.0
 11
201.881
 21
25.9471
 31
0.0
  0
LINE
  8
0
 62
     0
 10
201.881
 20
25.9471
 30
0.0
 11
201.881
 21
39.9464
 31
0.0
  0
LINE
  8
0
 62
     0
 10
182.831
 20
39.9464
 30
0.0
 11
196.832
 21
39.9464
 31
0.0
  0
LINE
  8
0
 62
     0
 10
196.832
 20
39.9464
 30
0.0
 11
196.832
 21
25.9471
 31
0.0
  0
LINE
  8
0
 62
     0
 10
196.832
 20
25.9471
 30
0.0
 11
182.831
 21
25.9471
 31
0.0
  0
LINE
  8
0
 62
     0
 10
182.831
 20
25.9471
 30
0.0
 11
182.831
 21
39.9464
 31
0.0
  0
LINE
  8
0
 62
     0
 10
163.781
 20
39.9464
 30
0.0
 11
177.782
 21
39.9464
 31
0.0
  0
LINE
  8
0
 62
     0
 10
177.782
 20
39.9464
 30
0.0
 11
177.782
 21
25.9471
 31
0.0
  0
LINE
  8
0
 62
     0
 10
177.782
 20
25.9471
 30
0.0
 11
163.781
 21
25.9471
 31
0.0
  0
LINE
  8
0
 62
     0
 10
163.781
 20
25.9471
 30
0.0
 11
163.781
 21
39.9464
 31
0.0
  0
LINE
  8
0
 62
     0
 10
144.731
 20
39.9464
 30
0.0
 11
158.732
 21
39.9464
 31
0.0
  0
LINE
  8
0
 62
     0
 10
158.732
 20
39.9464
 30
0.0
 11
158.732
 21
25.9471
 31
0.0
  0
LINE
  8
0
 62
     0
 10
158.732
 20
25.9471
 30
0.0
 11
144.731
 21
25.9471
 31
0.0
  0
LINE
  8
0
 62
     0
 10
144.731
 20
25.9471
 30
0.0
 11
144.731
 21
39.9464
 31
0.0
  0
LINE
  8
0
 62
     0
 10
125.68
 20
39.9464
 30
0.0
 11
139.682
 21
39.9464
 31
0.0
  0
LINE
  8
0
 62
     0
 10
139.682
 20
39.9464
 30
0.0
 11
139.682
 21
25.9471
 31
0.0
  0
LINE
  8
0
 62
     0
 10
139.682
 20
25.9471
 30
0.0
 11
125.68
 21
25.9471
 31
0.0
  0
LINE
  8
0
 62
     0
 10
125.68
 20
25.9471
 30
0.0
 11
125.68
 21
39.9464
 31
0.0
  0
LINE
  8
0
 62
     0
 10
106.631
 20
39.9464
 30
0.0
 11
120.632
 21
39.9464
 31
0.0
  0
LINE
  8
0
 62
     0
 10
120.632
 20
39.9464
 30
0.0
 11
120.632
 21
25.9471
 31
0.0
  0
LINE
  8
0
 62
     0
 10
120.632
 20
25.9471
 30
0.0
 11
106.631
 21
25.9471
 31
0.0
  0
LINE
  8
0
 62
     0
 10
106.631
 20
25.9471
 30
0.0
 11
106.631
 21
39.9464
 31
0.0
  0
LINE
  8
0
 62
     0
 10
87.5813
 20
39.9464
 30
0.0
 11
101.582
 21
39.9464
 31
0.0
  0
LINE
  8
0
 62
     0
 10
101.582
 20
39.9464
 30
0.0
 11
101.582
 21
25.9471
 31
0.0
  0
LINE
  8
0
 62
     0
 10
101.582
 20
25.9471
 30
0.0
 11
87.5813
 21
25.9471
 31
0.0
  0
LINE
  8
0
 62
     0
 10
87.5813
 20
25.9471
 30
0.0
 11
87.5813
 21
39.9464
 31
0.0
  0
LINE
  8
0
 62
     0
 10
68.5313
 20
39.9464
 30
0.0
 11
82.532
 21
39.9464
 31
0.0
  0
LINE
  8
0
 62
     0
 10
82.532
 20
39.9464
 30
0.0
 11
82.532
 21
25.9471
 31
0.0
  0
LINE
  8
0
 62
     0
 10
82.532
 20
25.9471
 30
0.0
 11
68.5313
 21
25.9471
 31
0.0
  0
LINE
  8
0
 62
     0
 10
68.5313
 20
25.9471
 30
0.0
 11
68.5313
 21
39.9464
 31
0.0
  0
LINE
  8
0
 62
     0
 10
49.4813
 20
39.9464
 30
0.0
 11
63.482
 21
39.9464
 31
0.0
  0
LINE
  8
0
 62
     0
 10
63.482
 20
39.9464
 30
0.0
 11
63.482
 21
25.9471
 31
0.0
  0
LINE
  8
0
 62
     0
 10
63.482
 20
25.9471
 30
0.0
 11
49.4813
 21
25.9471
 31
0.0
  0
LINE
  8
0
 62
     0
 10
49.4813
 20
25.9471
 30
0.0
 11
49.4813
 21
39.9464
 31
0.0
  0
LINE
  8
0
 62
     0
 10
261.413
 20
58.9964
 30
0.0
 11
261.413
 21
54.2974
 31
0.0
  0
LINE
  8
0
 62
     0
 10
261.413
 20
54.2974
 30
0.0
 11
259.887
 21
54.2974
 31
0.0
  0
LINE
  8
0
 62
     0
 10
259.887
 20
54.2974
 30
0.0
 11
259.887
 21
57.5275
 31
0.0
  0
LINE
  8
0
 62
     0
 10
259.887
 20
57.5275
 30
0.0
 11
253.137
 21
57.5275
 31
0.0
  0
LINE
  8
0
 62
     0
 10
253.137
 20
57.5275
 30
0.0
 11
253.137
 21
54.2974
 31
0.0
  0
LINE
  8
0
 62
     0
 10
253.137
 20
54.2974
 30
0.0
 11
252.312
 21
54.2974
 31
0.0
  0
LINE
  8
0
 62
     0
 10
252.312
 20
54.2974
 30
0.0
 11
252.312
 21
51.4974
 31
0.0
  0
LINE
  8
0
 62
     0
 10
252.312
 20
51.4974
 30
0.0
 11
253.137
 21
51.4974
 31
0.0
  0
LINE
  8
0
 62
     0
 10
253.137
 20
51.4974
 30
0.0
 11
253.137
 21
45.2286
 31
0.0
  0
LINE
  8
0
 62
     0
 10
253.137
 20
45.2286
 30
0.0
 11
254.861
 21
45.2286
 31
0.0
  0
LINE
  8
0
 62
     0
 10
254.861
 20
45.2286
 30
0.0
 11
254.861
 21
44.027
 31
0.0
  0
LINE
  8
0
 62
     0
 10
254.861
 20
44.027
 30
0.0
 11
258.163
 21
44.027
 31
0.0
  0
LINE
  8
0
 62
     0
 10
258.163
 20
44.027
 30
0.0
 11
258.163
 21
45.2286
 31
0.0
  0
LINE
  8
0
 62
     0
 10
258.163
 20
45.2286
 30
0.0
 11
259.887
 21
45.2286
 31
0.0
  0
LINE
  8
0
 62
     0
 10
259.887
 20
45.2286
 30
0.0
 11
259.887
 21
49.6976
 31
0.0
  0
LINE
  8
0
 62
     0
 10
259.887
 20
49.6976
 30
0.0
 11
261.413
 21
49.6976
 31
0.0
  0
LINE
  8
0
 62
     0
 10
261.413
 20
49.6976
 30
0.0
 11
261.413
 21
44.9972
 31
0.0
  0
LINE
  8
0
 62
     0
 10
261.413
 20
44.9972
 30
0.0
 11
275.412
 21
44.9972
 31
0.0
  0
LINE
  8
0
 62
     0
 10
275.412
 20
44.9972
 30
0.0
 11
275.412
 21
49.6976
 31
0.0
  0
LINE
  8
0
 62
     0
 10
275.412
 20
49.6976
 30
0.0
 11
276.938
 21
49.6976
 31
0.0
  0
LINE
  8
0
 62
     0
 10
276.938
 20
49.6976
 30
0.0
 11
276.938
 21
45.2286
 31
0.0
  0
LINE
  8
0
 62
     0
 10
276.938
 20
45.2286
 30
0.0
 11
278.663
 21
45.2286
 31
0.0
  0
LINE
  8
0
 62
     0
 10
278.663
 20
45.2286
 30
0.0
 11
278.663
 21
44.027
 31
0.0
  0
LINE
  8
0
 62
     0
 10
278.663
 20
44.027
 30
0.0
 11
281.963
 21
44.027
 31
0.0
  0
LINE
  8
0
 62
     0
 10
281.963
 20
44.027
 30
0.0
 11
281.963
 21
45.2286
 31
0.0
  0
LINE
  8
0
 62
     0
 10
281.963
 20
45.2286
 30
0.0
 11
283.687
 21
45.2286
 31
0.0
  0
LINE
  8
0
 62
     0
 10
283.687
 20
45.2286
 30
0.0
 11
283.687
 21
51.4974
 31
0.0
  0
LINE
  8
0
 62
     0
 10
283.687
 20
51.4974
 30
0.0
 11
284.512
 21
51.4974
 31
0.0
  0
LINE
  8
0
 62
     0
 10
284.512
 20
51.4974
 30
0.0
 11
284.512
 21
54.2974
 31
0.0
  0
LINE
  8
0
 62
     0
 10
284.512
 20
54.2974
 30
0.0
 11
283.687
 21
54.2974
 31
0.0
  0
LINE
  8
0
 62
     0
 10
283.687
 20
54.2974
 30
0.0
 11
283.687
 21
57.5275
 31
0.0
  0
LINE
  8
0
 62
     0
 10
283.687
 20
57.5275
 30
0.0
 11
276.938
 21
57.5275
 31
0.0
  0
LINE
  8
0
 62
     0
 10
276.938
 20
57.5275
 30
0.0
 11
276.938
 21
54.2974
 31
0.0
  0
LINE
  8
0
 62
     0
 10
276.938
 20
54.2974
 30
0.0
 11
275.412
 21
54.2974
 31
0.0
  0
LINE
  8
0
 62
     0
 10
275.412
 20
54.2974
 30
0.0
 11
275.412
 21
58.9964
 31
0.0
  0
LINE
  8
0
 62
     0
 10
275.412
 20
58.9964
 30
0.0
 11
261.413
 21
58.9964
 31
0.0
  0
LINE
  8
0
 62
     0
 10
230.456
 20
58.9964
 30
0.0
 11
244.457
 21
58.9964
 31
0.0
  0
LINE
  8
0
 62
     0
 10
244.457
 20
58.9964
 30
0.0
 11
244.457
 21
44.9972
 31
0.0
  0
LINE
  8
0
 62
     0
 10
244.457
 20
44.9972
 30
0.0
 11
230.456
 21
44.9972
 31
0.0
  0
LINE
  8
0
 62
     0
 10
230.456
 20
44.9972
 30
0.0
 11
230.456
 21
58.9964
 31
0.0
  0
LINE
  8
0
 62
     0
 10
211.406
 20
58.9964
 30
0.0
 11
225.407
 21
58.9964
 31
0.0
  0
LINE
  8
0
 62
     0
 10
225.407
 20
58.9964
 30
0.0
 11
225.407
 21
44.9972
 31
0.0
  0
LINE
  8
0
 62
     0
 10
225.407
 20
44.9972
 30
0.0
 11
211.406
 21
44.9972
 31
0.0
  0
LINE
  8
0
 62
     0
 10
211.406
 20
44.9972
 30
0.0
 11
211.406
 21
58.9964
 31
0.0
  0
LINE
  8
0
 62
     0
 10
192.356
 20
58.9964
 30
0.0
 11
206.357
 21
58.9964
 31
0.0
  0
LINE
  8
0
 62
     0
 10
206.357
 20
58.9964
 30
0.0
 11
206.357
 21
44.9972
 31
0.0
  0
LINE
  8
0
 62
     0
 10
206.357
 20
44.9972
 30
0.0
 11
192.356
 21
44.9972
 31
0.0
  0
LINE
  8
0
 62
     0
 10
192.356
 20
44.9972
 30
0.0
 11
192.356
 21
58.9964
 31
0.0
  0
LINE
  8
0
 62
     0
 10
173.306
 20
58.9964
 30
0.0
 11
187.307
 21
58.9964
 31
0.0
  0
LINE
  8
0
 62
     0
 10
187.307
 20
58.9964
 30
0.0
 11
187.307
 21
44.9972
 31
0.0
  0
LINE
  8
0
 62
     0
 10
187.307
 20
44.9972
 30
0.0
 11
173.306
 21
44.9972
 31
0.0
  0
LINE
  8
0
 62
     0
 10
173.306
 20
44.9972
 30
0.0
 11
173.306
 21
58.9964
 31
0.0
  0
LINE
  8
0
 62
     0
 10
154.256
 20
58.9964
 30
0.0
 11
168.257
 21
58.9964
 31
0.0
  0
LINE
  8
0
 62
     0
 10
168.257
 20
58.9964
 30
0.0
 11
168.257
 21
44.9972
 31
0.0
  0
LINE
  8
0
 62
     0
 10
168.257
 20
44.9972
 30
0.0
 11
154.256
 21
44.9972
 31
0.0
  0
LINE
  8
0
 62
     0
 10
154.256
 20
44.9972
 30
0.0
 11
154.256
 21
58.9964
 31
0.0
  0
LINE
  8
0
 62
     0
 10
135.206
 20
58.9964
 30
0.0
 11
149.207
 21
58.9964
 31
0.0
  0
LINE
  8
0
 62
     0
 10
149.207
 20
58.9964
 30
0.0
 11
149.207
 21
44.9972
 31
0.0
  0
LINE
  8
0
 62
     0
 10
149.207
 20
44.9972
 30
0.0
 11
135.206
 21
44.9972
 31
0.0
  0
LINE
  8
0
 62
     0
 10
135.206
 20
44.9972
 30
0.0
 11
135.206
 21
58.9964
 31
0.0
  0
LINE
  8
0
 62
     0
 10
116.156
 20
58.9964
 30
0.0
 11
130.157
 21
58.9964
 31
0.0
  0
LINE
  8
0
 62
     0
 10
130.157
 20
58.9964
 30
0.0
 11
130.157
 21
44.9972
 31
0.0
  0
LINE
  8
0
 62
     0
 10
130.157
 20
44.9972
 30
0.0
 11
116.156
 21
44.9972
 31
0.0
  0
LINE
  8
0
 62
     0
 10
116.156
 20
44.9972
 30
0.0
 11
116.156
 21
58.9964
 31
0.0
  0
LINE
  8
0
 62
     0
 10
97.1063
 20
58.9964
 30
0.0
 11
111.107
 21
58.9964
 31
0.0
  0
LINE
  8
0
 62
     0
 10
111.107
 20
58.9964
 30
0.0
 11
111.107
 21
44.9972
 31
0.0
  0
LINE
  8
0
 62
     0
 10
111.107
 20
44.9972
 30
0.0
 11
97.1063
 21
44.9972
 31
0.0
  0
LINE
  8
0
 62
     0
 10
97.1063
 20
44.9972
 30
0.0
 11
97.1063
 21
58.9964
 31
0.0
  0
LINE
  8
0
 62
     0
 10
78.0563
 20
58.9964
 30
0.0
 11
92.057
 21
58.9964
 31
0.0
  0
LINE
  8
0
 62
     0
 10
92.057
 20
58.9964
 30
0.0
 11
92.057
 21
44.9972
 31
0.0
  0
LINE
  8
0
 62
     0
 10
92.057
 20
44.9972
 30
0.0
 11
78.0563
 21
44.9972
 31
0.0
  0
LINE
  8
0
 62
     0
 10
78.0563
 20
44.9972
 30
0.0
 11
78.0563
 21
58.9964
 31
0.0
  0
LINE
  8
0
 62
     0
 10
59.0063
 20
58.9964
 30
0.0
 11
73.007
 21
58.9964
 31
0.0
  0
LINE
  8
0
 62
     0
 10
73.007
 20
58.9964
 30
0.0
 11
73.007
 21
44.9972
 31
0.0
  0
LINE
  8
0
 62
     0
 10
73.007
 20
44.9972
 30
0.0
 11
59.0063
 21
44.9972
 31
0.0
  0
LINE
  8
0
 62
     0
 10
59.0063
 20
44.9972
 30
0.0
 11
59.0063
 21
58.9964
 31
0.0
  0
LINE
  8
0
 62
     0
 10
39.9563
 20
58.9964
 30
0.0
 11
53.957
 21
58.9964
 31
0.0
  0
LINE
  8
0
 62
     0
 10
53.957
 20
58.9964
 30
0.0
 11
53.957
 21
44.9972
 31
0.0
  0
LINE
  8
0
 62
     0
 10
53.957
 20
44.9972
 30
0.0
 11
39.9563
 21
44.9972
 31
0.0
  0
LINE
  8
0
 62
     0
 10
39.9563
 20
44.9972
 30
0.0
 11
39.9563
 21
58.9964
 31
0.0
  0
LINE
  8
0
 62
     0
 10
13.7625
 20
58.9964
 30
0.0
 11
27.762
 21
58.9964
 31
0.0
  0
LINE
  8
0
 62
     0
 10
27.762
 20
58.9964
 30
0.0
 11
27.762
 21
44.9972
 31
0.0
  0
LINE
  8
0
 62
     0
 10
27.762
 20
44.9972
 30
0.0
 11
13.7625
 21
44.9972
 31
0.0
  0
LINE
  8
0
 62
     0
 10
13.7625
 20
44.9972
 30
0.0
 11
13.7625
 21
58.9964
 31
0.0
  0
LINE
  8
0
 62
     0
 10
268.556
 20
78.0464
 30
0.0
 11
282.557
 21
78.0464
 31
0.0
  0
LINE
  8
0
 62
     0
 10
282.557
 20
78.0464
 30
0.0
 11
282.557
 21
64.0472
 31
0.0
  0
LINE
  8
0
 62
     0
 10
282.557
 20
64.0472
 30
0.0
 11
268.556
 21
64.0472
 31
0.0
  0
LINE
  8
0
 62
     0
 10
268.556
 20
64.0472
 30
0.0
 11
268.556
 21
78.0464
 31
0.0
  0
LINE
  8
0
 62
     0
 10
244.745
 20
78.0464
 30
0.0
 11
258.745
 21
78.0464
 31
0.0
  0
LINE
  8
0
 62
     0
 10
258.745
 20
78.0464
 30
0.0
 11
258.745
 21
64.0472
 31
0.0
  0
LINE
  8
0
 62
     0
 10
258.745
 20
64.0472
 30
0.0
 11
244.745
 21
64.0472
 31
0.0
  0
LINE
  8
0
 62
     0
 10
244.745
 20
64.0472
 30
0.0
 11
244.745
 21
78.0464
 31
0.0
  0
LINE
  8
0
 62
     0
 10
225.695
 20
78.0464
 30
0.0
 11
239.695
 21
78.0464
 31
0.0
  0
LINE
  8
0
 62
     0
 10
239.695
 20
78.0464
 30
0.0
 11
239.695
 21
64.0472
 31
0.0
  0
LINE
  8
0
 62
     0
 10
239.695
 20
64.0472
 30
0.0
 11
225.695
 21
64.0472
 31
0.0
  0
LINE
  8
0
 62
     0
 10
225.695
 20
64.0472
 30
0.0
 11
225.695
 21
78.0464
 31
0.0
  0
LINE
  8
0
 62
     0
 10
206.645
 20
78.0464
 30
0.0
 11
220.645
 21
78.0464
 31
0.0
  0
LINE
  8
0
 62
     0
 10
220.645
 20
78.0464
 30
0.0
 11
220.645
 21
64.0472
 31
0.0
  0
LINE
  8
0
 62
     0
 10
220.645
 20
64.0472
 30
0.0
 11
206.645
 21
64.0472
 31
0.0
  0
LINE
  8
0
 62
     0
 10
206.645
 20
64.0472
 30
0.0
 11
206.645
 21
78.0464
 31
0.0
  0
LINE
  8
0
 62
     0
 10
187.595
 20
78.0464
 30
0.0
 11
201.595
 21
78.0464
 31
0.0
  0
LINE
  8
0
 62
     0
 10
201.595
 20
78.0464
 30
0.0
 11
201.595
 21
64.0472
 31
0.0
  0
LINE
  8
0
 62
     0
 10
201.595
 20
64.0472
 30
0.0
 11
187.595
 21
64.0472
 31
0.0
  0
LINE
  8
0
 62
     0
 10
187.595
 20
64.0472
 30
0.0
 11
187.595
 21
78.0464
 31
0.0
  0
LINE
  8
0
 62
     0
 10
168.545
 20
78.0464
 30
0.0
 11
182.545
 21
78.0464
 31
0.0
  0
LINE
  8
0
 62
     0
 10
182.545
 20
78.0464
 30
0.0
 11
182.545
 21
64.0472
 31
0.0
  0
LINE
  8
0
 62
     0
 10
182.545
 20
64.0472
 30
0.0
 11
168.545
 21
64.0472
 31
0.0
  0
LINE
  8
0
 62
     0
 10
168.545
 20
64.0472
 30
0.0
 11
168.545
 21
78.0464
 31
0.0
  0
LINE
  8
0
 62
     0
 10
149.495
 20
78.0464
 30
0.0
 11
163.495
 21
78.0464
 31
0.0
  0
LINE
  8
0
 62
     0
 10
163.495
 20
78.0464
 30
0.0
 11
163.495
 21
64.0472
 31
0.0
  0
LINE
  8
0
 62
     0
 10
163.495
 20
64.0472
 30
0.0
 11
149.495
 21
64.0472
 31
0.0
  0
LINE
  8
0
 62
     0
 10
149.495
 20
64.0472
 30
0.0
 11
149.495
 21
78.0464
 31
0.0
  0
LINE
  8
0
 62
     0
 10
130.445
 20
78.0464
 30
0.0
 11
144.445
 21
78.0464
 31
0.0
  0
LINE
  8
0
 62
     0
 10
144.445
 20
78.0464
 30
0.0
 11
144.445
 21
64.0472
 31
0.0
  0
LINE
  8
0
 62
     0
 10
144.445
 20
64.0472
 30
0.0
 11
130.445
 21
64.0472
 31
0.0
  0
LINE
  8
0
 62
     0
 10
130.445
 20
64.0472
 30
0.0
 11
130.445
 21
78.0464
 31
0.0
  0
LINE
  8
0
 62
     0
 10
111.395
 20
78.0464
 30
0.0
 11
125.395
 21
78.0464
 31
0.0
  0
LINE
  8
0
 62
     0
 10
125.395
 20
78.0464
 30
0.0
 11
125.395
 21
64.0472
 31
0.0
  0
LINE
  8
0
 62
     0
 10
125.395
 20
64.0472
 30
0.0
 11
111.395
 21
64.0472
 31
0.0
  0
LINE
  8
0
 62
     0
 10
111.395
 20
64.0472
 30
0.0
 11
111.395
 21
78.0464
 31
0.0
  0
LINE
  8
0
 62
     0
 10
92.3452
 20
78.0464
 30
0.0
 11
106.345
 21
78.0464
 31
0.0
  0
LINE
  8
0
 62
     0
 10
106.345
 20
78.0464
 30
0.0
 11
106.345
 21
64.0472
 31
0.0
  0
LINE
  8
0
 62
     0
 10
106.345
 20
64.0472
 30
0.0
 11
92.3452
 21
64.0472
 31
0.0
  0
LINE
  8
0
 62
     0
 10
92.3452
 20
64.0472
 30
0.0
 11
92.3452
 21
78.0464
 31
0.0
  0
LINE
  8
0
 62
     0
 10
73.2952
 20
78.0464
 30
0.0
 11
87.2945
 21
78.0464
 31
0.0
  0
LINE
  8
0
 62
     0
 10
87.2945
 20
78.0464
 30
0.0
 11
87.2945
 21
64.0472
 31
0.0
  0
LINE
  8
0
 62
     0
 10
87.2945
 20
64.0472
 30
0.0
 11
73.2952
 21
64.0472
 31
0.0
  0
LINE
  8
0
 62
     0
 10
73.2952
 20
64.0472
 30
0.0
 11
73.2952
 21
78.0464
 31
0.0
  0
LINE
  8
0
 62
     0
 10
54.2452
 20
78.0464
 30
0.0
 11
68.2445
 21
78.0464
 31
0.0
  0
LINE
  8
0
 62
     0
 10
68.2445
 20
78.0464
 30
0.0
 11
68.2445
 21
64.0472
 31
0.0
  0
LINE
  8
0
 62
     0
 10
68.2445
 20
64.0472
 30
0.0
 11
54.2452
 21
64.0472
 31
0.0
  0
LINE
  8
0
 62
     0
 10
54.2452
 20
64.0472
 30
0.0
 11
54.2452
 21
78.0464
 31
0.0
  0
LINE
  8
0
 62
     0
 10
35.1951
 20
78.0464
 30
0.0
 11
49.1945
 21
78.0464
 31
0.0
  0
LINE
  8
0
 62
     0
 10
49.1945
 20
78.0464
 30
0.0
 11
49.1945
 21
64.0472
 31
0.0
  0
LINE
  8
0
 62
     0
 10
49.1945
 20
64.0472
 30
0.0
 11
35.1951
 21
64.0472
 31
0.0
  0
LINE
  8
0
 62
     0
 10
35.1951
 20
64.0472
 30
0.0
 11
35.1951
 21
78.0464
 31
0.0
  0
LINE
  8
0
 62
     0
 10
11.3798
 20
78.0464
 30
0.0
 11
25.3821
 21
78.0464
 31
0.0
  0
LINE
  8
0
 62
     0
 10
25.3821
 20
78.0464
 30
0.0
 11
25.3821
 21
64.0472
 31
0.0
  0
LINE
  8
0
 62
     0
 10
25.3821
 20
64.0472
 30
0.0
 11
11.3798
 21
64.0472
 31
0.0
  0
LINE
  8
0
 62
     0
 10
11.3798
 20
64.0472
 30
0.0
 11
11.3798
 21
78.0464
 31
0.0
  0
LINE
  8
0
 62
     0
 10
263.795
 20
97.0979
 30
0.0
 11
263.795
 21
92.3989
 31
0.0
  0
LINE
  8
0
 62
     0
 10
263.795
 20
92.3989
 30
0.0
 11
262.269
 21
92.3989
 31
0.0
  0
LINE
  8
0
 62
     0
 10
262.269
 20
92.3989
 30
0.0
 11
262.269
 21
95.6275
 31
0.0
  0
LINE
  8
0
 62
     0
 10
262.269
 20
95.6275
 30
0.0
 11
255.52
 21
95.6275
 31
0.0
  0
LINE
  8
0
 62
     0
 10
255.52
 20
95.6275
 30
0.0
 11
255.52
 21
92.3989
 31
0.0
  0
LINE
  8
0
 62
     0
 10
255.52
 20
92.3989
 30
0.0
 11
254.695
 21
92.3989
 31
0.0
  0
LINE
  8
0
 62
     0
 10
254.695
 20
92.3989
 30
0.0
 11
254.695
 21
89.5974
 31
0.0
  0
LINE
  8
0
 62
     0
 10
254.695
 20
89.5974
 30
0.0
 11
255.52
 21
89.5974
 31
0.0
  0
LINE
  8
0
 62
     0
 10
255.52
 20
89.5974
 30
0.0
 11
255.52
 21
83.3286
 31
0.0
  0
LINE
  8
0
 62
     0
 10
255.52
 20
83.3286
 30
0.0
 11
257.244
 21
83.3286
 31
0.0
  0
LINE
  8
0
 62
     0
 10
257.244
 20
83.3286
 30
0.0
 11
257.244
 21
82.1284
 31
0.0
  0
LINE
  8
0
 62
     0
 10
257.244
 20
82.1284
 30
0.0
 11
260.544
 21
82.1284
 31
0.0
  0
LINE
  8
0
 62
     0
 10
260.544
 20
82.1284
 30
0.0
 11
260.544
 21
83.3286
 31
0.0
  0
LINE
  8
0
 62
     0
 10
260.544
 20
83.3286
 30
0.0
 11
262.269
 21
83.3286
 31
0.0
  0
LINE
  8
0
 62
     0
 10
262.269
 20
83.3286
 30
0.0
 11
262.269
 21
87.7976
 31
0.0
  0
LINE
  8
0
 62
     0
 10
262.269
 20
87.7976
 30
0.0
 11
263.795
 21
87.7976
 31
0.0
  0
LINE
  8
0
 62
     0
 10
263.795
 20
87.7976
 30
0.0
 11
263.795
 21
83.0972
 31
0.0
  0
LINE
  8
0
 62
     0
 10
263.795
 20
83.0972
 30
0.0
 11
277.795
 21
83.0972
 31
0.0
  0
LINE
  8
0
 62
     0
 10
277.795
 20
83.0972
 30
0.0
 11
277.795
 21
87.7976
 31
0.0
  0
LINE
  8
0
 62
     0
 10
277.795
 20
87.7976
 30
0.0
 11
279.32
 21
87.7976
 31
0.0
  0
LINE
  8
0
 62
     0
 10
279.32
 20
87.7976
 30
0.0
 11
279.32
 21
83.3286
 31
0.0
  0
LINE
  8
0
 62
     0
 10
279.32
 20
83.3286
 30
0.0
 11
281.044
 21
83.3286
 31
0.0
  0
LINE
  8
0
 62
     0
 10
281.044
 20
83.3286
 30
0.0
 11
281.044
 21
82.1284
 31
0.0
  0
LINE
  8
0
 62
     0
 10
281.044
 20
82.1284
 30
0.0
 11
284.345
 21
82.1284
 31
0.0
  0
LINE
  8
0
 62
     0
 10
284.345
 20
82.1284
 30
0.0
 11
284.345
 21
83.3286
 31
0.0
  0
LINE
  8
0
 62
     0
 10
284.345
 20
83.3286
 30
0.0
 11
286.07
 21
83.3286
 31
0.0
  0
LINE
  8
0
 62
     0
 10
286.07
 20
83.3286
 30
0.0
 11
286.07
 21
89.5974
 31
0.0
  0
LINE
  8
0
 62
     0
 10
286.07
 20
89.5974
 30
0.0
 11
286.895
 21
89.5974
 31
0.0
  0
LINE
  8
0
 62
     0
 10
286.895
 20
89.5974
 30
0.0
 11
286.895
 21
92.3989
 31
0.0
  0
LINE
  8
0
 62
     0
 10
286.895
 20
92.3989
 30
0.0
 11
286.07
 21
92.3989
 31
0.0
  0
LINE
  8
0
 62
     0
 10
286.07
 20
92.3989
 30
0.0
 11
286.07
 21
95.6275
 31
0.0
  0
LINE
  8
0
 62
     0
 10
286.07
 20
95.6275
 30
0.0
 11
279.32
 21
95.6275
 31
0.0
  0
LINE
  8
0
 62
     0
 10
279.32
 20
95.6275
 30
0.0
 11
279.32
 21
92.3989
 31
0.0
  0
LINE
  8
0
 62
     0
 10
279.32
 20
92.3989
 30
0.0
 11
277.795
 21
92.3989
 31
0.0
  0
LINE
  8
0
 62
     0
 10
277.795
 20
92.3989
 30
0.0
 11
277.795
 21
97.0979
 31
0.0
  0
LINE
  8
0
 62
     0
 10
277.795
 20
97.0979
 30
0.0
 11
263.795
 21
97.0979
 31
0.0
  0
LINE
  8
0
 62
     0
 10
235.22
 20
97.0979
 30
0.0
 11
249.22
 21
97.0979
 31
0.0
  0
LINE
  8
0
 62
     0
 10
249.22
 20
97.0979
 30
0.0
 11
249.22
 21
83.0972
 31
0.0
  0
LINE
  8
0
 62
     0
 10
249.22
 20
83.0972
 30
0.0
 11
235.22
 21
83.0972
 31
0.0
  0
LINE
  8
0
 62
     0
 10
235.22
 20
83.0972
 30
0.0
 11
235.22
 21
97.0979
 31
0.0
  0
LINE
  8
0
 62
     0
 10
216.17
 20
97.0979
 30
0.0
 11
230.17
 21
97.0979
 31
0.0
  0
LINE
  8
0
 62
     0
 10
230.17
 20
97.0979
 30
0.0
 11
230.17
 21
83.0972
 31
0.0
  0
LINE
  8
0
 62
     0
 10
230.17
 20
83.0972
 30
0.0
 11
216.17
 21
83.0972
 31
0.0
  0
LINE
  8
0
 62
     0
 10
216.17
 20
83.0972
 30
0.0
 11
216.17
 21
97.0979
 31
0.0
  0
LINE
  8
0
 62
     0
 10
197.12
 20
97.0979
 30
0.0
 11
211.12
 21
97.0979
 31
0.0
  0
LINE
  8
0
 62
     0
 10
211.12
 20
97.0979
 30
0.0
 11
211.12
 21
83.0972
 31
0.0
  0
LINE
  8
0
 62
     0
 10
211.12
 20
83.0972
 30
0.0
 11
197.12
 21
83.0972
 31
0.0
  0
LINE
  8
0
 62
     0
 10
197.12
 20
83.0972
 30
0.0
 11
197.12
 21
97.0979
 31
0.0
  0
LINE
  8
0
 62
     0
 10
178.07
 20
97.0979
 30
0.0
 11
192.07
 21
97.0979
 31
0.0
  0
LINE
  8
0
 62
     0
 10
192.07
 20
97.0979
 30
0.0
 11
192.07
 21
83.0972
 31
0.0
  0
LINE
  8
0
 62
     0
 10
192.07
 20
83.0972
 30
0.0
 11
178.07
 21
83.0972
 31
0.0
  0
LINE
  8
0
 62
     0
 10
178.07
 20
83.0972
 30
0.0
 11
178.07
 21
97.0979
 31
0.0
  0
LINE
  8
0
 62
     0
 10
159.02
 20
97.0979
 30
0.0
 11
173.02
 21
97.0979
 31
0.0
  0
LINE
  8
0
 62
     0
 10
173.02
 20
97.0979
 30
0.0
 11
173.02
 21
83.0972
 31
0.0
  0
LINE
  8
0
 62
     0
 10
173.02
 20
83.0972
 30
0.0
 11
159.02
 21
83.0972
 31
0.0
  0
LINE
  8
0
 62
     0
 10
159.02
 20
83.0972
 30
0.0
 11
159.02
 21
97.0979
 31
0.0
  0
LINE
  8
0
 62
     0
 10
139.97
 20
97.0979
 30
0.0
 11
153.97
 21
97.0979
 31
0.0
  0
LINE
  8
0
 62
     0
 10
153.97
 20
97.0979
 30
0.0
 11
153.97
 21
83.0972
 31
0.0
  0
LINE
  8
0
 62
     0
 10
153.97
 20
83.0972
 30
0.0
 11
139.97
 21
83.0972
 31
0.0
  0
LINE
  8
0
 62
     0
 10
139.97
 20
83.0972
 30
0.0
 11
139.97
 21
97.0979
 31
0.0
  0
LINE
  8
0
 62
     0
 10
120.919
 20
97.0979
 30
0.0
 11
134.92
 21
97.0979
 31
0.0
  0
LINE
  8
0
 62
     0
 10
134.92
 20
97.0979
 30
0.0
 11
134.92
 21
83.0972
 31
0.0
  0
LINE
  8
0
 62
     0
 10
134.92
 20
83.0972
 30
0.0
 11
120.919
 21
83.0972
 31
0.0
  0
LINE
  8
0
 62
     0
 10
120.919
 20
83.0972
 30
0.0
 11
120.919
 21
97.0979
 31
0.0
  0
LINE
  8
0
 62
     0
 10
101.869
 20
97.0979
 30
0.0
 11
115.868
 21
97.0979
 31
0.0
  0
LINE
  8
0
 62
     0
 10
115.868
 20
97.0979
 30
0.0
 11
115.868
 21
83.0972
 31
0.0
  0
LINE
  8
0
 62
     0
 10
115.868
 20
83.0972
 30
0.0
 11
101.869
 21
83.0972
 31
0.0
  0
LINE
  8
0
 62
     0
 10
101.869
 20
83.0972
 30
0.0
 11
101.869
 21
97.0979
 31
0.0
  0
LINE
  8
0
 62
     0
 10
82.8202
 20
97.0979
 30
0.0
 11
96.8195
 21
97.0979
 31
0.0
  0
LINE
  8
0
 62
     0
 10
96.8195
 20
97.0979
 30
0.0
 11
96.8195
 21
83.0972
 31
0.0
  0
LINE
  8
0
 62
     0
 10
96.8195
 20
83.0972
 30
0.0
 11
82.8202
 21
83.0972
 31
0.0
  0
LINE
  8
0
 62
     0
 10
82.8202
 20
83.0972
 30
0.0
 11
82.8202
 21
97.0979
 31
0.0
  0
LINE
  8
0
 62
     0
 10
63.7702
 20
97.0979
 30
0.0
 11
77.7695
 21
97.0979
 31
0.0
  0
LINE
  8
0
 62
     0
 10
77.7695
 20
97.0979
 30
0.0
 11
77.7695
 21
83.0972
 31
0.0
  0
LINE
  8
0
 62
     0
 10
77.7695
 20
83.0972
 30
0.0
 11
63.7702
 21
83.0972
 31
0.0
  0
LINE
  8
0
 62
     0
 10
63.7702
 20
83.0972
 30
0.0
 11
63.7702
 21
97.0979
 31
0.0
  0
LINE
  8
0
 62
     0
 10
44.7202
 20
97.0979
 30
0.0
 11
58.7195
 21
97.0979
 31
0.0
  0
LINE
  8
0
 62
     0
 10
58.7195
 20
97.0979
 30
0.0
 11
58.7195
 21
83.0972
 31
0.0
  0
LINE
  8
0
 62
     0
 10
58.7195
 20
83.0972
 30
0.0
 11
44.7202
 21
83.0972
 31
0.0
  0
LINE
  8
0
 62
     0
 10
44.7202
 20
83.0972
 30
0.0
 11
44.7202
 21
97.0979
 31
0.0
  0
LINE
  8
0
 62
     0
 10
25.6701
 20
97.0979
 30
0.0
 11
39.6695
 21
97.0979
 31
0.0
  0
LINE
  8
0
 62
     0
 10
39.6695
 20
97.0979
 30
0.0
 11
39.6695
 21
83.0972
 31
0.0
  0
LINE
  8
0
 62
     0
 10
39.6695
 20
83.0972
 30
0.0
 11
25.6701
 21
83.0972
 31
0.0
  0
LINE
  8
0
 62
     0
 10
25.6701
 20
83.0972
 30
0.0
 11
25.6701
 21
97.0979
 31
0.0
  0
LINE
  8
0
 62
     0
 10
6.61871
 20
97.0979
 30
0.0
 11
20.6196
 21
97.0979
 31
0.0
  0
LINE
  8
0
 62
     0
 10
20.6196
 20
97.0979
 30
0.0
 11
20.6196
 21
83.0972
 31
0.0
  0
LINE
  8
0
 62
     0
 10
20.6196
 20
83.0972
 30
0.0
 11
6.61871
 21
83.0972
 31
0.0
  0
LINE
  8
0
 62
     0
 10
6.61871
 20
83.0972
 30
0.0
 11
6.61871
 21
97.0979
 31
0.0
  0
ENDSEC
  0
EOF
