  0
SECTION
  2
HEADER
  9
$ACADVER
  1
AC1009
  9
$EXTMIN
 10
0.0
 20
0.0
 30
0.0
  9
$EXTMAX
 10
1000.0
 20
1000.0
 30
0.0
  9
$FILLMODE
 70
 0
  9
$SPLFRAME
 70
 1
  0
ENDSEC
  0
SECTION
  2
TABLES
  0
TABLE
  2
LAYER
 70
1
  0
LAYER
  2
0
 70
     0
 62
     7
  6
CONTINUOUS
  0
ENDTAB
  0
ENDSEC
  0
SECTION
  2
ENTITIES
  0
LINE
  8
0
 62
     0
 10
0.0937066
 20
103.343
 30
0.0
 11
293.844
 21
103.343
 31
0.0
  0
LINE
  8
0
 62
     0
 10
293.844
 20
103.343
 30
0.0
 11
293.844
 21
0.0937066
 31
0.0
  0
LINE
  8
0
 62
     0
 10
293.844
 20
0.0937066
 30
0.0
 11
0.0937066
 21
0.0937066
 31
0.0
  0
LINE
  8
0
 62
     0
 10
0.0937066
 20
0.0937066
 30
0.0
 11
0.0937066
 21
103.343
 31
0.0
  0
LINE
  8
0
 62
     0
 10
128.061
 20
20.6182
 30
0.0
 11
128.061
 21
15.9177
 31
0.0
  0
LINE
  8
0
 62
     0
 10
128.061
 20
15.9177
 30
0.0
 11
88.4372
 21
15.9177
 31
0.0
  0
LINE
  8
0
 62
     0
 10
88.4372
 20
15.9177
 30
0.0
 11
88.4372
 21
19.1478
 31
0.0
  0
LINE
  8
0
 62
     0
 10
88.4372
 20
19.1478
 30
0.0
 11
81.6875
 21
19.1478
 31
0.0
  0
LINE
  8
0
 62
     0
 10
81.6875
 20
19.1478
 30
0.0
 11
81.6875
 21
15.9177
 31
0.0
  0
LINE
  8
0
 62
     0
 10
81.6875
 20
15.9177
 30
0.0
 11
80.862
 21
15.9177
 31
0.0
  0
LINE
  8
0
 62
     0
 10
80.862
 20
15.9177
 30
0.0
 11
80.862
 21
13.1189
 31
0.0
  0
LINE
  8
0
 62
     0
 10
80.862
 20
13.1189
 30
0.0
 11
81.6875
 21
13.1189
 31
0.0
  0
LINE
  8
0
 62
     0
 10
81.6875
 20
13.1189
 30
0.0
 11
81.6875
 21
6.84886
 31
0.0
  0
LINE
  8
0
 62
     0
 10
81.6875
 20
6.84886
 30
0.0
 11
83.4111
 21
6.84886
 31
0.0
  0
LINE
  8
0
 62
     0
 10
83.4111
 20
6.84886
 30
0.0
 11
83.4111
 21
5.64857
 31
0.0
  0
LINE
  8
0
 62
     0
 10
83.4111
 20
5.64857
 30
0.0
 11
86.7117
 21
5.64857
 31
0.0
  0
LINE
  8
0
 62
     0
 10
86.7117
 20
5.64857
 30
0.0
 11
86.7117
 21
6.84886
 31
0.0
  0
LINE
  8
0
 62
     0
 10
86.7117
 20
6.84886
 30
0.0
 11
88.4372
 21
6.84886
 31
0.0
  0
LINE
  8
0
 62
     0
 10
88.4372
 20
6.84886
 30
0.0
 11
88.4372
 21
11.3192
 31
0.0
  0
LINE
  8
0
 62
     0
 10
88.4372
 20
11.3192
 30
0.0
 11
128.061
 21
11.3192
 31
0.0
  0
LINE
  8
0
 62
     0
 10
128.061
 20
11.3192
 30
0.0
 11
128.061
 21
6.61871
 31
0.0
  0
LINE
  8
0
 62
     0
 10
128.061
 20
6.61871
 30
0.0
 11
142.062
 21
6.61871
 31
0.0
  0
LINE
  8
0
 62
     0
 10
142.062
 20
6.61871
 30
0.0
 11
142.062
 21
11.3192
 31
0.0
  0
LINE
  8
0
 62
     0
 10
142.062
 20
11.3192
 30
0.0
 11
181.686
 21
11.3192
 31
0.0
  0
LINE
  8
0
 62
     0
 10
181.686
 20
11.3192
 30
0.0
 11
181.686
 21
6.84886
 31
0.0
  0
LINE
  8
0
 62
     0
 10
181.686
 20
6.84886
 30
0.0
 11
183.411
 21
6.84886
 31
0.0
  0
LINE
  8
0
 62
     0
 10
183.411
 20
6.84886
 30
0.0
 11
183.411
 21
5.64857
 31
0.0
  0
LINE
  8
0
 62
     0
 10
183.411
 20
5.64857
 30
0.0
 11
186.712
 21
5.64857
 31
0.0
  0
LINE
  8
0
 62
     0
 10
186.712
 20
5.64857
 30
0.0
 11
186.712
 21
6.84886
 31
0.0
  0
LINE
  8
0
 62
     0
 10
186.712
 20
6.84886
 30
0.0
 11
188.437
 21
6.84886
 31
0.0
  0
LINE
  8
0
 62
     0
 10
188.437
 20
6.84886
 30
0.0
 11
188.437
 21
13.1189
 31
0.0
  0
LINE
  8
0
 62
     0
 10
188.437
 20
13.1189
 30
0.0
 11
189.261
 21
13.1189
 31
0.0
  0
LINE
  8
0
 62
     0
 10
189.261
 20
13.1189
 30
0.0
 11
189.261
 21
15.9177
 31
0.0
  0
LINE
  8
0
 62
     0
 10
189.261
 20
15.9177
 30
0.0
 11
188.437
 21
15.9177
 31
0.0
  0
LINE
  8
0
 62
     0
 10
188.437
 20
15.9177
 30
0.0
 11
188.437
 21
19.1478
 31
0.0
  0
LINE
  8
0
 62
     0
 10
188.437
 20
19.1478
 30
0.0
 11
181.686
 21
19.1478
 31
0.0
  0
LINE
  8
0
 62
     0
 10
181.686
 20
19.1478
 30
0.0
 11
181.686
 21
15.9177
 31
0.0
  0
LINE
  8
0
 62
     0
 10
181.686
 20
15.9177
 30
0.0
 11
142.062
 21
15.9177
 31
0.0
  0
LINE
  8
0
 62
     0
 10
142.062
 20
15.9177
 30
0.0
 11
142.062
 21
20.6182
 31
0.0
  0
LINE
  8
0
 62
     0
 10
142.062
 20
20.6182
 30
0.0
 11
128.061
 21
20.6182
 31
0.0
  0
LINE
  8
0
 62
     0
 10
8.99996
 20
20.6182
 30
0.0
 11
22.9995
 21
20.6182
 31
0.0
  0
LINE
  8
0
 62
     0
 10
22.9995
 20
20.6182
 30
0.0
 11
22.9995
 21
6.61871
 31
0.0
  0
LINE
  8
0
 62
     0
 10
22.9995
 20
6.61871
 30
0.0
 11
8.99996
 21
6.61871
 31
0.0
  0
LINE
  8
0
 62
     0
 10
8.99996
 20
6.61871
 30
0.0
 11
8.99996
 21
20.6182
 31
0.0
  0
LINE
  8
0
 62
     0
 10
32.8111
 20
20.6182
 30
0.0
 11
46.8118
 21
20.6182
 31
0.0
  0
LINE
  8
0
 62
     0
 10
46.8118
 20
20.6182
 30
0.0
 11
46.8118
 21
6.61871
 31
0.0
  0
LINE
  8
0
 62
     0
 10
46.8118
 20
6.61871
 30
0.0
 11
32.8111
 21
6.61871
 31
0.0
  0
LINE
  8
0
 62
     0
 10
32.8111
 20
6.61871
 30
0.0
 11
32.8111
 21
20.6182
 31
0.0
  0
LINE
  8
0
 62
     0
 10
56.6251
 20
20.6182
 30
0.0
 11
70.6244
 21
20.6182
 31
0.0
  0
LINE
  8
0
 62
     0
 10
70.6244
 20
20.6182
 30
0.0
 11
70.6244
 21
6.61871
 31
0.0
  0
LINE
  8
0
 62
     0
 10
70.6244
 20
6.61871
 30
0.0
 11
56.6251
 21
6.61871
 31
0.0
  0
LINE
  8
0
 62
     0
 10
56.6251
 20
6.61871
 30
0.0
 11
56.6251
 21
20.6182
 31
0.0
  0
LINE
  8
0
 62
     0
 10
199.5
 20
20.6182
 30
0.0
 11
213.499
 21
20.6182
 31
0.0
  0
LINE
  8
0
 62
     0
 10
213.499
 20
20.6182
 30
0.0
 11
213.499
 21
6.61871
 31
0.0
  0
LINE
  8
0
 62
     0
 10
213.499
 20
6.61871
 30
0.0
 11
199.5
 21
6.61871
 31
0.0
  0
LINE
  8
0
 62
     0
 10
199.5
 20
6.61871
 30
0.0
 11
199.5
 21
20.6182
 31
0.0
  0
LINE
  8
0
 62
     0
 10
223.311
 20
20.6182
 30
0.0
 11
237.312
 21
20.6182
 31
0.0
  0
LINE
  8
0
 62
     0
 10
237.312
 20
20.6182
 30
0.0
 11
237.312
 21
6.61871
 31
0.0
  0
LINE
  8
0
 62
     0
 10
237.312
 20
6.61871
 30
0.0
 11
223.311
 21
6.61871
 31
0.0
  0
LINE
  8
0
 62
     0
 10
223.311
 20
6.61871
 30
0.0
 11
223.311
 21
20.6182
 31
0.0
  0
LINE
  8
0
 62
     0
 10
247.125
 20
20.6182
 30
0.0
 11
261.124
 21
20.6182
 31
0.0
  0
LINE
  8
0
 62
     0
 10
261.124
 20
20.6182
 30
0.0
 11
261.124
 21
6.61871
 31
0.0
  0
LINE
  8
0
 62
     0
 10
261.124
 20
6.61871
 30
0.0
 11
247.125
 21
6.61871
 31
0.0
  0
LINE
  8
0
 62
     0
 10
247.125
 20
6.61871
 30
0.0
 11
247.125
 21
20.6182
 31
0.0
  0
LINE
  8
0
 62
     0
 10
270.936
 20
20.6182
 30
0.0
 11
284.937
 21
20.6182
 31
0.0
  0
LINE
  8
0
 62
     0
 10
284.937
 20
20.6182
 30
0.0
 11
284.937
 21
6.61871
 31
0.0
  0
LINE
  8
0
 62
     0
 10
284.937
 20
6.61871
 30
0.0
 11
270.936
 21
6.61871
 31
0.0
  0
LINE
  8
0
 62
     0
 10
270.936
 20
6.61871
 30
0.0
 11
270.936
 21
20.6182
 31
0.0
  0
LINE
  8
0
 62
     0
 10
18.525
 20
39.6681
 30
0.0
 11
18.525
 21
34.9677
 31
0.0
  0
LINE
  8
0
 62
     0
 10
18.525
 20
34.9677
 30
0.0
 11
16.9995
 21
34.9677
 31
0.0
  0
LINE
  8
0
 62
     0
 10
16.9995
 20
34.9677
 30
0.0
 11
16.9995
 21
38.1977
 31
0.0
  0
LINE
  8
0
 62
     0
 10
16.9995
 20
38.1977
 30
0.0
 11
10.2499
 21
38.1977
 31
0.0
  0
LINE
  8
0
 62
     0
 10
10.2499
 20
38.1977
 30
0.0
 11
10.2499
 21
34.9677
 31
0.0
  0
LINE
  8
0
 62
     0
 10
10.2499
 20
34.9677
 30
0.0
 11
9.42439
 21
34.9677
 31
0.0
  0
LINE
  8
0
 62
     0
 10
9.42439
 20
34.9677
 30
0.0
 11
9.42439
 21
32.1689
 31
0.0
  0
LINE
  8
0
 62
     0
 10
9.42439
 20
32.1689
 30
0.0
 11
10.2499
 21
32.1689
 31
0.0
  0
LINE
  8
0
 62
     0
 10
10.2499
 20
32.1689
 30
0.0
 11
10.2499
 21
25.8989
 31
0.0
  0
LINE
  8
0
 62
     0
 10
10.2499
 20
25.8989
 30
0.0
 11
11.9751
 21
25.8989
 31
0.0
  0
LINE
  8
0
 62
     0
 10
11.9751
 20
25.8989
 30
0.0
 11
11.9751
 21
24.6986
 31
0.0
  0
LINE
  8
0
 62
     0
 10
11.9751
 20
24.6986
 30
0.0
 11
15.2742
 21
24.6986
 31
0.0
  0
LINE
  8
0
 62
     0
 10
15.2742
 20
24.6986
 30
0.0
 11
15.2742
 21
25.8989
 31
0.0
  0
LINE
  8
0
 62
     0
 10
15.2742
 20
25.8989
 30
0.0
 11
16.9995
 21
25.8989
 31
0.0
  0
LINE
  8
0
 62
     0
 10
16.9995
 20
25.8989
 30
0.0
 11
16.9995
 21
30.3678
 31
0.0
  0
LINE
  8
0
 62
     0
 10
16.9995
 20
30.3678
 30
0.0
 11
18.525
 21
30.3678
 31
0.0
  0
LINE
  8
0
 62
     0
 10
18.525
 20
30.3678
 30
0.0
 11
18.525
 21
25.6687
 31
0.0
  0
LINE
  8
0
 62
     0
 10
18.525
 20
25.6687
 30
0.0
 11
32.5245
 21
25.6687
 31
0.0
  0
LINE
  8
0
 62
     0
 10
32.5245
 20
25.6687
 30
0.0
 11
32.5245
 21
30.3678
 31
0.0
  0
LINE
  8
0
 62
     0
 10
32.5245
 20
30.3678
 30
0.0
 11
34.0499
 21
30.3678
 31
0.0
  0
LINE
  8
0
 62
     0
 10
34.0499
 20
30.3678
 30
0.0
 11
34.0499
 21
25.8989
 31
0.0
  0
LINE
  8
0
 62
     0
 10
34.0499
 20
25.8989
 30
0.0
 11
35.7752
 21
25.8989
 31
0.0
  0
LINE
  8
0
 62
     0
 10
35.7752
 20
25.8989
 30
0.0
 11
35.7752
 21
24.6986
 31
0.0
  0
LINE
  8
0
 62
     0
 10
35.7752
 20
24.6986
 30
0.0
 11
39.0744
 21
24.6986
 31
0.0
  0
LINE
  8
0
 62
     0
 10
39.0744
 20
24.6986
 30
0.0
 11
39.0744
 21
25.8989
 31
0.0
  0
LINE
  8
0
 62
     0
 10
39.0744
 20
25.8989
 30
0.0
 11
40.7995
 21
25.8989
 31
0.0
  0
LINE
  8
0
 62
     0
 10
40.7995
 20
25.8989
 30
0.0
 11
40.7995
 21
32.1689
 31
0.0
  0
LINE
  8
0
 62
     0
 10
40.7995
 20
32.1689
 30
0.0
 11
41.625
 21
32.1689
 31
0.0
  0
LINE
  8
0
 62
     0
 10
41.625
 20
32.1689
 30
0.0
 11
41.625
 21
34.9677
 31
0.0
  0
LINE
  8
0
 62
     0
 10
41.625
 20
34.9677
 30
0.0
 11
40.7995
 21
34.9677
 31
0.0
  0
LINE
  8
0
 62
     0
 10
40.7995
 20
34.9677
 30
0.0
 11
40.7995
 21
38.1977
 31
0.0
  0
LINE
  8
0
 62
     0
 10
40.7995
 20
38.1977
 30
0.0
 11
34.0499
 21
38.1977
 31
0.0
  0
LINE
  8
0
 62
     0
 10
34.0499
 20
38.1977
 30
0.0
 11
34.0499
 21
34.9677
 31
0.0
  0
LINE
  8
0
 62
     0
 10
34.0499
 20
34.9677
 30
0.0
 11
32.5245
 21
34.9677
 31
0.0
  0
LINE
  8
0
 62
     0
 10
32.5245
 20
34.9677
 30
0.0
 11
32.5245
 21
39.6681
 31
0.0
  0
LINE
  8
0
 62
     0
 10
32.5245
 20
39.6681
 30
0.0
 11
18.525
 21
39.6681
 31
0.0
  0
LINE
  8
0
 62
     0
 10
49.4813
 20
39.6681
 30
0.0
 11
63.4806
 21
39.6681
 31
0.0
  0
LINE
  8
0
 62
     0
 10
63.4806
 20
39.6681
 30
0.0
 11
63.4806
 21
25.6687
 31
0.0
  0
LINE
  8
0
 62
     0
 10
63.4806
 20
25.6687
 30
0.0
 11
49.4813
 21
25.6687
 31
0.0
  0
LINE
  8
0
 62
     0
 10
49.4813
 20
25.6687
 30
0.0
 11
49.4813
 21
39.6681
 31
0.0
  0
LINE
  8
0
 62
     0
 10
68.5313
 20
39.6681
 30
0.0
 11
82.5306
 21
39.6681
 31
0.0
  0
LINE
  8
0
 62
     0
 10
82.5306
 20
39.6681
 30
0.0
 11
82.5306
 21
25.6687
 31
0.0
  0
LINE
  8
0
 62
     0
 10
82.5306
 20
25.6687
 30
0.0
 11
68.5313
 21
25.6687
 31
0.0
  0
LINE
  8
0
 62
     0
 10
68.5313
 20
25.6687
 30
0.0
 11
68.5313
 21
39.6681
 31
0.0
  0
LINE
  8
0
 62
     0
 10
87.5813
 20
39.6681
 30
0.0
 11
101.581
 21
39.6681
 31
0.0
  0
LINE
  8
0
 62
     0
 10
101.581
 20
39.6681
 30
0.0
 11
101.581
 21
25.6687
 31
0.0
  0
LINE
  8
0
 62
     0
 10
101.581
 20
25.6687
 30
0.0
 11
87.5813
 21
25.6687
 31
0.0
  0
LINE
  8
0
 62
     0
 10
87.5813
 20
25.6687
 30
0.0
 11
87.5813
 21
39.6681
 31
0.0
  0
LINE
  8
0
 62
     0
 10
106.631
 20
39.6681
 30
0.0
 11
120.631
 21
39.6681
 31
0.0
  0
LINE
  8
0
 62
     0
 10
120.631
 20
39.6681
 30
0.0
 11
120.631
 21
25.6687
 31
0.0
  0
LINE
  8
0
 62
     0
 10
120.631
 20
25.6687
 30
0.0
 11
106.631
 21
25.6687
 31
0.0
  0
LINE
  8
0
 62
     0
 10
106.631
 20
25.6687
 30
0.0
 11
106.631
 21
39.6681
 31
0.0
  0
LINE
  8
0
 62
     0
 10
125.68
 20
39.6681
 30
0.0
 11
139.681
 21
39.6681
 31
0.0
  0
LINE
  8
0
 62
     0
 10
139.681
 20
39.6681
 30
0.0
 11
139.681
 21
25.6687
 31
0.0
  0
LINE
  8
0
 62
     0
 10
139.681
 20
25.6687
 30
0.0
 11
125.68
 21
25.6687
 31
0.0
  0
LINE
  8
0
 62
     0
 10
125.68
 20
25.6687
 30
0.0
 11
125.68
 21
39.6681
 31
0.0
  0
LINE
  8
0
 62
     0
 10
144.731
 20
39.6681
 30
0.0
 11
158.731
 21
39.6681
 31
0.0
  0
LINE
  8
0
 62
     0
 10
158.731
 20
39.6681
 30
0.0
 11
158.731
 21
25.6687
 31
0.0
  0
LINE
  8
0
 62
     0
 10
158.731
 20
25.6687
 30
0.0
 11
144.731
 21
25.6687
 31
0.0
  0
LINE
  8
0
 62
     0
 10
144.731
 20
25.6687
 30
0.0
 11
144.731
 21
39.6681
 31
0.0
  0
LINE
  8
0
 62
     0
 10
163.781
 20
39.6681
 30
0.0
 11
177.781
 21
39.6681
 31
0.0
  0
LINE
  8
0
 62
     0
 10
177.781
 20
39.6681
 30
0.0
 11
177.781
 21
25.6687
 31
0.0
  0
LINE
  8
0
 62
     0
 10
177.781
 20
25.6687
 30
0.0
 11
163.781
 21
25.6687
 31
0.0
  0
LINE
  8
0
 62
     0
 10
163.781
 20
25.6687
 30
0.0
 11
163.781
 21
39.6681
 31
0.0
  0
LINE
  8
0
 62
     0
 10
182.831
 20
39.6681
 30
0.0
 11
196.831
 21
39.6681
 31
0.0
  0
LINE
  8
0
 62
     0
 10
196.831
 20
39.6681
 30
0.0
 11
196.831
 21
25.6687
 31
0.0
  0
LINE
  8
0
 62
     0
 10
196.831
 20
25.6687
 30
0.0
 11
182.831
 21
25.6687
 31
0.0
  0
LINE
  8
0
 62
     0
 10
182.831
 20
25.6687
 30
0.0
 11
182.831
 21
39.6681
 31
0.0
  0
LINE
  8
0
 62
     0
 10
201.881
 20
39.6681
 30
0.0
 11
215.881
 21
39.6681
 31
0.0
  0
LINE
  8
0
 62
     0
 10
215.881
 20
39.6681
 30
0.0
 11
215.881
 21
25.6687
 31
0.0
  0
LINE
  8
0
 62
     0
 10
215.881
 20
25.6687
 30
0.0
 11
201.881
 21
25.6687
 31
0.0
  0
LINE
  8
0
 62
     0
 10
201.881
 20
25.6687
 30
0.0
 11
201.881
 21
39.6681
 31
0.0
  0
LINE
  8
0
 62
     0
 10
220.931
 20
39.6681
 30
0.0
 11
234.931
 21
39.6681
 31
0.0
  0
LINE
  8
0
 62
     0
 10
234.931
 20
39.6681
 30
0.0
 11
234.931
 21
25.6687
 31
0.0
  0
LINE
  8
0
 62
     0
 10
234.931
 20
25.6687
 30
0.0
 11
220.931
 21
25.6687
 31
0.0
  0
LINE
  8
0
 62
     0
 10
220.931
 20
25.6687
 30
0.0
 11
220.931
 21
39.6681
 31
0.0
  0
LINE
  8
0
 62
     0
 10
247.125
 20
39.6681
 30
0.0
 11
261.124
 21
39.6681
 31
0.0
  0
LINE
  8
0
 62
     0
 10
261.124
 20
39.6681
 30
0.0
 11
261.124
 21
25.6687
 31
0.0
  0
LINE
  8
0
 62
     0
 10
261.124
 20
25.6687
 30
0.0
 11
247.125
 21
25.6687
 31
0.0
  0
LINE
  8
0
 62
     0
 10
247.125
 20
25.6687
 30
0.0
 11
247.125
 21
39.6681
 31
0.0
  0
LINE
  8
0
 62
     0
 10
273.319
 20
39.6681
 30
0.0
 11
287.318
 21
39.6681
 31
0.0
  0
LINE
  8
0
 62
     0
 10
287.318
 20
39.6681
 30
0.0
 11
287.318
 21
25.6687
 31
0.0
  0
LINE
  8
0
 62
     0
 10
287.318
 20
25.6687
 30
0.0
 11
273.319
 21
25.6687
 31
0.0
  0
LINE
  8
0
 62
     0
 10
273.319
 20
25.6687
 30
0.0
 11
273.319
 21
39.6681
 31
0.0
  0
LINE
  8
0
 62
     0
 10
261.411
 20
58.7181
 30
0.0
 11
261.411
 21
54.0177
 31
0.0
  0
LINE
  8
0
 62
     0
 10
261.411
 20
54.0177
 30
0.0
 11
259.887
 21
54.0177
 31
0.0
  0
LINE
  8
0
 62
     0
 10
259.887
 20
54.0177
 30
0.0
 11
259.887
 21
57.2477
 31
0.0
  0
LINE
  8
0
 62
     0
 10
259.887
 20
57.2477
 30
0.0
 11
253.137
 21
57.2477
 31
0.0
  0
LINE
  8
0
 62
     0
 10
253.137
 20
57.2477
 30
0.0
 11
253.137
 21
54.0177
 31
0.0
  0
LINE
  8
0
 62
     0
 10
253.137
 20
54.0177
 30
0.0
 11
252.312
 21
54.0177
 31
0.0
  0
LINE
  8
0
 62
     0
 10
252.312
 20
54.0177
 30
0.0
 11
252.312
 21
51.2191
 31
0.0
  0
LINE
  8
0
 62
     0
 10
252.312
 20
51.2191
 30
0.0
 11
253.137
 21
51.2191
 31
0.0
  0
LINE
  8
0
 62
     0
 10
253.137
 20
51.2191
 30
0.0
 11
253.137
 21
44.9488
 31
0.0
  0
LINE
  8
0
 62
     0
 10
253.137
 20
44.9488
 30
0.0
 11
254.861
 21
44.9488
 31
0.0
  0
LINE
  8
0
 62
     0
 10
254.861
 20
44.9488
 30
0.0
 11
254.861
 21
43.7487
 31
0.0
  0
LINE
  8
0
 62
     0
 10
254.861
 20
43.7487
 30
0.0
 11
258.162
 21
43.7487
 31
0.0
  0
LINE
  8
0
 62
     0
 10
258.162
 20
43.7487
 30
0.0
 11
258.162
 21
44.9488
 31
0.0
  0
LINE
  8
0
 62
     0
 10
258.162
 20
44.9488
 30
0.0
 11
259.887
 21
44.9488
 31
0.0
  0
LINE
  8
0
 62
     0
 10
259.887
 20
44.9488
 30
0.0
 11
259.887
 21
49.4178
 31
0.0
  0
LINE
  8
0
 62
     0
 10
259.887
 20
49.4178
 30
0.0
 11
261.411
 21
49.4178
 31
0.0
  0
LINE
  8
0
 62
     0
 10
261.411
 20
49.4178
 30
0.0
 11
261.411
 21
44.7188
 31
0.0
  0
LINE
  8
0
 62
     0
 10
261.411
 20
44.7188
 30
0.0
 11
275.412
 21
44.7188
 31
0.0
  0
LINE
  8
0
 62
     0
 10
275.412
 20
44.7188
 30
0.0
 11
275.412
 21
49.4178
 31
0.0
  0
LINE
  8
0
 62
     0
 10
275.412
 20
49.4178
 30
0.0
 11
276.936
 21
49.4178
 31
0.0
  0
LINE
  8
0
 62
     0
 10
276.936
 20
49.4178
 30
0.0
 11
276.936
 21
44.9488
 31
0.0
  0
LINE
  8
0
 62
     0
 10
276.936
 20
44.9488
 30
0.0
 11
278.661
 21
44.9488
 31
0.0
  0
LINE
  8
0
 62
     0
 10
278.661
 20
44.9488
 30
0.0
 11
278.661
 21
43.7487
 31
0.0
  0
LINE
  8
0
 62
     0
 10
278.661
 20
43.7487
 30
0.0
 11
281.962
 21
43.7487
 31
0.0
  0
LINE
  8
0
 62
     0
 10
281.962
 20
43.7487
 30
0.0
 11
281.962
 21
44.9488
 31
0.0
  0
LINE
  8
0
 62
     0
 10
281.962
 20
44.9488
 30
0.0
 11
283.687
 21
44.9488
 31
0.0
  0
LINE
  8
0
 62
     0
 10
283.687
 20
44.9488
 30
0.0
 11
283.687
 21
51.2191
 31
0.0
  0
LINE
  8
0
 62
     0
 10
283.687
 20
51.2191
 30
0.0
 11
284.511
 21
51.2191
 31
0.0
  0
LINE
  8
0
 62
     0
 10
284.511
 20
51.2191
 30
0.0
 11
284.511
 21
54.0177
 31
0.0
  0
LINE
  8
0
 62
     0
 10
284.511
 20
54.0177
 30
0.0
 11
283.687
 21
54.0177
 31
0.0
  0
LINE
  8
0
 62
     0
 10
283.687
 20
54.0177
 30
0.0
 11
283.687
 21
57.2477
 31
0.0
  0
LINE
  8
0
 62
     0
 10
283.687
 20
57.2477
 30
0.0
 11
276.936
 21
57.2477
 31
0.0
  0
LINE
  8
0
 62
     0
 10
276.936
 20
57.2477
 30
0.0
 11
276.936
 21
54.0177
 31
0.0
  0
LINE
  8
0
 62
     0
 10
276.936
 20
54.0177
 30
0.0
 11
275.412
 21
54.0177
 31
0.0
  0
LINE
  8
0
 62
     0
 10
275.412
 20
54.0177
 30
0.0
 11
275.412
 21
58.7181
 31
0.0
  0
LINE
  8
0
 62
     0
 10
275.412
 20
58.7181
 30
0.0
 11
261.411
 21
58.7181
 31
0.0
  0
LINE
  8
0
 62
     0
 10
13.7611
 20
58.7181
 30
0.0
 11
27.762
 21
58.7181
 31
0.0
  0
LINE
  8
0
 62
     0
 10
27.762
 20
58.7181
 30
0.0
 11
27.762
 21
44.7188
 31
0.0
  0
LINE
  8
0
 62
     0
 10
27.762
 20
44.7188
 30
0.0
 11
13.7611
 21
44.7188
 31
0.0
  0
LINE
  8
0
 62
     0
 10
13.7611
 20
44.7188
 30
0.0
 11
13.7611
 21
58.7181
 31
0.0
  0
LINE
  8
0
 62
     0
 10
39.9563
 20
58.7181
 30
0.0
 11
53.9556
 21
58.7181
 31
0.0
  0
LINE
  8
0
 62
     0
 10
53.9556
 20
58.7181
 30
0.0
 11
53.9556
 21
44.7188
 31
0.0
  0
LINE
  8
0
 62
     0
 10
53.9556
 20
44.7188
 30
0.0
 11
39.9563
 21
44.7188
 31
0.0
  0
LINE
  8
0
 62
     0
 10
39.9563
 20
44.7188
 30
0.0
 11
39.9563
 21
58.7181
 31
0.0
  0
LINE
  8
0
 62
     0
 10
59.0063
 20
58.7181
 30
0.0
 11
73.0056
 21
58.7181
 31
0.0
  0
LINE
  8
0
 62
     0
 10
73.0056
 20
58.7181
 30
0.0
 11
73.0056
 21
44.7188
 31
0.0
  0
LINE
  8
0
 62
     0
 10
73.0056
 20
44.7188
 30
0.0
 11
59.0063
 21
44.7188
 31
0.0
  0
LINE
  8
0
 62
     0
 10
59.0063
 20
44.7188
 30
0.0
 11
59.0063
 21
58.7181
 31
0.0
  0
LINE
  8
0
 62
     0
 10
78.0563
 20
58.7181
 30
0.0
 11
92.0556
 21
58.7181
 31
0.0
  0
LINE
  8
0
 62
     0
 10
92.0556
 20
58.7181
 30
0.0
 11
92.0556
 21
44.7188
 31
0.0
  0
LINE
  8
0
 62
     0
 10
92.0556
 20
44.7188
 30
0.0
 11
78.0563
 21
44.7188
 31
0.0
  0
LINE
  8
0
 62
     0
 10
78.0563
 20
44.7188
 30
0.0
 11
78.0563
 21
58.7181
 31
0.0
  0
LINE
  8
0
 62
     0
 10
97.1063
 20
58.7181
 30
0.0
 11
111.106
 21
58.7181
 31
0.0
  0
LINE
  8
0
 62
     0
 10
111.106
 20
58.7181
 30
0.0
 11
111.106
 21
44.7188
 31
0.0
  0
LINE
  8
0
 62
     0
 10
111.106
 20
44.7188
 30
0.0
 11
97.1063
 21
44.7188
 31
0.0
  0
LINE
  8
0
 62
     0
 10
97.1063
 20
44.7188
 30
0.0
 11
97.1063
 21
58.7181
 31
0.0
  0
LINE
  8
0
 62
     0
 10
116.156
 20
58.7181
 30
0.0
 11
130.156
 21
58.7181
 31
0.0
  0
LINE
  8
0
 62
     0
 10
130.156
 20
58.7181
 30
0.0
 11
130.156
 21
44.7188
 31
0.0
  0
LINE
  8
0
 62
     0
 10
130.156
 20
44.7188
 30
0.0
 11
116.156
 21
44.7188
 31
0.0
  0
LINE
  8
0
 62
     0
 10
116.156
 20
44.7188
 30
0.0
 11
116.156
 21
58.7181
 31
0.0
  0
LINE
  8
0
 62
     0
 10
135.206
 20
58.7181
 30
0.0
 11
149.206
 21
58.7181
 31
0.0
  0
LINE
  8
0
 62
     0
 10
149.206
 20
58.7181
 30
0.0
 11
149.206
 21
44.7188
 31
0.0
  0
LINE
  8
0
 62
     0
 10
149.206
 20
44.7188
 30
0.0
 11
135.206
 21
44.7188
 31
0.0
  0
LINE
  8
0
 62
     0
 10
135.206
 20
44.7188
 30
0.0
 11
135.206
 21
58.7181
 31
0.0
  0
LINE
  8
0
 62
     0
 10
154.256
 20
58.7181
 30
0.0
 11
168.256
 21
58.7181
 31
0.0
  0
LINE
  8
0
 62
     0
 10
168.256
 20
58.7181
 30
0.0
 11
168.256
 21
44.7188
 31
0.0
  0
LINE
  8
0
 62
     0
 10
168.256
 20
44.7188
 30
0.0
 11
154.256
 21
44.7188
 31
0.0
  0
LINE
  8
0
 62
     0
 10
154.256
 20
44.7188
 30
0.0
 11
154.256
 21
58.7181
 31
0.0
  0
LINE
  8
0
 62
     0
 10
173.306
 20
58.7181
 30
0.0
 11
187.306
 21
58.7181
 31
0.0
  0
LINE
  8
0
 62
     0
 10
187.306
 20
58.7181
 30
0.0
 11
187.306
 21
44.7188
 31
0.0
  0
LINE
  8
0
 62
     0
 10
187.306
 20
44.7188
 30
0.0
 11
173.306
 21
44.7188
 31
0.0
  0
LINE
  8
0
 62
     0
 10
173.306
 20
44.7188
 30
0.0
 11
173.306
 21
58.7181
 31
0.0
  0
LINE
  8
0
 62
     0
 10
192.356
 20
58.7181
 30
0.0
 11
206.356
 21
58.7181
 31
0.0
  0
LINE
  8
0
 62
     0
 10
206.356
 20
58.7181
 30
0.0
 11
206.356
 21
44.7188
 31
0.0
  0
LINE
  8
0
 62
     0
 10
206.356
 20
44.7188
 30
0.0
 11
192.356
 21
44.7188
 31
0.0
  0
LINE
  8
0
 62
     0
 10
192.356
 20
44.7188
 30
0.0
 11
192.356
 21
58.7181
 31
0.0
  0
LINE
  8
0
 62
     0
 10
211.406
 20
58.7181
 30
0.0
 11
225.406
 21
58.7181
 31
0.0
  0
LINE
  8
0
 62
     0
 10
225.406
 20
58.7181
 30
0.0
 11
225.406
 21
44.7188
 31
0.0
  0
LINE
  8
0
 62
     0
 10
225.406
 20
44.7188
 30
0.0
 11
211.406
 21
44.7188
 31
0.0
  0
LINE
  8
0
 62
     0
 10
211.406
 20
44.7188
 30
0.0
 11
211.406
 21
58.7181
 31
0.0
  0
LINE
  8
0
 62
     0
 10
230.456
 20
58.7181
 30
0.0
 11
244.456
 21
58.7181
 31
0.0
  0
LINE
  8
0
 62
     0
 10
244.456
 20
58.7181
 30
0.0
 11
244.456
 21
44.7188
 31
0.0
  0
LINE
  8
0
 62
     0
 10
244.456
 20
44.7188
 30
0.0
 11
230.456
 21
44.7188
 31
0.0
  0
LINE
  8
0
 62
     0
 10
230.456
 20
44.7188
 30
0.0
 11
230.456
 21
58.7181
 31
0.0
  0
LINE
  8
0
 62
     0
 10
11.3798
 20
77.7681
 30
0.0
 11
25.3807
 21
77.7681
 31
0.0
  0
LINE
  8
0
 62
     0
 10
25.3807
 20
77.7681
 30
0.0
 11
25.3807
 21
63.7688
 31
0.0
  0
LINE
  8
0
 62
     0
 10
25.3807
 20
63.7688
 30
0.0
 11
11.3798
 21
63.7688
 31
0.0
  0
LINE
  8
0
 62
     0
 10
11.3798
 20
63.7688
 30
0.0
 11
11.3798
 21
77.7681
 31
0.0
  0
LINE
  8
0
 62
     0
 10
35.1937
 20
77.7681
 30
0.0
 11
49.1931
 21
77.7681
 31
0.0
  0
LINE
  8
0
 62
     0
 10
49.1931
 20
77.7681
 30
0.0
 11
49.1931
 21
63.7688
 31
0.0
  0
LINE
  8
0
 62
     0
 10
49.1931
 20
63.7688
 30
0.0
 11
35.1937
 21
63.7688
 31
0.0
  0
LINE
  8
0
 62
     0
 10
35.1937
 20
63.7688
 30
0.0
 11
35.1937
 21
77.7681
 31
0.0
  0
LINE
  8
0
 62
     0
 10
54.2438
 20
77.7681
 30
0.0
 11
68.2431
 21
77.7681
 31
0.0
  0
LINE
  8
0
 62
     0
 10
68.2431
 20
77.7681
 30
0.0
 11
68.2431
 21
63.7688
 31
0.0
  0
LINE
  8
0
 62
     0
 10
68.2431
 20
63.7688
 30
0.0
 11
54.2438
 21
63.7688
 31
0.0
  0
LINE
  8
0
 62
     0
 10
54.2438
 20
63.7688
 30
0.0
 11
54.2438
 21
77.7681
 31
0.0
  0
LINE
  8
0
 62
     0
 10
73.2938
 20
77.7681
 30
0.0
 11
87.2931
 21
77.7681
 31
0.0
  0
LINE
  8
0
 62
     0
 10
87.2931
 20
77.7681
 30
0.0
 11
87.2931
 21
63.7688
 31
0.0
  0
LINE
  8
0
 62
     0
 10
87.2931
 20
63.7688
 30
0.0
 11
73.2938
 21
63.7688
 31
0.0
  0
LINE
  8
0
 62
     0
 10
73.2938
 20
63.7688
 30
0.0
 11
73.2938
 21
77.7681
 31
0.0
  0
LINE
  8
0
 62
     0
 10
92.3438
 20
77.7681
 30
0.0
 11
106.343
 21
77.7681
 31
0.0
  0
LINE
  8
0
 62
     0
 10
106.343
 20
77.7681
 30
0.0
 11
106.343
 21
63.7688
 31
0.0
  0
LINE
  8
0
 62
     0
 10
106.343
 20
63.7688
 30
0.0
 11
92.3438
 21
63.7688
 31
0.0
  0
LINE
  8
0
 62
     0
 10
92.3438
 20
63.7688
 30
0.0
 11
92.3438
 21
77.7681
 31
0.0
  0
LINE
  8
0
 62
     0
 10
111.394
 20
77.7681
 30
0.0
 11
125.393
 21
77.7681
 31
0.0
  0
LINE
  8
0
 62
     0
 10
125.393
 20
77.7681
 30
0.0
 11
125.393
 21
63.7688
 31
0.0
  0
LINE
  8
0
 62
     0
 10
125.393
 20
63.7688
 30
0.0
 11
111.394
 21
63.7688
 31
0.0
  0
LINE
  8
0
 62
     0
 10
111.394
 20
63.7688
 30
0.0
 11
111.394
 21
77.7681
 31
0.0
  0
LINE
  8
0
 62
     0
 10
130.444
 20
77.7681
 30
0.0
 11
144.443
 21
77.7681
 31
0.0
  0
LINE
  8
0
 62
     0
 10
144.443
 20
77.7681
 30
0.0
 11
144.443
 21
63.7688
 31
0.0
  0
LINE
  8
0
 62
     0
 10
144.443
 20
63.7688
 30
0.0
 11
130.444
 21
63.7688
 31
0.0
  0
LINE
  8
0
 62
     0
 10
130.444
 20
63.7688
 30
0.0
 11
130.444
 21
77.7681
 31
0.0
  0
LINE
  8
0
 62
     0
 10
149.494
 20
77.7681
 30
0.0
 11
163.493
 21
77.7681
 31
0.0
  0
LINE
  8
0
 62
     0
 10
163.493
 20
77.7681
 30
0.0
 11
163.493
 21
63.7688
 31
0.0
  0
LINE
  8
0
 62
     0
 10
163.493
 20
63.7688
 30
0.0
 11
149.494
 21
63.7688
 31
0.0
  0
LINE
  8
0
 62
     0
 10
149.494
 20
63.7688
 30
0.0
 11
149.494
 21
77.7681
 31
0.0
  0
LINE
  8
0
 62
     0
 10
168.544
 20
77.7681
 30
0.0
 11
182.543
 21
77.7681
 31
0.0
  0
LINE
  8
0
 62
     0
 10
182.543
 20
77.7681
 30
0.0
 11
182.543
 21
63.7688
 31
0.0
  0
LINE
  8
0
 62
     0
 10
182.543
 20
63.7688
 30
0.0
 11
168.544
 21
63.7688
 31
0.0
  0
LINE
  8
0
 62
     0
 10
168.544
 20
63.7688
 30
0.0
 11
168.544
 21
77.7681
 31
0.0
  0
LINE
  8
0
 62
     0
 10
187.594
 20
77.7681
 30
0.0
 11
201.593
 21
77.7681
 31
0.0
  0
LINE
  8
0
 62
     0
 10
201.593
 20
77.7681
 30
0.0
 11
201.593
 21
63.7688
 31
0.0
  0
LINE
  8
0
 62
     0
 10
201.593
 20
63.7688
 30
0.0
 11
187.594
 21
63.7688
 31
0.0
  0
LINE
  8
0
 62
     0
 10
187.594
 20
63.7688
 30
0.0
 11
187.594
 21
77.7681
 31
0.0
  0
LINE
  8
0
 62
     0
 10
206.644
 20
77.7681
 30
0.0
 11
220.643
 21
77.7681
 31
0.0
  0
LINE
  8
0
 62
     0
 10
220.643
 20
77.7681
 30
0.0
 11
220.643
 21
63.7688
 31
0.0
  0
LINE
  8
0
 62
     0
 10
220.643
 20
63.7688
 30
0.0
 11
206.644
 21
63.7688
 31
0.0
  0
LINE
  8
0
 62
     0
 10
206.644
 20
63.7688
 30
0.0
 11
206.644
 21
77.7681
 31
0.0
  0
LINE
  8
0
 62
     0
 10
225.694
 20
77.7681
 30
0.0
 11
239.693
 21
77.7681
 31
0.0
  0
LINE
  8
0
 62
     0
 10
239.693
 20
77.7681
 30
0.0
 11
239.693
 21
63.7688
 31
0.0
  0
LINE
  8
0
 62
     0
 10
239.693
 20
63.7688
 30
0.0
 11
225.694
 21
63.7688
 31
0.0
  0
LINE
  8
0
 62
     0
 10
225.694
 20
63.7688
 30
0.0
 11
225.694
 21
77.7681
 31
0.0
  0
LINE
  8
0
 62
     0
 10
244.744
 20
77.7681
 30
0.0
 11
258.743
 21
77.7681
 31
0.0
  0
LINE
  8
0
 62
     0
 10
258.743
 20
77.7681
 30
0.0
 11
258.743
 21
63.7688
 31
0.0
  0
LINE
  8
0
 62
     0
 10
258.743
 20
63.7688
 30
0.0
 11
244.744
 21
63.7688
 31
0.0
  0
LINE
  8
0
 62
     0
 10
244.744
 20
63.7688
 30
0.0
 11
244.744
 21
77.7681
 31
0.0
  0
LINE
  8
0
 62
     0
 10
268.556
 20
77.7681
 30
0.0
 11
282.556
 21
77.7681
 31
0.0
  0
LINE
  8
0
 62
     0
 10
282.556
 20
77.7681
 30
0.0
 11
282.556
 21
63.7688
 31
0.0
  0
LINE
  8
0
 62
     0
 10
282.556
 20
63.7688
 30
0.0
 11
268.556
 21
63.7688
 31
0.0
  0
LINE
  8
0
 62
     0
 10
268.556
 20
63.7688
 30
0.0
 11
268.556
 21
77.7681
 31
0.0
  0
LINE
  8
0
 62
     0
 10
263.794
 20
96.8195
 30
0.0
 11
263.794
 21
92.1191
 31
0.0
  0
LINE
  8
0
 62
     0
 10
263.794
 20
92.1191
 30
0.0
 11
262.268
 21
92.1191
 31
0.0
  0
LINE
  8
0
 62
     0
 10
262.268
 20
92.1191
 30
0.0
 11
262.268
 21
95.3491
 31
0.0
  0
LINE
  8
0
 62
     0
 10
262.268
 20
95.3491
 30
0.0
 11
255.519
 21
95.3491
 31
0.0
  0
LINE
  8
0
 62
     0
 10
255.519
 20
95.3491
 30
0.0
 11
255.519
 21
92.1191
 31
0.0
  0
LINE
  8
0
 62
     0
 10
255.519
 20
92.1191
 30
0.0
 11
254.693
 21
92.1191
 31
0.0
  0
LINE
  8
0
 62
     0
 10
254.693
 20
92.1191
 30
0.0
 11
254.693
 21
89.3191
 31
0.0
  0
LINE
  8
0
 62
     0
 10
254.693
 20
89.3191
 30
0.0
 11
255.519
 21
89.3191
 31
0.0
  0
LINE
  8
0
 62
     0
 10
255.519
 20
89.3191
 30
0.0
 11
255.519
 21
83.0488
 31
0.0
  0
LINE
  8
0
 62
     0
 10
255.519
 20
83.0488
 30
0.0
 11
257.244
 21
83.0488
 31
0.0
  0
LINE
  8
0
 62
     0
 10
257.244
 20
83.0488
 30
0.0
 11
257.244
 21
81.8487
 31
0.0
  0
LINE
  8
0
 62
     0
 10
257.244
 20
81.8487
 30
0.0
 11
260.544
 21
81.8487
 31
0.0
  0
LINE
  8
0
 62
     0
 10
260.544
 20
81.8487
 30
0.0
 11
260.544
 21
83.0488
 31
0.0
  0
LINE
  8
0
 62
     0
 10
260.544
 20
83.0488
 30
0.0
 11
262.268
 21
83.0488
 31
0.0
  0
LINE
  8
0
 62
     0
 10
262.268
 20
83.0488
 30
0.0
 11
262.268
 21
87.5178
 31
0.0
  0
LINE
  8
0
 62
     0
 10
262.268
 20
87.5178
 30
0.0
 11
263.794
 21
87.5178
 31
0.0
  0
LINE
  8
0
 62
     0
 10
263.794
 20
87.5178
 30
0.0
 11
263.794
 21
82.8188
 31
0.0
  0
LINE
  8
0
 62
     0
 10
263.794
 20
82.8188
 30
0.0
 11
277.793
 21
82.8188
 31
0.0
  0
LINE
  8
0
 62
     0
 10
277.793
 20
82.8188
 30
0.0
 11
277.793
 21
87.5178
 31
0.0
  0
LINE
  8
0
 62
     0
 10
277.793
 20
87.5178
 30
0.0
 11
279.319
 21
87.5178
 31
0.0
  0
LINE
  8
0
 62
     0
 10
279.319
 20
87.5178
 30
0.0
 11
279.319
 21
83.0488
 31
0.0
  0
LINE
  8
0
 62
     0
 10
279.319
 20
83.0488
 30
0.0
 11
281.044
 21
83.0488
 31
0.0
  0
LINE
  8
0
 62
     0
 10
281.044
 20
83.0488
 30
0.0
 11
281.044
 21
81.8487
 31
0.0
  0
LINE
  8
0
 62
     0
 10
281.044
 20
81.8487
 30
0.0
 11
284.345
 21
81.8487
 31
0.0
  0
LINE
  8
0
 62
     0
 10
284.345
 20
81.8487
 30
0.0
 11
284.345
 21
83.0488
 31
0.0
  0
LINE
  8
0
 62
     0
 10
284.345
 20
83.0488
 30
0.0
 11
286.068
 21
83.0488
 31
0.0
  0
LINE
  8
0
 62
     0
 10
286.068
 20
83.0488
 30
0.0
 11
286.068
 21
89.3191
 31
0.0
  0
LINE
  8
0
 62
     0
 10
286.068
 20
89.3191
 30
0.0
 11
286.894
 21
89.3191
 31
0.0
  0
LINE
  8
0
 62
     0
 10
286.894
 20
89.3191
 30
0.0
 11
286.894
 21
92.1191
 31
0.0
  0
LINE
  8
0
 62
     0
 10
286.894
 20
92.1191
 30
0.0
 11
286.068
 21
92.1191
 31
0.0
  0
LINE
  8
0
 62
     0
 10
286.068
 20
92.1191
 30
0.0
 11
286.068
 21
95.3491
 31
0.0
  0
LINE
  8
0
 62
     0
 10
286.068
 20
95.3491
 30
0.0
 11
279.319
 21
95.3491
 31
0.0
  0
LINE
  8
0
 62
     0
 10
279.319
 20
95.3491
 30
0.0
 11
279.319
 21
92.1191
 31
0.0
  0
LINE
  8
0
 62
     0
 10
279.319
 20
92.1191
 30
0.0
 11
277.793
 21
92.1191
 31
0.0
  0
LINE
  8
0
 62
     0
 10
277.793
 20
92.1191
 30
0.0
 11
277.793
 21
96.8195
 31
0.0
  0
LINE
  8
0
 62
     0
 10
277.793
 20
96.8195
 30
0.0
 11
263.794
 21
96.8195
 31
0.0
  0
LINE
  8
0
 62
     0
 10
6.61733
 20
96.8195
 30
0.0
 11
20.6182
 21
96.8195
 31
0.0
  0
LINE
  8
0
 62
     0
 10
20.6182
 20
96.8195
 30
0.0
 11
20.6182
 21
82.8188
 31
0.0
  0
LINE
  8
0
 62
     0
 10
20.6182
 20
82.8188
 30
0.0
 11
6.61733
 21
82.8188
 31
0.0
  0
LINE
  8
0
 62
     0
 10
6.61733
 20
82.8188
 30
0.0
 11
6.61733
 21
96.8195
 31
0.0
  0
LINE
  8
0
 62
     0
 10
25.6687
 20
96.8195
 30
0.0
 11
39.6681
 21
96.8195
 31
0.0
  0
LINE
  8
0
 62
     0
 10
39.6681
 20
96.8195
 30
0.0
 11
39.6681
 21
82.8188
 31
0.0
  0
LINE
  8
0
 62
     0
 10
39.6681
 20
82.8188
 30
0.0
 11
25.6687
 21
82.8188
 31
0.0
  0
LINE
  8
0
 62
     0
 10
25.6687
 20
82.8188
 30
0.0
 11
25.6687
 21
96.8195
 31
0.0
  0
LINE
  8
0
 62
     0
 10
44.7188
 20
96.8195
 30
0.0
 11
58.7181
 21
96.8195
 31
0.0
  0
LINE
  8
0
 62
     0
 10
58.7181
 20
96.8195
 30
0.0
 11
58.7181
 21
82.8188
 31
0.0
  0
LINE
  8
0
 62
     0
 10
58.7181
 20
82.8188
 30
0.0
 11
44.7188
 21
82.8188
 31
0.0
  0
LINE
  8
0
 62
     0
 10
44.7188
 20
82.8188
 30
0.0
 11
44.7188
 21
96.8195
 31
0.0
  0
LINE
  8
0
 62
     0
 10
63.7688
 20
96.8195
 30
0.0
 11
77.7681
 21
96.8195
 31
0.0
  0
LINE
  8
0
 62
     0
 10
77.7681
 20
96.8195
 30
0.0
 11
77.7681
 21
82.8188
 31
0.0
  0
LINE
  8
0
 62
     0
 10
77.7681
 20
82.8188
 30
0.0
 11
63.7688
 21
82.8188
 31
0.0
  0
LINE
  8
0
 62
     0
 10
63.7688
 20
82.8188
 30
0.0
 11
63.7688
 21
96.8195
 31
0.0
  0
LINE
  8
0
 62
     0
 10
82.8188
 20
96.8195
 30
0.0
 11
96.8181
 21
96.8195
 31
0.0
  0
LINE
  8
0
 62
     0
 10
96.8181
 20
96.8195
 30
0.0
 11
96.8181
 21
82.8188
 31
0.0
  0
LINE
  8
0
 62
     0
 10
96.8181
 20
82.8188
 30
0.0
 11
82.8188
 21
82.8188
 31
0.0
  0
LINE
  8
0
 62
     0
 10
82.8188
 20
82.8188
 30
0.0
 11
82.8188
 21
96.8195
 31
0.0
  0
LINE
  8
0
 62
     0
 10
101.867
 20
96.8195
 30
0.0
 11
115.868
 21
96.8195
 31
0.0
  0
LINE
  8
0
 62
     0
 10
115.868
 20
96.8195
 30
0.0
 11
115.868
 21
82.8188
 31
0.0
  0
LINE
  8
0
 62
     0
 10
115.868
 20
82.8188
 30
0.0
 11
101.867
 21
82.8188
 31
0.0
  0
LINE
  8
0
 62
     0
 10
101.867
 20
82.8188
 30
0.0
 11
101.867
 21
96.8195
 31
0.0
  0
LINE
  8
0
 62
     0
 10
120.917
 20
96.8195
 30
0.0
 11
134.918
 21
96.8195
 31
0.0
  0
LINE
  8
0
 62
     0
 10
134.918
 20
96.8195
 30
0.0
 11
134.918
 21
82.8188
 31
0.0
  0
LINE
  8
0
 62
     0
 10
134.918
 20
82.8188
 30
0.0
 11
120.917
 21
82.8188
 31
0.0
  0
LINE
  8
0
 62
     0
 10
120.917
 20
82.8188
 30
0.0
 11
120.917
 21
96.8195
 31
0.0
  0
LINE
  8
0
 62
     0
 10
139.969
 20
96.8195
 30
0.0
 11
153.968
 21
96.8195
 31
0.0
  0
LINE
  8
0
 62
     0
 10
153.968
 20
96.8195
 30
0.0
 11
153.968
 21
82.8188
 31
0.0
  0
LINE
  8
0
 62
     0
 10
153.968
 20
82.8188
 30
0.0
 11
139.969
 21
82.8188
 31
0.0
  0
LINE
  8
0
 62
     0
 10
139.969
 20
82.8188
 30
0.0
 11
139.969
 21
96.8195
 31
0.0
  0
LINE
  8
0
 62
     0
 10
159.019
 20
96.8195
 30
0.0
 11
173.018
 21
96.8195
 31
0.0
  0
LINE
  8
0
 62
     0
 10
173.018
 20
96.8195
 30
0.0
 11
173.018
 21
82.8188
 31
0.0
  0
LINE
  8
0
 62
     0
 10
173.018
 20
82.8188
 30
0.0
 11
159.019
 21
82.8188
 31
0.0
  0
LINE
  8
0
 62
     0
 10
159.019
 20
82.8188
 30
0.0
 11
159.019
 21
96.8195
 31
0.0
  0
LINE
  8
0
 62
     0
 10
178.069
 20
96.8195
 30
0.0
 11
192.068
 21
96.8195
 31
0.0
  0
LINE
  8
0
 62
     0
 10
192.068
 20
96.8195
 30
0.0
 11
192.068
 21
82.8188
 31
0.0
  0
LINE
  8
0
 62
     0
 10
192.068
 20
82.8188
 30
0.0
 11
178.069
 21
82.8188
 31
0.0
  0
LINE
  8
0
 62
     0
 10
178.069
 20
82.8188
 30
0.0
 11
178.069
 21
96.8195
 31
0.0
  0
LINE
  8
0
 62
     0
 10
197.119
 20
96.8195
 30
0.0
 11
211.118
 21
96.8195
 31
0.0
  0
LINE
  8
0
 62
     0
 10
211.118
 20
96.8195
 30
0.0
 11
211.118
 21
82.8188
 31
0.0
  0
LINE
  8
0
 62
     0
 10
211.118
 20
82.8188
 30
0.0
 11
197.119
 21
82.8188
 31
0.0
  0
LINE
  8
0
 62
     0
 10
197.119
 20
82.8188
 30
0.0
 11
197.119
 21
96.8195
 31
0.0
  0
LINE
  8
0
 62
     0
 10
216.169
 20
96.8195
 30
0.0
 11
230.168
 21
96.8195
 31
0.0
  0
LINE
  8
0
 62
     0
 10
230.168
 20
96.8195
 30
0.0
 11
230.168
 21
82.8188
 31
0.0
  0
LINE
  8
0
 62
     0
 10
230.168
 20
82.8188
 30
0.0
 11
216.169
 21
82.8188
 31
0.0
  0
LINE
  8
0
 62
     0
 10
216.169
 20
82.8188
 30
0.0
 11
216.169
 21
96.8195
 31
0.0
  0
LINE
  8
0
 62
     0
 10
235.219
 20
96.8195
 30
0.0
 11
249.218
 21
96.8195
 31
0.0
  0
LINE
  8
0
 62
     0
 10
249.218
 20
96.8195
 30
0.0
 11
249.218
 21
82.8188
 31
0.0
  0
LINE
  8
0
 62
     0
 10
249.218
 20
82.8188
 30
0.0
 11
235.219
 21
82.8188
 31
0.0
  0
LINE
  8
0
 62
     0
 10
235.219
 20
82.8188
 30
0.0
 11
235.219
 21
96.8195
 31
0.0
  0
ENDSEC
  0
EOF
