  0
SECTION
  2
HEADER
  9
$ACADVER
  1
AC1009
  9
$EXTMIN
 10
0.0
 20
0.0
 30
0.0
  9
$EXTMAX
 10
1000.0
 20
1000.0
 30
0.0
  9
$FILLMODE
 70
 0
  9
$SPLFRAME
 70
 1
  0
ENDSEC
  0
SECTION
  2
TABLES
  0
TABLE
  2
LAYER
 70
1
  0
LAYER
  2
0
 70
     0
 62
     7
  6
CONTINUOUS
  0
ENDTAB
  0
ENDSEC
  0
SECTION
  2
ENTITIES
  0
LINE
  8
0
 62
     0
 10
0.0937066
 20
107.344
 30
0.0
 11
293.844
 21
107.344
 31
0.0
  0
LINE
  8
0
 62
     0
 10
293.844
 20
107.344
 30
0.0
 11
293.844
 21
0.0937066
 31
0.0
  0
LINE
  8
0
 62
     0
 10
293.844
 20
0.0937066
 30
0.0
 11
0.0937066
 21
0.0937066
 31
0.0
  0
LINE
  8
0
 62
     0
 10
0.0937066
 20
0.0937066
 30
0.0
 11
0.0937066
 21
107.344
 31
0.0
  0
LINE
  8
0
 62
     0
 10
2.6293
 20
4.51997
 30
0.0
 11
2.21175
 21
4.30636
 31
0.0
  0
LINE
  8
0
 62
     0
 10
2.21175
 20
4.30636
 30
0.0
 11
1.87965
 21
3.97425
 31
0.0
  0
LINE
  8
0
 62
     0
 10
1.87965
 20
3.97425
 30
0.0
 11
1.66743
 21
3.55671
 31
0.0
  0
LINE
  8
0
 62
     0
 10
1.66743
 20
3.55671
 30
0.0
 11
1.59301
 21
3.0937
 31
0.0
  0
LINE
  8
0
 62
     0
 10
1.59301
 20
3.0937
 30
0.0
 11
1.66743
 21
2.6293
 31
0.0
  0
LINE
  8
0
 62
     0
 10
1.66743
 20
2.6293
 30
0.0
 11
1.87965
 21
2.21175
 31
0.0
  0
LINE
  8
0
 62
     0
 10
1.87965
 20
2.21175
 30
0.0
 11
2.21175
 21
1.87965
 31
0.0
  0
LINE
  8
0
 62
     0
 10
2.21175
 20
1.87965
 30
0.0
 11
2.6293
 21
1.66605
 31
0.0
  0
LINE
  8
0
 62
     0
 10
2.6293
 20
1.66605
 30
0.0
 11
3.0937
 21
1.59301
 31
0.0
  0
LINE
  8
0
 62
     0
 10
3.0937
 20
1.59301
 30
0.0
 11
3.55671
 21
1.66605
 31
0.0
  0
LINE
  8
0
 62
     0
 10
3.55671
 20
1.66605
 30
0.0
 11
3.97425
 21
1.87965
 31
0.0
  0
LINE
  8
0
 62
     0
 10
3.97425
 20
1.87965
 30
0.0
 11
4.30636
 21
2.21175
 31
0.0
  0
LINE
  8
0
 62
     0
 10
4.30636
 20
2.21175
 30
0.0
 11
4.51997
 21
2.6293
 31
0.0
  0
LINE
  8
0
 62
     0
 10
4.51997
 20
2.6293
 30
0.0
 11
4.59437
 21
3.0937
 31
0.0
  0
LINE
  8
0
 62
     0
 10
4.59437
 20
3.0937
 30
0.0
 11
4.51997
 21
3.55671
 31
0.0
  0
LINE
  8
0
 62
     0
 10
4.51997
 20
3.55671
 30
0.0
 11
4.30636
 21
3.97425
 31
0.0
  0
LINE
  8
0
 62
     0
 10
4.30636
 20
3.97425
 30
0.0
 11
3.97425
 21
4.30636
 31
0.0
  0
LINE
  8
0
 62
     0
 10
3.97425
 20
4.30636
 30
0.0
 11
3.55671
 21
4.51997
 31
0.0
  0
LINE
  8
0
 62
     0
 10
3.55671
 20
4.51997
 30
0.0
 11
3.0937
 21
4.59299
 31
0.0
  0
LINE
  8
0
 62
     0
 10
3.0937
 20
4.59299
 30
0.0
 11
2.6293
 21
4.51997
 31
0.0
  0
LINE
  8
0
 62
     0
 10
98.5464
 20
4.51997
 30
0.0
 11
98.1287
 21
4.30636
 31
0.0
  0
LINE
  8
0
 62
     0
 10
98.1287
 20
4.30636
 30
0.0
 11
97.7967
 21
3.97425
 31
0.0
  0
LINE
  8
0
 62
     0
 10
97.7967
 20
3.97425
 30
0.0
 11
97.5843
 21
3.55671
 31
0.0
  0
LINE
  8
0
 62
     0
 10
97.5843
 20
3.55671
 30
0.0
 11
97.5113
 21
3.0937
 31
0.0
  0
LINE
  8
0
 62
     0
 10
97.5113
 20
3.0937
 30
0.0
 11
97.5843
 21
2.6293
 31
0.0
  0
LINE
  8
0
 62
     0
 10
97.5843
 20
2.6293
 30
0.0
 11
97.7967
 21
2.21175
 31
0.0
  0
LINE
  8
0
 62
     0
 10
97.7967
 20
2.21175
 30
0.0
 11
98.1287
 21
1.87965
 31
0.0
  0
LINE
  8
0
 62
     0
 10
98.1287
 20
1.87965
 30
0.0
 11
98.5464
 21
1.66605
 31
0.0
  0
LINE
  8
0
 62
     0
 10
98.5464
 20
1.66605
 30
0.0
 11
99.0106
 21
1.59301
 31
0.0
  0
LINE
  8
0
 62
     0
 10
99.0106
 20
1.59301
 30
0.0
 11
99.4738
 21
1.66605
 31
0.0
  0
LINE
  8
0
 62
     0
 10
99.4738
 20
1.66605
 30
0.0
 11
99.8911
 21
1.87965
 31
0.0
  0
LINE
  8
0
 62
     0
 10
99.8911
 20
1.87965
 30
0.0
 11
100.223
 21
2.21175
 31
0.0
  0
LINE
  8
0
 62
     0
 10
100.223
 20
2.21175
 30
0.0
 11
100.437
 21
2.6293
 31
0.0
  0
LINE
  8
0
 62
     0
 10
100.437
 20
2.6293
 30
0.0
 11
100.511
 21
3.0937
 31
0.0
  0
LINE
  8
0
 62
     0
 10
100.511
 20
3.0937
 30
0.0
 11
100.437
 21
3.55671
 31
0.0
  0
LINE
  8
0
 62
     0
 10
100.437
 20
3.55671
 30
0.0
 11
100.223
 21
3.97425
 31
0.0
  0
LINE
  8
0
 62
     0
 10
100.223
 20
3.97425
 30
0.0
 11
99.8911
 21
4.30636
 31
0.0
  0
LINE
  8
0
 62
     0
 10
99.8911
 20
4.30636
 30
0.0
 11
99.4738
 21
4.51997
 31
0.0
  0
LINE
  8
0
 62
     0
 10
99.4738
 20
4.51997
 30
0.0
 11
99.0106
 21
4.59299
 31
0.0
  0
LINE
  8
0
 62
     0
 10
99.0106
 20
4.59299
 30
0.0
 11
98.5464
 21
4.51997
 31
0.0
  0
LINE
  8
0
 62
     0
 10
194.463
 20
4.51997
 30
0.0
 11
194.046
 21
4.30636
 31
0.0
  0
LINE
  8
0
 62
     0
 10
194.046
 20
4.30636
 30
0.0
 11
193.713
 21
3.97425
 31
0.0
  0
LINE
  8
0
 62
     0
 10
193.713
 20
3.97425
 30
0.0
 11
193.501
 21
3.55671
 31
0.0
  0
LINE
  8
0
 62
     0
 10
193.501
 20
3.55671
 30
0.0
 11
193.428
 21
3.0937
 31
0.0
  0
LINE
  8
0
 62
     0
 10
193.428
 20
3.0937
 30
0.0
 11
193.501
 21
2.6293
 31
0.0
  0
LINE
  8
0
 62
     0
 10
193.501
 20
2.6293
 30
0.0
 11
193.713
 21
2.21175
 31
0.0
  0
LINE
  8
0
 62
     0
 10
193.713
 20
2.21175
 30
0.0
 11
194.046
 21
1.87965
 31
0.0
  0
LINE
  8
0
 62
     0
 10
194.046
 20
1.87965
 30
0.0
 11
194.463
 21
1.66605
 31
0.0
  0
LINE
  8
0
 62
     0
 10
194.463
 20
1.66605
 30
0.0
 11
194.928
 21
1.59301
 31
0.0
  0
LINE
  8
0
 62
     0
 10
194.928
 20
1.59301
 30
0.0
 11
195.391
 21
1.66605
 31
0.0
  0
LINE
  8
0
 62
     0
 10
195.391
 20
1.66605
 30
0.0
 11
195.808
 21
1.87965
 31
0.0
  0
LINE
  8
0
 62
     0
 10
195.808
 20
1.87965
 30
0.0
 11
196.14
 21
2.21175
 31
0.0
  0
LINE
  8
0
 62
     0
 10
196.14
 20
2.21175
 30
0.0
 11
196.354
 21
2.6293
 31
0.0
  0
LINE
  8
0
 62
     0
 10
196.354
 20
2.6293
 30
0.0
 11
196.428
 21
3.0937
 31
0.0
  0
LINE
  8
0
 62
     0
 10
196.428
 20
3.0937
 30
0.0
 11
196.354
 21
3.55671
 31
0.0
  0
LINE
  8
0
 62
     0
 10
196.354
 20
3.55671
 30
0.0
 11
196.14
 21
3.97425
 31
0.0
  0
LINE
  8
0
 62
     0
 10
196.14
 20
3.97425
 30
0.0
 11
195.808
 21
4.30636
 31
0.0
  0
LINE
  8
0
 62
     0
 10
195.808
 20
4.30636
 30
0.0
 11
195.391
 21
4.51997
 31
0.0
  0
LINE
  8
0
 62
     0
 10
195.391
 20
4.51997
 30
0.0
 11
194.928
 21
4.59299
 31
0.0
  0
LINE
  8
0
 62
     0
 10
194.928
 20
4.59299
 30
0.0
 11
194.463
 21
4.51997
 31
0.0
  0
LINE
  8
0
 62
     0
 10
290.38
 20
4.51997
 30
0.0
 11
289.963
 21
4.30636
 31
0.0
  0
LINE
  8
0
 62
     0
 10
289.963
 20
4.30636
 30
0.0
 11
289.631
 21
3.97425
 31
0.0
  0
LINE
  8
0
 62
     0
 10
289.631
 20
3.97425
 30
0.0
 11
289.418
 21
3.55671
 31
0.0
  0
LINE
  8
0
 62
     0
 10
289.418
 20
3.55671
 30
0.0
 11
289.345
 21
3.0937
 31
0.0
  0
LINE
  8
0
 62
     0
 10
289.345
 20
3.0937
 30
0.0
 11
289.418
 21
2.6293
 31
0.0
  0
LINE
  8
0
 62
     0
 10
289.418
 20
2.6293
 30
0.0
 11
289.631
 21
2.21175
 31
0.0
  0
LINE
  8
0
 62
     0
 10
289.631
 20
2.21175
 30
0.0
 11
289.963
 21
1.87965
 31
0.0
  0
LINE
  8
0
 62
     0
 10
289.963
 20
1.87965
 30
0.0
 11
290.38
 21
1.66605
 31
0.0
  0
LINE
  8
0
 62
     0
 10
290.38
 20
1.66605
 30
0.0
 11
290.844
 21
1.59301
 31
0.0
  0
LINE
  8
0
 62
     0
 10
290.844
 20
1.59301
 30
0.0
 11
291.308
 21
1.66605
 31
0.0
  0
LINE
  8
0
 62
     0
 10
291.308
 20
1.66605
 30
0.0
 11
291.725
 21
1.87965
 31
0.0
  0
LINE
  8
0
 62
     0
 10
291.725
 20
1.87965
 30
0.0
 11
292.057
 21
2.21175
 31
0.0
  0
LINE
  8
0
 62
     0
 10
292.057
 20
2.21175
 30
0.0
 11
292.271
 21
2.6293
 31
0.0
  0
LINE
  8
0
 62
     0
 10
292.271
 20
2.6293
 30
0.0
 11
292.345
 21
3.0937
 31
0.0
  0
LINE
  8
0
 62
     0
 10
292.345
 20
3.0937
 30
0.0
 11
292.271
 21
3.55671
 31
0.0
  0
LINE
  8
0
 62
     0
 10
292.271
 20
3.55671
 30
0.0
 11
292.057
 21
3.97425
 31
0.0
  0
LINE
  8
0
 62
     0
 10
292.057
 20
3.97425
 30
0.0
 11
291.725
 21
4.30636
 31
0.0
  0
LINE
  8
0
 62
     0
 10
291.725
 20
4.30636
 30
0.0
 11
291.308
 21
4.51997
 31
0.0
  0
LINE
  8
0
 62
     0
 10
291.308
 20
4.51997
 30
0.0
 11
290.844
 21
4.59299
 31
0.0
  0
LINE
  8
0
 62
     0
 10
290.844
 20
4.59299
 30
0.0
 11
290.38
 21
4.51997
 31
0.0
  0
LINE
  8
0
 62
     0
 10
4.09141
 20
101.345
 30
0.0
 11
4.09141
 21
82.2925
 31
0.0
  0
LINE
  8
0
 62
     0
 10
4.09141
 20
82.2925
 30
0.0
 11
4.09279
 21
82.2925
 31
0.0
  0
LINE
  8
0
 62
     0
 10
4.09279
 20
82.2925
 30
0.0
 11
4.09279
 21
63.2449
 31
0.0
  0
LINE
  8
0
 62
     0
 10
4.09279
 20
63.2449
 30
0.0
 11
4.09141
 21
63.2449
 31
0.0
  0
LINE
  8
0
 62
     0
 10
4.09141
 20
63.2449
 30
0.0
 11
4.09141
 21
25.1423
 31
0.0
  0
LINE
  8
0
 62
     0
 10
4.09141
 20
25.1423
 30
0.0
 11
4.09279
 21
25.1423
 31
0.0
  0
LINE
  8
0
 62
     0
 10
4.09279
 20
25.1423
 30
0.0
 11
4.09279
 21
6.09367
 31
0.0
  0
LINE
  8
0
 62
     0
 10
4.09279
 20
6.09367
 30
0.0
 11
32.6692
 21
6.09367
 31
0.0
  0
LINE
  8
0
 62
     0
 10
32.6692
 20
6.09367
 30
0.0
 11
32.6692
 21
25.1423
 31
0.0
  0
LINE
  8
0
 62
     0
 10
32.6692
 20
25.1423
 30
0.0
 11
51.7179
 21
25.1423
 31
0.0
  0
LINE
  8
0
 62
     0
 10
51.7179
 20
25.1423
 30
0.0
 11
51.7179
 21
6.09367
 31
0.0
  0
LINE
  8
0
 62
     0
 10
51.7179
 20
6.09367
 30
0.0
 11
242.219
 21
6.09367
 31
0.0
  0
LINE
  8
0
 62
     0
 10
242.219
 20
6.09367
 30
0.0
 11
242.219
 21
25.1423
 31
0.0
  0
LINE
  8
0
 62
     0
 10
242.219
 20
25.1423
 30
0.0
 11
261.268
 21
25.1423
 31
0.0
  0
LINE
  8
0
 62
     0
 10
261.268
 20
25.1423
 30
0.0
 11
261.268
 21
6.09367
 31
0.0
  0
LINE
  8
0
 62
     0
 10
261.268
 20
6.09367
 30
0.0
 11
289.844
 21
6.09367
 31
0.0
  0
LINE
  8
0
 62
     0
 10
289.844
 20
6.09367
 30
0.0
 11
289.844
 21
101.345
 31
0.0
  0
LINE
  8
0
 62
     0
 10
289.844
 20
101.345
 30
0.0
 11
4.09141
 21
101.345
 31
0.0
  0
LINE
  8
0
 62
     0
 10
2.6293
 20
105.77
 30
0.0
 11
2.21175
 21
105.558
 31
0.0
  0
LINE
  8
0
 62
     0
 10
2.21175
 20
105.558
 30
0.0
 11
1.87965
 21
105.226
 31
0.0
  0
LINE
  8
0
 62
     0
 10
1.87965
 20
105.226
 30
0.0
 11
1.66743
 21
104.808
 31
0.0
  0
LINE
  8
0
 62
     0
 10
1.66743
 20
104.808
 30
0.0
 11
1.59301
 21
104.344
 31
0.0
  0
LINE
  8
0
 62
     0
 10
1.59301
 20
104.344
 30
0.0
 11
1.66743
 21
103.881
 31
0.0
  0
LINE
  8
0
 62
     0
 10
1.66743
 20
103.881
 30
0.0
 11
1.87965
 21
103.463
 31
0.0
  0
LINE
  8
0
 62
     0
 10
1.87965
 20
103.463
 30
0.0
 11
2.21175
 21
103.131
 31
0.0
  0
LINE
  8
0
 62
     0
 10
2.21175
 20
103.131
 30
0.0
 11
2.6293
 21
102.917
 31
0.0
  0
LINE
  8
0
 62
     0
 10
2.6293
 20
102.917
 30
0.0
 11
3.0937
 21
102.843
 31
0.0
  0
LINE
  8
0
 62
     0
 10
3.0937
 20
102.843
 30
0.0
 11
3.55671
 21
102.917
 31
0.0
  0
LINE
  8
0
 62
     0
 10
3.55671
 20
102.917
 30
0.0
 11
3.97425
 21
103.131
 31
0.0
  0
LINE
  8
0
 62
     0
 10
3.97425
 20
103.131
 30
0.0
 11
4.30636
 21
103.463
 31
0.0
  0
LINE
  8
0
 62
     0
 10
4.30636
 20
103.463
 30
0.0
 11
4.51997
 21
103.881
 31
0.0
  0
LINE
  8
0
 62
     0
 10
4.51997
 20
103.881
 30
0.0
 11
4.59437
 21
104.344
 31
0.0
  0
LINE
  8
0
 62
     0
 10
4.59437
 20
104.344
 30
0.0
 11
4.51997
 21
104.808
 31
0.0
  0
LINE
  8
0
 62
     0
 10
4.51997
 20
104.808
 30
0.0
 11
4.30636
 21
105.226
 31
0.0
  0
LINE
  8
0
 62
     0
 10
4.30636
 20
105.226
 30
0.0
 11
3.97425
 21
105.558
 31
0.0
  0
LINE
  8
0
 62
     0
 10
3.97425
 20
105.558
 30
0.0
 11
3.55671
 21
105.77
 31
0.0
  0
LINE
  8
0
 62
     0
 10
3.55671
 20
105.77
 30
0.0
 11
3.0937
 21
105.843
 31
0.0
  0
LINE
  8
0
 62
     0
 10
3.0937
 20
105.843
 30
0.0
 11
2.6293
 21
105.77
 31
0.0
  0
LINE
  8
0
 62
     0
 10
98.5464
 20
105.77
 30
0.0
 11
98.1287
 21
105.558
 31
0.0
  0
LINE
  8
0
 62
     0
 10
98.1287
 20
105.558
 30
0.0
 11
97.7967
 21
105.226
 31
0.0
  0
LINE
  8
0
 62
     0
 10
97.7967
 20
105.226
 30
0.0
 11
97.5843
 21
104.808
 31
0.0
  0
LINE
  8
0
 62
     0
 10
97.5843
 20
104.808
 30
0.0
 11
97.5113
 21
104.344
 31
0.0
  0
LINE
  8
0
 62
     0
 10
97.5113
 20
104.344
 30
0.0
 11
97.5843
 21
103.881
 31
0.0
  0
LINE
  8
0
 62
     0
 10
97.5843
 20
103.881
 30
0.0
 11
97.7967
 21
103.463
 31
0.0
  0
LINE
  8
0
 62
     0
 10
97.7967
 20
103.463
 30
0.0
 11
98.1287
 21
103.131
 31
0.0
  0
LINE
  8
0
 62
     0
 10
98.1287
 20
103.131
 30
0.0
 11
98.5464
 21
102.917
 31
0.0
  0
LINE
  8
0
 62
     0
 10
98.5464
 20
102.917
 30
0.0
 11
99.0106
 21
102.843
 31
0.0
  0
LINE
  8
0
 62
     0
 10
99.0106
 20
102.843
 30
0.0
 11
99.4738
 21
102.917
 31
0.0
  0
LINE
  8
0
 62
     0
 10
99.4738
 20
102.917
 30
0.0
 11
99.8911
 21
103.131
 31
0.0
  0
LINE
  8
0
 62
     0
 10
99.8911
 20
103.131
 30
0.0
 11
100.223
 21
103.463
 31
0.0
  0
LINE
  8
0
 62
     0
 10
100.223
 20
103.463
 30
0.0
 11
100.437
 21
103.881
 31
0.0
  0
LINE
  8
0
 62
     0
 10
100.437
 20
103.881
 30
0.0
 11
100.511
 21
104.344
 31
0.0
  0
LINE
  8
0
 62
     0
 10
100.511
 20
104.344
 30
0.0
 11
100.437
 21
104.808
 31
0.0
  0
LINE
  8
0
 62
     0
 10
100.437
 20
104.808
 30
0.0
 11
100.223
 21
105.226
 31
0.0
  0
LINE
  8
0
 62
     0
 10
100.223
 20
105.226
 30
0.0
 11
99.8911
 21
105.558
 31
0.0
  0
LINE
  8
0
 62
     0
 10
99.8911
 20
105.558
 30
0.0
 11
99.4738
 21
105.77
 31
0.0
  0
LINE
  8
0
 62
     0
 10
99.4738
 20
105.77
 30
0.0
 11
99.0106
 21
105.843
 31
0.0
  0
LINE
  8
0
 62
     0
 10
99.0106
 20
105.843
 30
0.0
 11
98.5464
 21
105.77
 31
0.0
  0
LINE
  8
0
 62
     0
 10
194.463
 20
105.77
 30
0.0
 11
194.046
 21
105.558
 31
0.0
  0
LINE
  8
0
 62
     0
 10
194.046
 20
105.558
 30
0.0
 11
193.713
 21
105.226
 31
0.0
  0
LINE
  8
0
 62
     0
 10
193.713
 20
105.226
 30
0.0
 11
193.501
 21
104.808
 31
0.0
  0
LINE
  8
0
 62
     0
 10
193.501
 20
104.808
 30
0.0
 11
193.428
 21
104.344
 31
0.0
  0
LINE
  8
0
 62
     0
 10
193.428
 20
104.344
 30
0.0
 11
193.501
 21
103.881
 31
0.0
  0
LINE
  8
0
 62
     0
 10
193.501
 20
103.881
 30
0.0
 11
193.713
 21
103.463
 31
0.0
  0
LINE
  8
0
 62
     0
 10
193.713
 20
103.463
 30
0.0
 11
194.046
 21
103.131
 31
0.0
  0
LINE
  8
0
 62
     0
 10
194.046
 20
103.131
 30
0.0
 11
194.463
 21
102.917
 31
0.0
  0
LINE
  8
0
 62
     0
 10
194.463
 20
102.917
 30
0.0
 11
194.928
 21
102.843
 31
0.0
  0
LINE
  8
0
 62
     0
 10
194.928
 20
102.843
 30
0.0
 11
195.391
 21
102.917
 31
0.0
  0
LINE
  8
0
 62
     0
 10
195.391
 20
102.917
 30
0.0
 11
195.808
 21
103.131
 31
0.0
  0
LINE
  8
0
 62
     0
 10
195.808
 20
103.131
 30
0.0
 11
196.14
 21
103.463
 31
0.0
  0
LINE
  8
0
 62
     0
 10
196.14
 20
103.463
 30
0.0
 11
196.354
 21
103.881
 31
0.0
  0
LINE
  8
0
 62
     0
 10
196.354
 20
103.881
 30
0.0
 11
196.428
 21
104.344
 31
0.0
  0
LINE
  8
0
 62
     0
 10
196.428
 20
104.344
 30
0.0
 11
196.354
 21
104.808
 31
0.0
  0
LINE
  8
0
 62
     0
 10
196.354
 20
104.808
 30
0.0
 11
196.14
 21
105.226
 31
0.0
  0
LINE
  8
0
 62
     0
 10
196.14
 20
105.226
 30
0.0
 11
195.808
 21
105.558
 31
0.0
  0
LINE
  8
0
 62
     0
 10
195.808
 20
105.558
 30
0.0
 11
195.391
 21
105.77
 31
0.0
  0
LINE
  8
0
 62
     0
 10
195.391
 20
105.77
 30
0.0
 11
194.928
 21
105.843
 31
0.0
  0
LINE
  8
0
 62
     0
 10
194.928
 20
105.843
 30
0.0
 11
194.463
 21
105.77
 31
0.0
  0
LINE
  8
0
 62
     0
 10
290.38
 20
105.77
 30
0.0
 11
289.963
 21
105.558
 31
0.0
  0
LINE
  8
0
 62
     0
 10
289.963
 20
105.558
 30
0.0
 11
289.631
 21
105.226
 31
0.0
  0
LINE
  8
0
 62
     0
 10
289.631
 20
105.226
 30
0.0
 11
289.418
 21
104.808
 31
0.0
  0
LINE
  8
0
 62
     0
 10
289.418
 20
104.808
 30
0.0
 11
289.345
 21
104.344
 31
0.0
  0
LINE
  8
0
 62
     0
 10
289.345
 20
104.344
 30
0.0
 11
289.418
 21
103.881
 31
0.0
  0
LINE
  8
0
 62
     0
 10
289.418
 20
103.881
 30
0.0
 11
289.631
 21
103.463
 31
0.0
  0
LINE
  8
0
 62
     0
 10
289.631
 20
103.463
 30
0.0
 11
289.963
 21
103.131
 31
0.0
  0
LINE
  8
0
 62
     0
 10
289.963
 20
103.131
 30
0.0
 11
290.38
 21
102.917
 31
0.0
  0
LINE
  8
0
 62
     0
 10
290.38
 20
102.917
 30
0.0
 11
290.844
 21
102.843
 31
0.0
  0
LINE
  8
0
 62
     0
 10
290.844
 20
102.843
 30
0.0
 11
291.308
 21
102.917
 31
0.0
  0
LINE
  8
0
 62
     0
 10
291.308
 20
102.917
 30
0.0
 11
291.725
 21
103.131
 31
0.0
  0
LINE
  8
0
 62
     0
 10
291.725
 20
103.131
 30
0.0
 11
292.057
 21
103.463
 31
0.0
  0
LINE
  8
0
 62
     0
 10
292.057
 20
103.463
 30
0.0
 11
292.271
 21
103.881
 31
0.0
  0
LINE
  8
0
 62
     0
 10
292.271
 20
103.881
 30
0.0
 11
292.345
 21
104.344
 31
0.0
  0
LINE
  8
0
 62
     0
 10
292.345
 20
104.344
 30
0.0
 11
292.271
 21
104.808
 31
0.0
  0
LINE
  8
0
 62
     0
 10
292.271
 20
104.808
 30
0.0
 11
292.057
 21
105.226
 31
0.0
  0
LINE
  8
0
 62
     0
 10
292.057
 20
105.226
 30
0.0
 11
291.725
 21
105.558
 31
0.0
  0
LINE
  8
0
 62
     0
 10
291.725
 20
105.558
 30
0.0
 11
291.308
 21
105.77
 31
0.0
  0
LINE
  8
0
 62
     0
 10
291.308
 20
105.77
 30
0.0
 11
290.844
 21
105.843
 31
0.0
  0
LINE
  8
0
 62
     0
 10
290.844
 20
105.843
 30
0.0
 11
290.38
 21
105.77
 31
0.0
  0
ENDSEC
  0
EOF
