  0
SECTION
  2
HEADER
  9
$ACADVER
  1
AC1009
  9
$EXTMIN
 10
0.0
 20
0.0
 30
0.0
  9
$EXTMAX
 10
1000.0
 20
1000.0
 30
0.0
  9
$FILLMODE
 70
 0
  9
$SPLFRAME
 70
 1
  0
ENDSEC
  0
SECTION
  2
TABLES
  0
TABLE
  2
LAYER
 70
1
  0
LAYER
  2
0
 70
     0
 62
     7
  6
CONTINUOUS
  0
ENDTAB
  0
ENDSEC
  0
SECTION
  2
ENTITIES
  0
LINE
  8
0
 62
     0
 10
0.0937066
 20
107.344
 30
0.0
 11
293.844
 21
107.344
 31
0.0
  0
LINE
  8
0
 62
     0
 10
293.844
 20
107.344
 30
0.0
 11
293.844
 21
0.0937066
 31
0.0
  0
LINE
  8
0
 62
     0
 10
293.844
 20
0.0937066
 30
0.0
 11
0.0937066
 21
0.0937066
 31
0.0
  0
LINE
  8
0
 62
     0
 10
0.0937066
 20
0.0937066
 30
0.0
 11
0.0937066
 21
107.344
 31
0.0
  0
LINE
  8
0
 62
     0
 10
2.6293
 20
4.51997
 30
0.0
 11
2.21175
 21
4.30636
 31
0.0
  0
LINE
  8
0
 62
     0
 10
2.21175
 20
4.30636
 30
0.0
 11
1.87965
 21
3.97425
 31
0.0
  0
LINE
  8
0
 62
     0
 10
1.87965
 20
3.97425
 30
0.0
 11
1.66743
 21
3.55671
 31
0.0
  0
LINE
  8
0
 62
     0
 10
1.66743
 20
3.55671
 30
0.0
 11
1.59301
 21
3.0937
 31
0.0
  0
LINE
  8
0
 62
     0
 10
1.59301
 20
3.0937
 30
0.0
 11
1.66743
 21
2.6293
 31
0.0
  0
LINE
  8
0
 62
     0
 10
1.66743
 20
2.6293
 30
0.0
 11
1.87965
 21
2.21175
 31
0.0
  0
LINE
  8
0
 62
     0
 10
1.87965
 20
2.21175
 30
0.0
 11
2.21175
 21
1.87965
 31
0.0
  0
LINE
  8
0
 62
     0
 10
2.21175
 20
1.87965
 30
0.0
 11
2.6293
 21
1.66605
 31
0.0
  0
LINE
  8
0
 62
     0
 10
2.6293
 20
1.66605
 30
0.0
 11
3.0937
 21
1.59301
 31
0.0
  0
LINE
  8
0
 62
     0
 10
3.0937
 20
1.59301
 30
0.0
 11
3.55671
 21
1.66605
 31
0.0
  0
LINE
  8
0
 62
     0
 10
3.55671
 20
1.66605
 30
0.0
 11
3.97425
 21
1.87965
 31
0.0
  0
LINE
  8
0
 62
     0
 10
3.97425
 20
1.87965
 30
0.0
 11
4.30636
 21
2.21175
 31
0.0
  0
LINE
  8
0
 62
     0
 10
4.30636
 20
2.21175
 30
0.0
 11
4.51997
 21
2.6293
 31
0.0
  0
LINE
  8
0
 62
     0
 10
4.51997
 20
2.6293
 30
0.0
 11
4.59437
 21
3.0937
 31
0.0
  0
LINE
  8
0
 62
     0
 10
4.59437
 20
3.0937
 30
0.0
 11
4.51997
 21
3.55671
 31
0.0
  0
LINE
  8
0
 62
     0
 10
4.51997
 20
3.55671
 30
0.0
 11
4.30636
 21
3.97425
 31
0.0
  0
LINE
  8
0
 62
     0
 10
4.30636
 20
3.97425
 30
0.0
 11
3.97425
 21
4.30636
 31
0.0
  0
LINE
  8
0
 62
     0
 10
3.97425
 20
4.30636
 30
0.0
 11
3.55671
 21
4.51997
 31
0.0
  0
LINE
  8
0
 62
     0
 10
3.55671
 20
4.51997
 30
0.0
 11
3.0937
 21
4.59299
 31
0.0
  0
LINE
  8
0
 62
     0
 10
3.0937
 20
4.59299
 30
0.0
 11
2.6293
 21
4.51997
 31
0.0
  0
LINE
  8
0
 62
     0
 10
98.5464
 20
4.51997
 30
0.0
 11
98.1287
 21
4.30636
 31
0.0
  0
LINE
  8
0
 62
     0
 10
98.1287
 20
4.30636
 30
0.0
 11
97.7967
 21
3.97425
 31
0.0
  0
LINE
  8
0
 62
     0
 10
97.7967
 20
3.97425
 30
0.0
 11
97.5843
 21
3.55671
 31
0.0
  0
LINE
  8
0
 62
     0
 10
97.5843
 20
3.55671
 30
0.0
 11
97.5113
 21
3.0937
 31
0.0
  0
LINE
  8
0
 62
     0
 10
97.5113
 20
3.0937
 30
0.0
 11
97.5843
 21
2.6293
 31
0.0
  0
LINE
  8
0
 62
     0
 10
97.5843
 20
2.6293
 30
0.0
 11
97.7967
 21
2.21175
 31
0.0
  0
LINE
  8
0
 62
     0
 10
97.7967
 20
2.21175
 30
0.0
 11
98.1287
 21
1.87965
 31
0.0
  0
LINE
  8
0
 62
     0
 10
98.1287
 20
1.87965
 30
0.0
 11
98.5464
 21
1.66605
 31
0.0
  0
LINE
  8
0
 62
     0
 10
98.5464
 20
1.66605
 30
0.0
 11
99.0106
 21
1.59301
 31
0.0
  0
LINE
  8
0
 62
     0
 10
99.0106
 20
1.59301
 30
0.0
 11
99.4738
 21
1.66605
 31
0.0
  0
LINE
  8
0
 62
     0
 10
99.4738
 20
1.66605
 30
0.0
 11
99.8911
 21
1.87965
 31
0.0
  0
LINE
  8
0
 62
     0
 10
99.8911
 20
1.87965
 30
0.0
 11
100.223
 21
2.21175
 31
0.0
  0
LINE
  8
0
 62
     0
 10
100.223
 20
2.21175
 30
0.0
 11
100.437
 21
2.6293
 31
0.0
  0
LINE
  8
0
 62
     0
 10
100.437
 20
2.6293
 30
0.0
 11
100.511
 21
3.0937
 31
0.0
  0
LINE
  8
0
 62
     0
 10
100.511
 20
3.0937
 30
0.0
 11
100.437
 21
3.55671
 31
0.0
  0
LINE
  8
0
 62
     0
 10
100.437
 20
3.55671
 30
0.0
 11
100.223
 21
3.97425
 31
0.0
  0
LINE
  8
0
 62
     0
 10
100.223
 20
3.97425
 30
0.0
 11
99.8911
 21
4.30636
 31
0.0
  0
LINE
  8
0
 62
     0
 10
99.8911
 20
4.30636
 30
0.0
 11
99.4738
 21
4.51997
 31
0.0
  0
LINE
  8
0
 62
     0
 10
99.4738
 20
4.51997
 30
0.0
 11
99.0106
 21
4.59299
 31
0.0
  0
LINE
  8
0
 62
     0
 10
99.0106
 20
4.59299
 30
0.0
 11
98.5464
 21
4.51997
 31
0.0
  0
LINE
  8
0
 62
     0
 10
194.463
 20
4.51997
 30
0.0
 11
194.046
 21
4.30636
 31
0.0
  0
LINE
  8
0
 62
     0
 10
194.046
 20
4.30636
 30
0.0
 11
193.713
 21
3.97425
 31
0.0
  0
LINE
  8
0
 62
     0
 10
193.713
 20
3.97425
 30
0.0
 11
193.501
 21
3.55671
 31
0.0
  0
LINE
  8
0
 62
     0
 10
193.501
 20
3.55671
 30
0.0
 11
193.428
 21
3.0937
 31
0.0
  0
LINE
  8
0
 62
     0
 10
193.428
 20
3.0937
 30
0.0
 11
193.501
 21
2.6293
 31
0.0
  0
LINE
  8
0
 62
     0
 10
193.501
 20
2.6293
 30
0.0
 11
193.713
 21
2.21175
 31
0.0
  0
LINE
  8
0
 62
     0
 10
193.713
 20
2.21175
 30
0.0
 11
194.046
 21
1.87965
 31
0.0
  0
LINE
  8
0
 62
     0
 10
194.046
 20
1.87965
 30
0.0
 11
194.463
 21
1.66605
 31
0.0
  0
LINE
  8
0
 62
     0
 10
194.463
 20
1.66605
 30
0.0
 11
194.928
 21
1.59301
 31
0.0
  0
LINE
  8
0
 62
     0
 10
194.928
 20
1.59301
 30
0.0
 11
195.391
 21
1.66605
 31
0.0
  0
LINE
  8
0
 62
     0
 10
195.391
 20
1.66605
 30
0.0
 11
195.808
 21
1.87965
 31
0.0
  0
LINE
  8
0
 62
     0
 10
195.808
 20
1.87965
 30
0.0
 11
196.14
 21
2.21175
 31
0.0
  0
LINE
  8
0
 62
     0
 10
196.14
 20
2.21175
 30
0.0
 11
196.354
 21
2.6293
 31
0.0
  0
LINE
  8
0
 62
     0
 10
196.354
 20
2.6293
 30
0.0
 11
196.428
 21
3.0937
 31
0.0
  0
LINE
  8
0
 62
     0
 10
196.428
 20
3.0937
 30
0.0
 11
196.354
 21
3.55671
 31
0.0
  0
LINE
  8
0
 62
     0
 10
196.354
 20
3.55671
 30
0.0
 11
196.14
 21
3.97425
 31
0.0
  0
LINE
  8
0
 62
     0
 10
196.14
 20
3.97425
 30
0.0
 11
195.808
 21
4.30636
 31
0.0
  0
LINE
  8
0
 62
     0
 10
195.808
 20
4.30636
 30
0.0
 11
195.391
 21
4.51997
 31
0.0
  0
LINE
  8
0
 62
     0
 10
195.391
 20
4.51997
 30
0.0
 11
194.928
 21
4.59299
 31
0.0
  0
LINE
  8
0
 62
     0
 10
194.928
 20
4.59299
 30
0.0
 11
194.463
 21
4.51997
 31
0.0
  0
LINE
  8
0
 62
     0
 10
290.38
 20
4.51997
 30
0.0
 11
289.963
 21
4.30636
 31
0.0
  0
LINE
  8
0
 62
     0
 10
289.963
 20
4.30636
 30
0.0
 11
289.631
 21
3.97425
 31
0.0
  0
LINE
  8
0
 62
     0
 10
289.631
 20
3.97425
 30
0.0
 11
289.418
 21
3.55671
 31
0.0
  0
LINE
  8
0
 62
     0
 10
289.418
 20
3.55671
 30
0.0
 11
289.345
 21
3.0937
 31
0.0
  0
LINE
  8
0
 62
     0
 10
289.345
 20
3.0937
 30
0.0
 11
289.418
 21
2.6293
 31
0.0
  0
LINE
  8
0
 62
     0
 10
289.418
 20
2.6293
 30
0.0
 11
289.631
 21
2.21175
 31
0.0
  0
LINE
  8
0
 62
     0
 10
289.631
 20
2.21175
 30
0.0
 11
289.963
 21
1.87965
 31
0.0
  0
LINE
  8
0
 62
     0
 10
289.963
 20
1.87965
 30
0.0
 11
290.38
 21
1.66605
 31
0.0
  0
LINE
  8
0
 62
     0
 10
290.38
 20
1.66605
 30
0.0
 11
290.844
 21
1.59301
 31
0.0
  0
LINE
  8
0
 62
     0
 10
290.844
 20
1.59301
 30
0.0
 11
291.308
 21
1.66605
 31
0.0
  0
LINE
  8
0
 62
     0
 10
291.308
 20
1.66605
 30
0.0
 11
291.725
 21
1.87965
 31
0.0
  0
LINE
  8
0
 62
     0
 10
291.725
 20
1.87965
 30
0.0
 11
292.057
 21
2.21175
 31
0.0
  0
LINE
  8
0
 62
     0
 10
292.057
 20
2.21175
 30
0.0
 11
292.271
 21
2.6293
 31
0.0
  0
LINE
  8
0
 62
     0
 10
292.271
 20
2.6293
 30
0.0
 11
292.345
 21
3.0937
 31
0.0
  0
LINE
  8
0
 62
     0
 10
292.345
 20
3.0937
 30
0.0
 11
292.271
 21
3.55671
 31
0.0
  0
LINE
  8
0
 62
     0
 10
292.271
 20
3.55671
 30
0.0
 11
292.057
 21
3.97425
 31
0.0
  0
LINE
  8
0
 62
     0
 10
292.057
 20
3.97425
 30
0.0
 11
291.725
 21
4.30636
 31
0.0
  0
LINE
  8
0
 62
     0
 10
291.725
 20
4.30636
 30
0.0
 11
291.308
 21
4.51997
 31
0.0
  0
LINE
  8
0
 62
     0
 10
291.308
 20
4.51997
 30
0.0
 11
290.844
 21
4.59299
 31
0.0
  0
LINE
  8
0
 62
     0
 10
290.844
 20
4.59299
 30
0.0
 11
290.38
 21
4.51997
 31
0.0
  0
LINE
  8
0
 62
     0
 10
139.969
 20
22.6191
 30
0.0
 11
139.969
 21
17.9186
 31
0.0
  0
LINE
  8
0
 62
     0
 10
139.969
 20
17.9186
 30
0.0
 11
93.194
 21
17.9186
 31
0.0
  0
LINE
  8
0
 62
     0
 10
93.194
 20
17.9186
 30
0.0
 11
93.194
 21
21.1487
 31
0.0
  0
LINE
  8
0
 62
     0
 10
93.194
 20
21.1487
 30
0.0
 11
86.4443
 21
21.1487
 31
0.0
  0
LINE
  8
0
 62
     0
 10
86.4443
 20
21.1487
 30
0.0
 11
86.4443
 21
17.9186
 31
0.0
  0
LINE
  8
0
 62
     0
 10
86.4443
 20
17.9186
 30
0.0
 11
85.6188
 21
17.9186
 31
0.0
  0
LINE
  8
0
 62
     0
 10
85.6188
 20
17.9186
 30
0.0
 11
85.6188
 21
15.1185
 31
0.0
  0
LINE
  8
0
 62
     0
 10
85.6188
 20
15.1185
 30
0.0
 11
86.4443
 21
15.1185
 31
0.0
  0
LINE
  8
0
 62
     0
 10
86.4443
 20
15.1185
 30
0.0
 11
86.4443
 21
8.84975
 31
0.0
  0
LINE
  8
0
 62
     0
 10
86.4443
 20
8.84975
 30
0.0
 11
88.1683
 21
8.84975
 31
0.0
  0
LINE
  8
0
 62
     0
 10
88.1683
 20
8.84975
 30
0.0
 11
88.1683
 21
7.64812
 31
0.0
  0
LINE
  8
0
 62
     0
 10
88.1683
 20
7.64812
 30
0.0
 11
91.4686
 21
7.64812
 31
0.0
  0
LINE
  8
0
 62
     0
 10
91.4686
 20
7.64812
 30
0.0
 11
91.4686
 21
8.84975
 31
0.0
  0
LINE
  8
0
 62
     0
 10
91.4686
 20
8.84975
 30
0.0
 11
93.194
 21
8.84975
 31
0.0
  0
LINE
  8
0
 62
     0
 10
93.194
 20
8.84975
 30
0.0
 11
93.194
 21
13.3201
 31
0.0
  0
LINE
  8
0
 62
     0
 10
93.194
 20
13.3201
 30
0.0
 11
139.969
 21
13.3201
 31
0.0
  0
LINE
  8
0
 62
     0
 10
139.969
 20
13.3201
 30
0.0
 11
139.969
 21
8.61826
 31
0.0
  0
LINE
  8
0
 62
     0
 10
139.969
 20
8.61826
 30
0.0
 11
153.968
 21
8.61826
 31
0.0
  0
LINE
  8
0
 62
     0
 10
153.968
 20
8.61826
 30
0.0
 11
153.968
 21
13.3201
 31
0.0
  0
LINE
  8
0
 62
     0
 10
153.968
 20
13.3201
 30
0.0
 11
200.744
 21
13.3201
 31
0.0
  0
LINE
  8
0
 62
     0
 10
200.744
 20
13.3201
 30
0.0
 11
200.744
 21
8.84975
 31
0.0
  0
LINE
  8
0
 62
     0
 10
200.744
 20
8.84975
 30
0.0
 11
202.468
 21
8.84975
 31
0.0
  0
LINE
  8
0
 62
     0
 10
202.468
 20
8.84975
 30
0.0
 11
202.468
 21
7.64812
 31
0.0
  0
LINE
  8
0
 62
     0
 10
202.468
 20
7.64812
 30
0.0
 11
205.769
 21
7.64812
 31
0.0
  0
LINE
  8
0
 62
     0
 10
205.769
 20
7.64812
 30
0.0
 11
205.769
 21
8.84975
 31
0.0
  0
LINE
  8
0
 62
     0
 10
205.769
 20
8.84975
 30
0.0
 11
207.494
 21
8.84975
 31
0.0
  0
LINE
  8
0
 62
     0
 10
207.494
 20
8.84975
 30
0.0
 11
207.494
 21
15.1185
 31
0.0
  0
LINE
  8
0
 62
     0
 10
207.494
 20
15.1185
 30
0.0
 11
208.32
 21
15.1185
 31
0.0
  0
LINE
  8
0
 62
     0
 10
208.32
 20
15.1185
 30
0.0
 11
208.32
 21
17.9186
 31
0.0
  0
LINE
  8
0
 62
     0
 10
208.32
 20
17.9186
 30
0.0
 11
207.494
 21
17.9186
 31
0.0
  0
LINE
  8
0
 62
     0
 10
207.494
 20
17.9186
 30
0.0
 11
207.494
 21
21.1487
 31
0.0
  0
LINE
  8
0
 62
     0
 10
207.494
 20
21.1487
 30
0.0
 11
200.744
 21
21.1487
 31
0.0
  0
LINE
  8
0
 62
     0
 10
200.744
 20
21.1487
 30
0.0
 11
200.744
 21
17.9186
 31
0.0
  0
LINE
  8
0
 62
     0
 10
200.744
 20
17.9186
 30
0.0
 11
153.968
 21
17.9186
 31
0.0
  0
LINE
  8
0
 62
     0
 10
153.968
 20
17.9186
 30
0.0
 11
153.968
 21
22.6191
 31
0.0
  0
LINE
  8
0
 62
     0
 10
153.968
 20
22.6191
 30
0.0
 11
139.969
 21
22.6191
 31
0.0
  0
LINE
  8
0
 62
     0
 10
11.3798
 20
22.6191
 30
0.0
 11
25.3807
 21
22.6191
 31
0.0
  0
LINE
  8
0
 62
     0
 10
25.3807
 20
22.6191
 30
0.0
 11
25.3807
 21
8.61826
 31
0.0
  0
LINE
  8
0
 62
     0
 10
25.3807
 20
8.61826
 30
0.0
 11
11.3798
 21
8.61826
 31
0.0
  0
LINE
  8
0
 62
     0
 10
11.3798
 20
8.61826
 30
0.0
 11
11.3798
 21
22.6191
 31
0.0
  0
LINE
  8
0
 62
     0
 10
59.0063
 20
22.6191
 30
0.0
 11
73.0056
 21
22.6191
 31
0.0
  0
LINE
  8
0
 62
     0
 10
73.0056
 20
22.6191
 30
0.0
 11
73.0056
 21
8.61826
 31
0.0
  0
LINE
  8
0
 62
     0
 10
73.0056
 20
8.61826
 30
0.0
 11
59.0063
 21
8.61826
 31
0.0
  0
LINE
  8
0
 62
     0
 10
59.0063
 20
8.61826
 30
0.0
 11
59.0063
 21
22.6191
 31
0.0
  0
LINE
  8
0
 62
     0
 10
220.931
 20
22.6191
 30
0.0
 11
234.931
 21
22.6191
 31
0.0
  0
LINE
  8
0
 62
     0
 10
234.931
 20
22.6191
 30
0.0
 11
234.931
 21
8.61826
 31
0.0
  0
LINE
  8
0
 62
     0
 10
234.931
 20
8.61826
 30
0.0
 11
220.931
 21
8.61826
 31
0.0
  0
LINE
  8
0
 62
     0
 10
220.931
 20
8.61826
 30
0.0
 11
220.931
 21
22.6191
 31
0.0
  0
LINE
  8
0
 62
     0
 10
268.556
 20
22.6191
 30
0.0
 11
282.556
 21
22.6191
 31
0.0
  0
LINE
  8
0
 62
     0
 10
282.556
 20
22.6191
 30
0.0
 11
282.556
 21
8.61826
 31
0.0
  0
LINE
  8
0
 62
     0
 10
282.556
 20
8.61826
 30
0.0
 11
268.556
 21
8.61826
 31
0.0
  0
LINE
  8
0
 62
     0
 10
268.556
 20
8.61826
 30
0.0
 11
268.556
 21
22.6191
 31
0.0
  0
LINE
  8
0
 62
     0
 10
18.525
 20
41.6691
 30
0.0
 11
18.525
 21
36.9686
 31
0.0
  0
LINE
  8
0
 62
     0
 10
18.525
 20
36.9686
 30
0.0
 11
16.9995
 21
36.9686
 31
0.0
  0
LINE
  8
0
 62
     0
 10
16.9995
 20
36.9686
 30
0.0
 11
16.9995
 21
40.1987
 31
0.0
  0
LINE
  8
0
 62
     0
 10
16.9995
 20
40.1987
 30
0.0
 11
10.2499
 21
40.1987
 31
0.0
  0
LINE
  8
0
 62
     0
 10
10.2499
 20
40.1987
 30
0.0
 11
10.2499
 21
36.9686
 31
0.0
  0
LINE
  8
0
 62
     0
 10
10.2499
 20
36.9686
 30
0.0
 11
9.42439
 21
36.9686
 31
0.0
  0
LINE
  8
0
 62
     0
 10
9.42439
 20
36.9686
 30
0.0
 11
9.42439
 21
34.1685
 31
0.0
  0
LINE
  8
0
 62
     0
 10
9.42439
 20
34.1685
 30
0.0
 11
10.2499
 21
34.1685
 31
0.0
  0
LINE
  8
0
 62
     0
 10
10.2499
 20
34.1685
 30
0.0
 11
10.2499
 21
27.8984
 31
0.0
  0
LINE
  8
0
 62
     0
 10
10.2499
 20
27.8984
 30
0.0
 11
11.9751
 21
27.8984
 31
0.0
  0
LINE
  8
0
 62
     0
 10
11.9751
 20
27.8984
 30
0.0
 11
11.9751
 21
26.6981
 31
0.0
  0
LINE
  8
0
 62
     0
 10
11.9751
 20
26.6981
 30
0.0
 11
15.2742
 21
26.6981
 31
0.0
  0
LINE
  8
0
 62
     0
 10
15.2742
 20
26.6981
 30
0.0
 11
15.2742
 21
27.8984
 31
0.0
  0
LINE
  8
0
 62
     0
 10
15.2742
 20
27.8984
 30
0.0
 11
16.9995
 21
27.8984
 31
0.0
  0
LINE
  8
0
 62
     0
 10
16.9995
 20
27.8984
 30
0.0
 11
16.9995
 21
32.3687
 31
0.0
  0
LINE
  8
0
 62
     0
 10
16.9995
 20
32.3687
 30
0.0
 11
18.525
 21
32.3687
 31
0.0
  0
LINE
  8
0
 62
     0
 10
18.525
 20
32.3687
 30
0.0
 11
18.525
 21
27.6683
 31
0.0
  0
LINE
  8
0
 62
     0
 10
18.525
 20
27.6683
 30
0.0
 11
32.5245
 21
27.6683
 31
0.0
  0
LINE
  8
0
 62
     0
 10
32.5245
 20
27.6683
 30
0.0
 11
32.5245
 21
32.3687
 31
0.0
  0
LINE
  8
0
 62
     0
 10
32.5245
 20
32.3687
 30
0.0
 11
34.0499
 21
32.3687
 31
0.0
  0
LINE
  8
0
 62
     0
 10
34.0499
 20
32.3687
 30
0.0
 11
34.0499
 21
27.8984
 31
0.0
  0
LINE
  8
0
 62
     0
 10
34.0499
 20
27.8984
 30
0.0
 11
35.7752
 21
27.8984
 31
0.0
  0
LINE
  8
0
 62
     0
 10
35.7752
 20
27.8984
 30
0.0
 11
35.7752
 21
26.6981
 31
0.0
  0
LINE
  8
0
 62
     0
 10
35.7752
 20
26.6981
 30
0.0
 11
39.0744
 21
26.6981
 31
0.0
  0
LINE
  8
0
 62
     0
 10
39.0744
 20
26.6981
 30
0.0
 11
39.0744
 21
27.8984
 31
0.0
  0
LINE
  8
0
 62
     0
 10
39.0744
 20
27.8984
 30
0.0
 11
40.7995
 21
27.8984
 31
0.0
  0
LINE
  8
0
 62
     0
 10
40.7995
 20
27.8984
 30
0.0
 11
40.7995
 21
34.1685
 31
0.0
  0
LINE
  8
0
 62
     0
 10
40.7995
 20
34.1685
 30
0.0
 11
41.625
 21
34.1685
 31
0.0
  0
LINE
  8
0
 62
     0
 10
41.625
 20
34.1685
 30
0.0
 11
41.625
 21
36.9686
 31
0.0
  0
LINE
  8
0
 62
     0
 10
41.625
 20
36.9686
 30
0.0
 11
40.7995
 21
36.9686
 31
0.0
  0
LINE
  8
0
 62
     0
 10
40.7995
 20
36.9686
 30
0.0
 11
40.7995
 21
40.1987
 31
0.0
  0
LINE
  8
0
 62
     0
 10
40.7995
 20
40.1987
 30
0.0
 11
34.0499
 21
40.1987
 31
0.0
  0
LINE
  8
0
 62
     0
 10
34.0499
 20
40.1987
 30
0.0
 11
34.0499
 21
36.9686
 31
0.0
  0
LINE
  8
0
 62
     0
 10
34.0499
 20
36.9686
 30
0.0
 11
32.5245
 21
36.9686
 31
0.0
  0
LINE
  8
0
 62
     0
 10
32.5245
 20
36.9686
 30
0.0
 11
32.5245
 21
41.6691
 31
0.0
  0
LINE
  8
0
 62
     0
 10
32.5245
 20
41.6691
 30
0.0
 11
18.525
 21
41.6691
 31
0.0
  0
LINE
  8
0
 62
     0
 10
256.649
 20
41.6691
 30
0.0
 11
256.649
 21
36.9686
 31
0.0
  0
LINE
  8
0
 62
     0
 10
256.649
 20
36.9686
 30
0.0
 11
255.125
 21
36.9686
 31
0.0
  0
LINE
  8
0
 62
     0
 10
255.125
 20
36.9686
 30
0.0
 11
255.125
 21
40.1987
 31
0.0
  0
LINE
  8
0
 62
     0
 10
255.125
 20
40.1987
 30
0.0
 11
248.375
 21
40.1987
 31
0.0
  0
LINE
  8
0
 62
     0
 10
248.375
 20
40.1987
 30
0.0
 11
248.375
 21
36.9686
 31
0.0
  0
LINE
  8
0
 62
     0
 10
248.375
 20
36.9686
 30
0.0
 11
247.549
 21
36.9686
 31
0.0
  0
LINE
  8
0
 62
     0
 10
247.549
 20
36.9686
 30
0.0
 11
247.549
 21
34.1685
 31
0.0
  0
LINE
  8
0
 62
     0
 10
247.549
 20
34.1685
 30
0.0
 11
248.375
 21
34.1685
 31
0.0
  0
LINE
  8
0
 62
     0
 10
248.375
 20
34.1685
 30
0.0
 11
248.375
 21
27.8984
 31
0.0
  0
LINE
  8
0
 62
     0
 10
248.375
 20
27.8984
 30
0.0
 11
250.1
 21
27.8984
 31
0.0
  0
LINE
  8
0
 62
     0
 10
250.1
 20
27.8984
 30
0.0
 11
250.1
 21
26.6981
 31
0.0
  0
LINE
  8
0
 62
     0
 10
250.1
 20
26.6981
 30
0.0
 11
253.399
 21
26.6981
 31
0.0
  0
LINE
  8
0
 62
     0
 10
253.399
 20
26.6981
 30
0.0
 11
253.399
 21
27.8984
 31
0.0
  0
LINE
  8
0
 62
     0
 10
253.399
 20
27.8984
 30
0.0
 11
255.125
 21
27.8984
 31
0.0
  0
LINE
  8
0
 62
     0
 10
255.125
 20
27.8984
 30
0.0
 11
255.125
 21
32.3687
 31
0.0
  0
LINE
  8
0
 62
     0
 10
255.125
 20
32.3687
 30
0.0
 11
256.649
 21
32.3687
 31
0.0
  0
LINE
  8
0
 62
     0
 10
256.649
 20
32.3687
 30
0.0
 11
256.649
 21
27.6683
 31
0.0
  0
LINE
  8
0
 62
     0
 10
256.649
 20
27.6683
 30
0.0
 11
270.649
 21
27.6683
 31
0.0
  0
LINE
  8
0
 62
     0
 10
270.649
 20
27.6683
 30
0.0
 11
270.649
 21
32.3687
 31
0.0
  0
LINE
  8
0
 62
     0
 10
270.649
 20
32.3687
 30
0.0
 11
272.175
 21
32.3687
 31
0.0
  0
LINE
  8
0
 62
     0
 10
272.175
 20
32.3687
 30
0.0
 11
272.175
 21
27.8984
 31
0.0
  0
LINE
  8
0
 62
     0
 10
272.175
 20
27.8984
 30
0.0
 11
273.9
 21
27.8984
 31
0.0
  0
LINE
  8
0
 62
     0
 10
273.9
 20
27.8984
 30
0.0
 11
273.9
 21
26.6981
 31
0.0
  0
LINE
  8
0
 62
     0
 10
273.9
 20
26.6981
 30
0.0
 11
277.199
 21
26.6981
 31
0.0
  0
LINE
  8
0
 62
     0
 10
277.199
 20
26.6981
 30
0.0
 11
277.199
 21
27.8984
 31
0.0
  0
LINE
  8
0
 62
     0
 10
277.199
 20
27.8984
 30
0.0
 11
278.924
 21
27.8984
 31
0.0
  0
LINE
  8
0
 62
     0
 10
278.924
 20
27.8984
 30
0.0
 11
278.924
 21
34.1685
 31
0.0
  0
LINE
  8
0
 62
     0
 10
278.924
 20
34.1685
 30
0.0
 11
279.75
 21
34.1685
 31
0.0
  0
LINE
  8
0
 62
     0
 10
279.75
 20
34.1685
 30
0.0
 11
279.75
 21
36.9686
 31
0.0
  0
LINE
  8
0
 62
     0
 10
279.75
 20
36.9686
 30
0.0
 11
278.924
 21
36.9686
 31
0.0
  0
LINE
  8
0
 62
     0
 10
278.924
 20
36.9686
 30
0.0
 11
278.924
 21
40.1987
 31
0.0
  0
LINE
  8
0
 62
     0
 10
278.924
 20
40.1987
 30
0.0
 11
272.175
 21
40.1987
 31
0.0
  0
LINE
  8
0
 62
     0
 10
272.175
 20
40.1987
 30
0.0
 11
272.175
 21
36.9686
 31
0.0
  0
LINE
  8
0
 62
     0
 10
272.175
 20
36.9686
 30
0.0
 11
270.649
 21
36.9686
 31
0.0
  0
LINE
  8
0
 62
     0
 10
270.649
 20
36.9686
 30
0.0
 11
270.649
 21
41.6691
 31
0.0
  0
LINE
  8
0
 62
     0
 10
270.649
 20
41.6691
 30
0.0
 11
256.649
 21
41.6691
 31
0.0
  0
LINE
  8
0
 62
     0
 10
49.4813
 20
41.6691
 30
0.0
 11
63.4806
 21
41.6691
 31
0.0
  0
LINE
  8
0
 62
     0
 10
63.4806
 20
41.6691
 30
0.0
 11
63.4806
 21
27.6683
 31
0.0
  0
LINE
  8
0
 62
     0
 10
63.4806
 20
27.6683
 30
0.0
 11
49.4813
 21
27.6683
 31
0.0
  0
LINE
  8
0
 62
     0
 10
49.4813
 20
27.6683
 30
0.0
 11
49.4813
 21
41.6691
 31
0.0
  0
LINE
  8
0
 62
     0
 10
68.5313
 20
41.6691
 30
0.0
 11
82.5306
 21
41.6691
 31
0.0
  0
LINE
  8
0
 62
     0
 10
82.5306
 20
41.6691
 30
0.0
 11
82.5306
 21
27.6683
 31
0.0
  0
LINE
  8
0
 62
     0
 10
82.5306
 20
27.6683
 30
0.0
 11
68.5313
 21
27.6683
 31
0.0
  0
LINE
  8
0
 62
     0
 10
68.5313
 20
27.6683
 30
0.0
 11
68.5313
 21
41.6691
 31
0.0
  0
LINE
  8
0
 62
     0
 10
87.5813
 20
41.6691
 30
0.0
 11
101.581
 21
41.6691
 31
0.0
  0
LINE
  8
0
 62
     0
 10
101.581
 20
41.6691
 30
0.0
 11
101.581
 21
27.6683
 31
0.0
  0
LINE
  8
0
 62
     0
 10
101.581
 20
27.6683
 30
0.0
 11
87.5813
 21
27.6683
 31
0.0
  0
LINE
  8
0
 62
     0
 10
87.5813
 20
27.6683
 30
0.0
 11
87.5813
 21
41.6691
 31
0.0
  0
LINE
  8
0
 62
     0
 10
106.631
 20
41.6691
 30
0.0
 11
120.631
 21
41.6691
 31
0.0
  0
LINE
  8
0
 62
     0
 10
120.631
 20
41.6691
 30
0.0
 11
120.631
 21
27.6683
 31
0.0
  0
LINE
  8
0
 62
     0
 10
120.631
 20
27.6683
 30
0.0
 11
106.631
 21
27.6683
 31
0.0
  0
LINE
  8
0
 62
     0
 10
106.631
 20
27.6683
 30
0.0
 11
106.631
 21
41.6691
 31
0.0
  0
LINE
  8
0
 62
     0
 10
125.68
 20
41.6691
 30
0.0
 11
139.681
 21
41.6691
 31
0.0
  0
LINE
  8
0
 62
     0
 10
139.681
 20
41.6691
 30
0.0
 11
139.681
 21
27.6683
 31
0.0
  0
LINE
  8
0
 62
     0
 10
139.681
 20
27.6683
 30
0.0
 11
125.68
 21
27.6683
 31
0.0
  0
LINE
  8
0
 62
     0
 10
125.68
 20
27.6683
 30
0.0
 11
125.68
 21
41.6691
 31
0.0
  0
LINE
  8
0
 62
     0
 10
144.731
 20
41.6691
 30
0.0
 11
158.731
 21
41.6691
 31
0.0
  0
LINE
  8
0
 62
     0
 10
158.731
 20
41.6691
 30
0.0
 11
158.731
 21
27.6683
 31
0.0
  0
LINE
  8
0
 62
     0
 10
158.731
 20
27.6683
 30
0.0
 11
144.731
 21
27.6683
 31
0.0
  0
LINE
  8
0
 62
     0
 10
144.731
 20
27.6683
 30
0.0
 11
144.731
 21
41.6691
 31
0.0
  0
LINE
  8
0
 62
     0
 10
163.781
 20
41.6691
 30
0.0
 11
177.781
 21
41.6691
 31
0.0
  0
LINE
  8
0
 62
     0
 10
177.781
 20
41.6691
 30
0.0
 11
177.781
 21
27.6683
 31
0.0
  0
LINE
  8
0
 62
     0
 10
177.781
 20
27.6683
 30
0.0
 11
163.781
 21
27.6683
 31
0.0
  0
LINE
  8
0
 62
     0
 10
163.781
 20
27.6683
 30
0.0
 11
163.781
 21
41.6691
 31
0.0
  0
LINE
  8
0
 62
     0
 10
182.831
 20
41.6691
 30
0.0
 11
196.831
 21
41.6691
 31
0.0
  0
LINE
  8
0
 62
     0
 10
196.831
 20
41.6691
 30
0.0
 11
196.831
 21
27.6683
 31
0.0
  0
LINE
  8
0
 62
     0
 10
196.831
 20
27.6683
 30
0.0
 11
182.831
 21
27.6683
 31
0.0
  0
LINE
  8
0
 62
     0
 10
182.831
 20
27.6683
 30
0.0
 11
182.831
 21
41.6691
 31
0.0
  0
LINE
  8
0
 62
     0
 10
201.881
 20
41.6691
 30
0.0
 11
215.881
 21
41.6691
 31
0.0
  0
LINE
  8
0
 62
     0
 10
215.881
 20
41.6691
 30
0.0
 11
215.881
 21
27.6683
 31
0.0
  0
LINE
  8
0
 62
     0
 10
215.881
 20
27.6683
 30
0.0
 11
201.881
 21
27.6683
 31
0.0
  0
LINE
  8
0
 62
     0
 10
201.881
 20
27.6683
 30
0.0
 11
201.881
 21
41.6691
 31
0.0
  0
LINE
  8
0
 62
     0
 10
220.931
 20
41.6691
 30
0.0
 11
234.931
 21
41.6691
 31
0.0
  0
LINE
  8
0
 62
     0
 10
234.931
 20
41.6691
 30
0.0
 11
234.931
 21
27.6683
 31
0.0
  0
LINE
  8
0
 62
     0
 10
234.931
 20
27.6683
 30
0.0
 11
220.931
 21
27.6683
 31
0.0
  0
LINE
  8
0
 62
     0
 10
220.931
 20
27.6683
 30
0.0
 11
220.931
 21
41.6691
 31
0.0
  0
LINE
  8
0
 62
     0
 10
261.411
 20
60.7191
 30
0.0
 11
261.411
 21
56.0186
 31
0.0
  0
LINE
  8
0
 62
     0
 10
261.411
 20
56.0186
 30
0.0
 11
259.887
 21
56.0186
 31
0.0
  0
LINE
  8
0
 62
     0
 10
259.887
 20
56.0186
 30
0.0
 11
259.887
 21
59.2487
 31
0.0
  0
LINE
  8
0
 62
     0
 10
259.887
 20
59.2487
 30
0.0
 11
253.137
 21
59.2487
 31
0.0
  0
LINE
  8
0
 62
     0
 10
253.137
 20
59.2487
 30
0.0
 11
253.137
 21
56.0186
 31
0.0
  0
LINE
  8
0
 62
     0
 10
253.137
 20
56.0186
 30
0.0
 11
252.312
 21
56.0186
 31
0.0
  0
LINE
  8
0
 62
     0
 10
252.312
 20
56.0186
 30
0.0
 11
252.312
 21
53.2183
 31
0.0
  0
LINE
  8
0
 62
     0
 10
252.312
 20
53.2183
 30
0.0
 11
253.137
 21
53.2183
 31
0.0
  0
LINE
  8
0
 62
     0
 10
253.137
 20
53.2183
 30
0.0
 11
253.137
 21
46.9498
 31
0.0
  0
LINE
  8
0
 62
     0
 10
253.137
 20
46.9498
 30
0.0
 11
254.861
 21
46.9498
 31
0.0
  0
LINE
  8
0
 62
     0
 10
254.861
 20
46.9498
 30
0.0
 11
254.861
 21
45.7482
 31
0.0
  0
LINE
  8
0
 62
     0
 10
254.861
 20
45.7482
 30
0.0
 11
258.162
 21
45.7482
 31
0.0
  0
LINE
  8
0
 62
     0
 10
258.162
 20
45.7482
 30
0.0
 11
258.162
 21
46.9498
 31
0.0
  0
LINE
  8
0
 62
     0
 10
258.162
 20
46.9498
 30
0.0
 11
259.887
 21
46.9498
 31
0.0
  0
LINE
  8
0
 62
     0
 10
259.887
 20
46.9498
 30
0.0
 11
259.887
 21
51.4188
 31
0.0
  0
LINE
  8
0
 62
     0
 10
259.887
 20
51.4188
 30
0.0
 11
261.411
 21
51.4188
 31
0.0
  0
LINE
  8
0
 62
     0
 10
261.411
 20
51.4188
 30
0.0
 11
261.411
 21
46.7184
 31
0.0
  0
LINE
  8
0
 62
     0
 10
261.411
 20
46.7184
 30
0.0
 11
275.412
 21
46.7184
 31
0.0
  0
LINE
  8
0
 62
     0
 10
275.412
 20
46.7184
 30
0.0
 11
275.412
 21
51.4188
 31
0.0
  0
LINE
  8
0
 62
     0
 10
275.412
 20
51.4188
 30
0.0
 11
276.936
 21
51.4188
 31
0.0
  0
LINE
  8
0
 62
     0
 10
276.936
 20
51.4188
 30
0.0
 11
276.936
 21
46.9498
 31
0.0
  0
LINE
  8
0
 62
     0
 10
276.936
 20
46.9498
 30
0.0
 11
278.661
 21
46.9498
 31
0.0
  0
LINE
  8
0
 62
     0
 10
278.661
 20
46.9498
 30
0.0
 11
278.661
 21
45.7482
 31
0.0
  0
LINE
  8
0
 62
     0
 10
278.661
 20
45.7482
 30
0.0
 11
281.962
 21
45.7482
 31
0.0
  0
LINE
  8
0
 62
     0
 10
281.962
 20
45.7482
 30
0.0
 11
281.962
 21
46.9498
 31
0.0
  0
LINE
  8
0
 62
     0
 10
281.962
 20
46.9498
 30
0.0
 11
283.687
 21
46.9498
 31
0.0
  0
LINE
  8
0
 62
     0
 10
283.687
 20
46.9498
 30
0.0
 11
283.687
 21
53.2183
 31
0.0
  0
LINE
  8
0
 62
     0
 10
283.687
 20
53.2183
 30
0.0
 11
284.511
 21
53.2183
 31
0.0
  0
LINE
  8
0
 62
     0
 10
284.511
 20
53.2183
 30
0.0
 11
284.511
 21
56.0186
 31
0.0
  0
LINE
  8
0
 62
     0
 10
284.511
 20
56.0186
 30
0.0
 11
283.687
 21
56.0186
 31
0.0
  0
LINE
  8
0
 62
     0
 10
283.687
 20
56.0186
 30
0.0
 11
283.687
 21
59.2487
 31
0.0
  0
LINE
  8
0
 62
     0
 10
283.687
 20
59.2487
 30
0.0
 11
276.936
 21
59.2487
 31
0.0
  0
LINE
  8
0
 62
     0
 10
276.936
 20
59.2487
 30
0.0
 11
276.936
 21
56.0186
 31
0.0
  0
LINE
  8
0
 62
     0
 10
276.936
 20
56.0186
 30
0.0
 11
275.412
 21
56.0186
 31
0.0
  0
LINE
  8
0
 62
     0
 10
275.412
 20
56.0186
 30
0.0
 11
275.412
 21
60.7191
 31
0.0
  0
LINE
  8
0
 62
     0
 10
275.412
 20
60.7191
 30
0.0
 11
261.411
 21
60.7191
 31
0.0
  0
LINE
  8
0
 62
     0
 10
13.7611
 20
60.7191
 30
0.0
 11
27.762
 21
60.7191
 31
0.0
  0
LINE
  8
0
 62
     0
 10
27.762
 20
60.7191
 30
0.0
 11
27.762
 21
46.7184
 31
0.0
  0
LINE
  8
0
 62
     0
 10
27.762
 20
46.7184
 30
0.0
 11
13.7611
 21
46.7184
 31
0.0
  0
LINE
  8
0
 62
     0
 10
13.7611
 20
46.7184
 30
0.0
 11
13.7611
 21
60.7191
 31
0.0
  0
LINE
  8
0
 62
     0
 10
39.9563
 20
60.7191
 30
0.0
 11
53.9556
 21
60.7191
 31
0.0
  0
LINE
  8
0
 62
     0
 10
53.9556
 20
60.7191
 30
0.0
 11
53.9556
 21
46.7184
 31
0.0
  0
LINE
  8
0
 62
     0
 10
53.9556
 20
46.7184
 30
0.0
 11
39.9563
 21
46.7184
 31
0.0
  0
LINE
  8
0
 62
     0
 10
39.9563
 20
46.7184
 30
0.0
 11
39.9563
 21
60.7191
 31
0.0
  0
LINE
  8
0
 62
     0
 10
59.0063
 20
60.7191
 30
0.0
 11
73.0056
 21
60.7191
 31
0.0
  0
LINE
  8
0
 62
     0
 10
73.0056
 20
60.7191
 30
0.0
 11
73.0056
 21
46.7184
 31
0.0
  0
LINE
  8
0
 62
     0
 10
73.0056
 20
46.7184
 30
0.0
 11
59.0063
 21
46.7184
 31
0.0
  0
LINE
  8
0
 62
     0
 10
59.0063
 20
46.7184
 30
0.0
 11
59.0063
 21
60.7191
 31
0.0
  0
LINE
  8
0
 62
     0
 10
78.0563
 20
60.7191
 30
0.0
 11
92.0556
 21
60.7191
 31
0.0
  0
LINE
  8
0
 62
     0
 10
92.0556
 20
60.7191
 30
0.0
 11
92.0556
 21
46.7184
 31
0.0
  0
LINE
  8
0
 62
     0
 10
92.0556
 20
46.7184
 30
0.0
 11
78.0563
 21
46.7184
 31
0.0
  0
LINE
  8
0
 62
     0
 10
78.0563
 20
46.7184
 30
0.0
 11
78.0563
 21
60.7191
 31
0.0
  0
LINE
  8
0
 62
     0
 10
97.1063
 20
60.7191
 30
0.0
 11
111.106
 21
60.7191
 31
0.0
  0
LINE
  8
0
 62
     0
 10
111.106
 20
60.7191
 30
0.0
 11
111.106
 21
46.7184
 31
0.0
  0
LINE
  8
0
 62
     0
 10
111.106
 20
46.7184
 30
0.0
 11
97.1063
 21
46.7184
 31
0.0
  0
LINE
  8
0
 62
     0
 10
97.1063
 20
46.7184
 30
0.0
 11
97.1063
 21
60.7191
 31
0.0
  0
LINE
  8
0
 62
     0
 10
116.156
 20
60.7191
 30
0.0
 11
130.156
 21
60.7191
 31
0.0
  0
LINE
  8
0
 62
     0
 10
130.156
 20
60.7191
 30
0.0
 11
130.156
 21
46.7184
 31
0.0
  0
LINE
  8
0
 62
     0
 10
130.156
 20
46.7184
 30
0.0
 11
116.156
 21
46.7184
 31
0.0
  0
LINE
  8
0
 62
     0
 10
116.156
 20
46.7184
 30
0.0
 11
116.156
 21
60.7191
 31
0.0
  0
LINE
  8
0
 62
     0
 10
135.206
 20
60.7191
 30
0.0
 11
149.206
 21
60.7191
 31
0.0
  0
LINE
  8
0
 62
     0
 10
149.206
 20
60.7191
 30
0.0
 11
149.206
 21
46.7184
 31
0.0
  0
LINE
  8
0
 62
     0
 10
149.206
 20
46.7184
 30
0.0
 11
135.206
 21
46.7184
 31
0.0
  0
LINE
  8
0
 62
     0
 10
135.206
 20
46.7184
 30
0.0
 11
135.206
 21
60.7191
 31
0.0
  0
LINE
  8
0
 62
     0
 10
154.256
 20
60.7191
 30
0.0
 11
168.256
 21
60.7191
 31
0.0
  0
LINE
  8
0
 62
     0
 10
168.256
 20
60.7191
 30
0.0
 11
168.256
 21
46.7184
 31
0.0
  0
LINE
  8
0
 62
     0
 10
168.256
 20
46.7184
 30
0.0
 11
154.256
 21
46.7184
 31
0.0
  0
LINE
  8
0
 62
     0
 10
154.256
 20
46.7184
 30
0.0
 11
154.256
 21
60.7191
 31
0.0
  0
LINE
  8
0
 62
     0
 10
173.306
 20
60.7191
 30
0.0
 11
187.306
 21
60.7191
 31
0.0
  0
LINE
  8
0
 62
     0
 10
187.306
 20
60.7191
 30
0.0
 11
187.306
 21
46.7184
 31
0.0
  0
LINE
  8
0
 62
     0
 10
187.306
 20
46.7184
 30
0.0
 11
173.306
 21
46.7184
 31
0.0
  0
LINE
  8
0
 62
     0
 10
173.306
 20
46.7184
 30
0.0
 11
173.306
 21
60.7191
 31
0.0
  0
LINE
  8
0
 62
     0
 10
192.356
 20
60.7191
 30
0.0
 11
206.356
 21
60.7191
 31
0.0
  0
LINE
  8
0
 62
     0
 10
206.356
 20
60.7191
 30
0.0
 11
206.356
 21
46.7184
 31
0.0
  0
LINE
  8
0
 62
     0
 10
206.356
 20
46.7184
 30
0.0
 11
192.356
 21
46.7184
 31
0.0
  0
LINE
  8
0
 62
     0
 10
192.356
 20
46.7184
 30
0.0
 11
192.356
 21
60.7191
 31
0.0
  0
LINE
  8
0
 62
     0
 10
211.406
 20
60.7191
 30
0.0
 11
225.406
 21
60.7191
 31
0.0
  0
LINE
  8
0
 62
     0
 10
225.406
 20
60.7191
 30
0.0
 11
225.406
 21
46.7184
 31
0.0
  0
LINE
  8
0
 62
     0
 10
225.406
 20
46.7184
 30
0.0
 11
211.406
 21
46.7184
 31
0.0
  0
LINE
  8
0
 62
     0
 10
211.406
 20
46.7184
 30
0.0
 11
211.406
 21
60.7191
 31
0.0
  0
LINE
  8
0
 62
     0
 10
230.456
 20
60.7191
 30
0.0
 11
244.456
 21
60.7191
 31
0.0
  0
LINE
  8
0
 62
     0
 10
244.456
 20
60.7191
 30
0.0
 11
244.456
 21
46.7184
 31
0.0
  0
LINE
  8
0
 62
     0
 10
244.456
 20
46.7184
 30
0.0
 11
230.456
 21
46.7184
 31
0.0
  0
LINE
  8
0
 62
     0
 10
230.456
 20
46.7184
 30
0.0
 11
230.456
 21
60.7191
 31
0.0
  0
LINE
  8
0
 62
     0
 10
11.3798
 20
79.7691
 30
0.0
 11
25.3807
 21
79.7691
 31
0.0
  0
LINE
  8
0
 62
     0
 10
25.3807
 20
79.7691
 30
0.0
 11
25.3807
 21
65.7684
 31
0.0
  0
LINE
  8
0
 62
     0
 10
25.3807
 20
65.7684
 30
0.0
 11
11.3798
 21
65.7684
 31
0.0
  0
LINE
  8
0
 62
     0
 10
11.3798
 20
65.7684
 30
0.0
 11
11.3798
 21
79.7691
 31
0.0
  0
LINE
  8
0
 62
     0
 10
35.1937
 20
79.7691
 30
0.0
 11
49.1931
 21
79.7691
 31
0.0
  0
LINE
  8
0
 62
     0
 10
49.1931
 20
79.7691
 30
0.0
 11
49.1931
 21
65.7684
 31
0.0
  0
LINE
  8
0
 62
     0
 10
49.1931
 20
65.7684
 30
0.0
 11
35.1937
 21
65.7684
 31
0.0
  0
LINE
  8
0
 62
     0
 10
35.1937
 20
65.7684
 30
0.0
 11
35.1937
 21
79.7691
 31
0.0
  0
LINE
  8
0
 62
     0
 10
54.2438
 20
79.7691
 30
0.0
 11
68.2431
 21
79.7691
 31
0.0
  0
LINE
  8
0
 62
     0
 10
68.2431
 20
79.7691
 30
0.0
 11
68.2431
 21
65.7684
 31
0.0
  0
LINE
  8
0
 62
     0
 10
68.2431
 20
65.7684
 30
0.0
 11
54.2438
 21
65.7684
 31
0.0
  0
LINE
  8
0
 62
     0
 10
54.2438
 20
65.7684
 30
0.0
 11
54.2438
 21
79.7691
 31
0.0
  0
LINE
  8
0
 62
     0
 10
73.2938
 20
79.7691
 30
0.0
 11
87.2931
 21
79.7691
 31
0.0
  0
LINE
  8
0
 62
     0
 10
87.2931
 20
79.7691
 30
0.0
 11
87.2931
 21
65.7684
 31
0.0
  0
LINE
  8
0
 62
     0
 10
87.2931
 20
65.7684
 30
0.0
 11
73.2938
 21
65.7684
 31
0.0
  0
LINE
  8
0
 62
     0
 10
73.2938
 20
65.7684
 30
0.0
 11
73.2938
 21
79.7691
 31
0.0
  0
LINE
  8
0
 62
     0
 10
92.3438
 20
79.7691
 30
0.0
 11
106.343
 21
79.7691
 31
0.0
  0
LINE
  8
0
 62
     0
 10
106.343
 20
79.7691
 30
0.0
 11
106.343
 21
65.7684
 31
0.0
  0
LINE
  8
0
 62
     0
 10
106.343
 20
65.7684
 30
0.0
 11
92.3438
 21
65.7684
 31
0.0
  0
LINE
  8
0
 62
     0
 10
92.3438
 20
65.7684
 30
0.0
 11
92.3438
 21
79.7691
 31
0.0
  0
LINE
  8
0
 62
     0
 10
111.394
 20
79.7691
 30
0.0
 11
125.393
 21
79.7691
 31
0.0
  0
LINE
  8
0
 62
     0
 10
125.393
 20
79.7691
 30
0.0
 11
125.393
 21
65.7684
 31
0.0
  0
LINE
  8
0
 62
     0
 10
125.393
 20
65.7684
 30
0.0
 11
111.394
 21
65.7684
 31
0.0
  0
LINE
  8
0
 62
     0
 10
111.394
 20
65.7684
 30
0.0
 11
111.394
 21
79.7691
 31
0.0
  0
LINE
  8
0
 62
     0
 10
130.444
 20
79.7691
 30
0.0
 11
144.443
 21
79.7691
 31
0.0
  0
LINE
  8
0
 62
     0
 10
144.443
 20
79.7691
 30
0.0
 11
144.443
 21
65.7684
 31
0.0
  0
LINE
  8
0
 62
     0
 10
144.443
 20
65.7684
 30
0.0
 11
130.444
 21
65.7684
 31
0.0
  0
LINE
  8
0
 62
     0
 10
130.444
 20
65.7684
 30
0.0
 11
130.444
 21
79.7691
 31
0.0
  0
LINE
  8
0
 62
     0
 10
149.494
 20
79.7691
 30
0.0
 11
163.493
 21
79.7691
 31
0.0
  0
LINE
  8
0
 62
     0
 10
163.493
 20
79.7691
 30
0.0
 11
163.493
 21
65.7684
 31
0.0
  0
LINE
  8
0
 62
     0
 10
163.493
 20
65.7684
 30
0.0
 11
149.494
 21
65.7684
 31
0.0
  0
LINE
  8
0
 62
     0
 10
149.494
 20
65.7684
 30
0.0
 11
149.494
 21
79.7691
 31
0.0
  0
LINE
  8
0
 62
     0
 10
168.544
 20
79.7691
 30
0.0
 11
182.543
 21
79.7691
 31
0.0
  0
LINE
  8
0
 62
     0
 10
182.543
 20
79.7691
 30
0.0
 11
182.543
 21
65.7684
 31
0.0
  0
LINE
  8
0
 62
     0
 10
182.543
 20
65.7684
 30
0.0
 11
168.544
 21
65.7684
 31
0.0
  0
LINE
  8
0
 62
     0
 10
168.544
 20
65.7684
 30
0.0
 11
168.544
 21
79.7691
 31
0.0
  0
LINE
  8
0
 62
     0
 10
187.594
 20
79.7691
 30
0.0
 11
201.593
 21
79.7691
 31
0.0
  0
LINE
  8
0
 62
     0
 10
201.593
 20
79.7691
 30
0.0
 11
201.593
 21
65.7684
 31
0.0
  0
LINE
  8
0
 62
     0
 10
201.593
 20
65.7684
 30
0.0
 11
187.594
 21
65.7684
 31
0.0
  0
LINE
  8
0
 62
     0
 10
187.594
 20
65.7684
 30
0.0
 11
187.594
 21
79.7691
 31
0.0
  0
LINE
  8
0
 62
     0
 10
206.644
 20
79.7691
 30
0.0
 11
220.643
 21
79.7691
 31
0.0
  0
LINE
  8
0
 62
     0
 10
220.643
 20
79.7691
 30
0.0
 11
220.643
 21
65.7684
 31
0.0
  0
LINE
  8
0
 62
     0
 10
220.643
 20
65.7684
 30
0.0
 11
206.644
 21
65.7684
 31
0.0
  0
LINE
  8
0
 62
     0
 10
206.644
 20
65.7684
 30
0.0
 11
206.644
 21
79.7691
 31
0.0
  0
LINE
  8
0
 62
     0
 10
225.694
 20
79.7691
 30
0.0
 11
239.693
 21
79.7691
 31
0.0
  0
LINE
  8
0
 62
     0
 10
239.693
 20
79.7691
 30
0.0
 11
239.693
 21
65.7684
 31
0.0
  0
LINE
  8
0
 62
     0
 10
239.693
 20
65.7684
 30
0.0
 11
225.694
 21
65.7684
 31
0.0
  0
LINE
  8
0
 62
     0
 10
225.694
 20
65.7684
 30
0.0
 11
225.694
 21
79.7691
 31
0.0
  0
LINE
  8
0
 62
     0
 10
244.744
 20
79.7691
 30
0.0
 11
258.743
 21
79.7691
 31
0.0
  0
LINE
  8
0
 62
     0
 10
258.743
 20
79.7691
 30
0.0
 11
258.743
 21
65.7684
 31
0.0
  0
LINE
  8
0
 62
     0
 10
258.743
 20
65.7684
 30
0.0
 11
244.744
 21
65.7684
 31
0.0
  0
LINE
  8
0
 62
     0
 10
244.744
 20
65.7684
 30
0.0
 11
244.744
 21
79.7691
 31
0.0
  0
LINE
  8
0
 62
     0
 10
268.556
 20
79.7691
 30
0.0
 11
282.556
 21
79.7691
 31
0.0
  0
LINE
  8
0
 62
     0
 10
282.556
 20
79.7691
 30
0.0
 11
282.556
 21
65.7684
 31
0.0
  0
LINE
  8
0
 62
     0
 10
282.556
 20
65.7684
 30
0.0
 11
268.556
 21
65.7684
 31
0.0
  0
LINE
  8
0
 62
     0
 10
268.556
 20
65.7684
 30
0.0
 11
268.556
 21
79.7691
 31
0.0
  0
LINE
  8
0
 62
     0
 10
263.794
 20
98.8191
 30
0.0
 11
263.794
 21
94.1201
 31
0.0
  0
LINE
  8
0
 62
     0
 10
263.794
 20
94.1201
 30
0.0
 11
262.268
 21
94.1201
 31
0.0
  0
LINE
  8
0
 62
     0
 10
262.268
 20
94.1201
 30
0.0
 11
262.268
 21
97.3501
 31
0.0
  0
LINE
  8
0
 62
     0
 10
262.268
 20
97.3501
 30
0.0
 11
255.519
 21
97.3501
 31
0.0
  0
LINE
  8
0
 62
     0
 10
255.519
 20
97.3501
 30
0.0
 11
255.519
 21
94.1201
 31
0.0
  0
LINE
  8
0
 62
     0
 10
255.519
 20
94.1201
 30
0.0
 11
254.693
 21
94.1201
 31
0.0
  0
LINE
  8
0
 62
     0
 10
254.693
 20
94.1201
 30
0.0
 11
254.693
 21
91.3183
 31
0.0
  0
LINE
  8
0
 62
     0
 10
254.693
 20
91.3183
 30
0.0
 11
255.519
 21
91.3183
 31
0.0
  0
LINE
  8
0
 62
     0
 10
255.519
 20
91.3183
 30
0.0
 11
255.519
 21
85.0498
 31
0.0
  0
LINE
  8
0
 62
     0
 10
255.519
 20
85.0498
 30
0.0
 11
257.244
 21
85.0498
 31
0.0
  0
LINE
  8
0
 62
     0
 10
257.244
 20
85.0498
 30
0.0
 11
257.244
 21
83.8496
 31
0.0
  0
LINE
  8
0
 62
     0
 10
257.244
 20
83.8496
 30
0.0
 11
260.544
 21
83.8496
 31
0.0
  0
LINE
  8
0
 62
     0
 10
260.544
 20
83.8496
 30
0.0
 11
260.544
 21
85.0498
 31
0.0
  0
LINE
  8
0
 62
     0
 10
260.544
 20
85.0498
 30
0.0
 11
262.268
 21
85.0498
 31
0.0
  0
LINE
  8
0
 62
     0
 10
262.268
 20
85.0498
 30
0.0
 11
262.268
 21
89.5188
 31
0.0
  0
LINE
  8
0
 62
     0
 10
262.268
 20
89.5188
 30
0.0
 11
263.794
 21
89.5188
 31
0.0
  0
LINE
  8
0
 62
     0
 10
263.794
 20
89.5188
 30
0.0
 11
263.794
 21
84.8184
 31
0.0
  0
LINE
  8
0
 62
     0
 10
263.794
 20
84.8184
 30
0.0
 11
277.793
 21
84.8184
 31
0.0
  0
LINE
  8
0
 62
     0
 10
277.793
 20
84.8184
 30
0.0
 11
277.793
 21
89.5188
 31
0.0
  0
LINE
  8
0
 62
     0
 10
277.793
 20
89.5188
 30
0.0
 11
279.319
 21
89.5188
 31
0.0
  0
LINE
  8
0
 62
     0
 10
279.319
 20
89.5188
 30
0.0
 11
279.319
 21
85.0498
 31
0.0
  0
LINE
  8
0
 62
     0
 10
279.319
 20
85.0498
 30
0.0
 11
281.044
 21
85.0498
 31
0.0
  0
LINE
  8
0
 62
     0
 10
281.044
 20
85.0498
 30
0.0
 11
281.044
 21
83.8496
 31
0.0
  0
LINE
  8
0
 62
     0
 10
281.044
 20
83.8496
 30
0.0
 11
284.345
 21
83.8496
 31
0.0
  0
LINE
  8
0
 62
     0
 10
284.345
 20
83.8496
 30
0.0
 11
284.345
 21
85.0498
 31
0.0
  0
LINE
  8
0
 62
     0
 10
284.345
 20
85.0498
 30
0.0
 11
286.068
 21
85.0498
 31
0.0
  0
LINE
  8
0
 62
     0
 10
286.068
 20
85.0498
 30
0.0
 11
286.068
 21
91.3183
 31
0.0
  0
LINE
  8
0
 62
     0
 10
286.068
 20
91.3183
 30
0.0
 11
286.894
 21
91.3183
 31
0.0
  0
LINE
  8
0
 62
     0
 10
286.894
 20
91.3183
 30
0.0
 11
286.894
 21
94.1201
 31
0.0
  0
LINE
  8
0
 62
     0
 10
286.894
 20
94.1201
 30
0.0
 11
286.068
 21
94.1201
 31
0.0
  0
LINE
  8
0
 62
     0
 10
286.068
 20
94.1201
 30
0.0
 11
286.068
 21
97.3501
 31
0.0
  0
LINE
  8
0
 62
     0
 10
286.068
 20
97.3501
 30
0.0
 11
279.319
 21
97.3501
 31
0.0
  0
LINE
  8
0
 62
     0
 10
279.319
 20
97.3501
 30
0.0
 11
279.319
 21
94.1201
 31
0.0
  0
LINE
  8
0
 62
     0
 10
279.319
 20
94.1201
 30
0.0
 11
277.793
 21
94.1201
 31
0.0
  0
LINE
  8
0
 62
     0
 10
277.793
 20
94.1201
 30
0.0
 11
277.793
 21
98.8191
 31
0.0
  0
LINE
  8
0
 62
     0
 10
277.793
 20
98.8191
 30
0.0
 11
263.794
 21
98.8191
 31
0.0
  0
LINE
  8
0
 62
     0
 10
6.61733
 20
98.8191
 30
0.0
 11
20.6182
 21
98.8191
 31
0.0
  0
LINE
  8
0
 62
     0
 10
20.6182
 20
98.8191
 30
0.0
 11
20.6182
 21
84.8184
 31
0.0
  0
LINE
  8
0
 62
     0
 10
20.6182
 20
84.8184
 30
0.0
 11
6.61733
 21
84.8184
 31
0.0
  0
LINE
  8
0
 62
     0
 10
6.61733
 20
84.8184
 30
0.0
 11
6.61733
 21
98.8191
 31
0.0
  0
LINE
  8
0
 62
     0
 10
25.6687
 20
98.8191
 30
0.0
 11
39.6681
 21
98.8191
 31
0.0
  0
LINE
  8
0
 62
     0
 10
39.6681
 20
98.8191
 30
0.0
 11
39.6681
 21
84.8184
 31
0.0
  0
LINE
  8
0
 62
     0
 10
39.6681
 20
84.8184
 30
0.0
 11
25.6687
 21
84.8184
 31
0.0
  0
LINE
  8
0
 62
     0
 10
25.6687
 20
84.8184
 30
0.0
 11
25.6687
 21
98.8191
 31
0.0
  0
LINE
  8
0
 62
     0
 10
44.7188
 20
98.8191
 30
0.0
 11
58.7181
 21
98.8191
 31
0.0
  0
LINE
  8
0
 62
     0
 10
58.7181
 20
98.8191
 30
0.0
 11
58.7181
 21
84.8184
 31
0.0
  0
LINE
  8
0
 62
     0
 10
58.7181
 20
84.8184
 30
0.0
 11
44.7188
 21
84.8184
 31
0.0
  0
LINE
  8
0
 62
     0
 10
44.7188
 20
84.8184
 30
0.0
 11
44.7188
 21
98.8191
 31
0.0
  0
LINE
  8
0
 62
     0
 10
63.7688
 20
98.8191
 30
0.0
 11
77.7681
 21
98.8191
 31
0.0
  0
LINE
  8
0
 62
     0
 10
77.7681
 20
98.8191
 30
0.0
 11
77.7681
 21
84.8184
 31
0.0
  0
LINE
  8
0
 62
     0
 10
77.7681
 20
84.8184
 30
0.0
 11
63.7688
 21
84.8184
 31
0.0
  0
LINE
  8
0
 62
     0
 10
63.7688
 20
84.8184
 30
0.0
 11
63.7688
 21
98.8191
 31
0.0
  0
LINE
  8
0
 62
     0
 10
82.8188
 20
98.8191
 30
0.0
 11
96.8181
 21
98.8191
 31
0.0
  0
LINE
  8
0
 62
     0
 10
96.8181
 20
98.8191
 30
0.0
 11
96.8181
 21
84.8184
 31
0.0
  0
LINE
  8
0
 62
     0
 10
96.8181
 20
84.8184
 30
0.0
 11
82.8188
 21
84.8184
 31
0.0
  0
LINE
  8
0
 62
     0
 10
82.8188
 20
84.8184
 30
0.0
 11
82.8188
 21
98.8191
 31
0.0
  0
LINE
  8
0
 62
     0
 10
101.867
 20
98.8191
 30
0.0
 11
115.868
 21
98.8191
 31
0.0
  0
LINE
  8
0
 62
     0
 10
115.868
 20
98.8191
 30
0.0
 11
115.868
 21
84.8184
 31
0.0
  0
LINE
  8
0
 62
     0
 10
115.868
 20
84.8184
 30
0.0
 11
101.867
 21
84.8184
 31
0.0
  0
LINE
  8
0
 62
     0
 10
101.867
 20
84.8184
 30
0.0
 11
101.867
 21
98.8191
 31
0.0
  0
LINE
  8
0
 62
     0
 10
120.917
 20
98.8191
 30
0.0
 11
134.918
 21
98.8191
 31
0.0
  0
LINE
  8
0
 62
     0
 10
134.918
 20
98.8191
 30
0.0
 11
134.918
 21
84.8184
 31
0.0
  0
LINE
  8
0
 62
     0
 10
134.918
 20
84.8184
 30
0.0
 11
120.917
 21
84.8184
 31
0.0
  0
LINE
  8
0
 62
     0
 10
120.917
 20
84.8184
 30
0.0
 11
120.917
 21
98.8191
 31
0.0
  0
LINE
  8
0
 62
     0
 10
139.969
 20
98.8191
 30
0.0
 11
153.968
 21
98.8191
 31
0.0
  0
LINE
  8
0
 62
     0
 10
153.968
 20
98.8191
 30
0.0
 11
153.968
 21
84.8184
 31
0.0
  0
LINE
  8
0
 62
     0
 10
153.968
 20
84.8184
 30
0.0
 11
139.969
 21
84.8184
 31
0.0
  0
LINE
  8
0
 62
     0
 10
139.969
 20
84.8184
 30
0.0
 11
139.969
 21
98.8191
 31
0.0
  0
LINE
  8
0
 62
     0
 10
159.019
 20
98.8191
 30
0.0
 11
173.018
 21
98.8191
 31
0.0
  0
LINE
  8
0
 62
     0
 10
173.018
 20
98.8191
 30
0.0
 11
173.018
 21
84.8184
 31
0.0
  0
LINE
  8
0
 62
     0
 10
173.018
 20
84.8184
 30
0.0
 11
159.019
 21
84.8184
 31
0.0
  0
LINE
  8
0
 62
     0
 10
159.019
 20
84.8184
 30
0.0
 11
159.019
 21
98.8191
 31
0.0
  0
LINE
  8
0
 62
     0
 10
178.069
 20
98.8191
 30
0.0
 11
192.068
 21
98.8191
 31
0.0
  0
LINE
  8
0
 62
     0
 10
192.068
 20
98.8191
 30
0.0
 11
192.068
 21
84.8184
 31
0.0
  0
LINE
  8
0
 62
     0
 10
192.068
 20
84.8184
 30
0.0
 11
178.069
 21
84.8184
 31
0.0
  0
LINE
  8
0
 62
     0
 10
178.069
 20
84.8184
 30
0.0
 11
178.069
 21
98.8191
 31
0.0
  0
LINE
  8
0
 62
     0
 10
197.119
 20
98.8191
 30
0.0
 11
211.118
 21
98.8191
 31
0.0
  0
LINE
  8
0
 62
     0
 10
211.118
 20
98.8191
 30
0.0
 11
211.118
 21
84.8184
 31
0.0
  0
LINE
  8
0
 62
     0
 10
211.118
 20
84.8184
 30
0.0
 11
197.119
 21
84.8184
 31
0.0
  0
LINE
  8
0
 62
     0
 10
197.119
 20
84.8184
 30
0.0
 11
197.119
 21
98.8191
 31
0.0
  0
LINE
  8
0
 62
     0
 10
216.169
 20
98.8191
 30
0.0
 11
230.168
 21
98.8191
 31
0.0
  0
LINE
  8
0
 62
     0
 10
230.168
 20
98.8191
 30
0.0
 11
230.168
 21
84.8184
 31
0.0
  0
LINE
  8
0
 62
     0
 10
230.168
 20
84.8184
 30
0.0
 11
216.169
 21
84.8184
 31
0.0
  0
LINE
  8
0
 62
     0
 10
216.169
 20
84.8184
 30
0.0
 11
216.169
 21
98.8191
 31
0.0
  0
LINE
  8
0
 62
     0
 10
235.219
 20
98.8191
 30
0.0
 11
249.218
 21
98.8191
 31
0.0
  0
LINE
  8
0
 62
     0
 10
249.218
 20
98.8191
 30
0.0
 11
249.218
 21
84.8184
 31
0.0
  0
LINE
  8
0
 62
     0
 10
249.218
 20
84.8184
 30
0.0
 11
235.219
 21
84.8184
 31
0.0
  0
LINE
  8
0
 62
     0
 10
235.219
 20
84.8184
 30
0.0
 11
235.219
 21
98.8191
 31
0.0
  0
LINE
  8
0
 62
     0
 10
2.6293
 20
105.77
 30
0.0
 11
2.21175
 21
105.558
 31
0.0
  0
LINE
  8
0
 62
     0
 10
2.21175
 20
105.558
 30
0.0
 11
1.87965
 21
105.226
 31
0.0
  0
LINE
  8
0
 62
     0
 10
1.87965
 20
105.226
 30
0.0
 11
1.66743
 21
104.808
 31
0.0
  0
LINE
  8
0
 62
     0
 10
1.66743
 20
104.808
 30
0.0
 11
1.59301
 21
104.344
 31
0.0
  0
LINE
  8
0
 62
     0
 10
1.59301
 20
104.344
 30
0.0
 11
1.66743
 21
103.881
 31
0.0
  0
LINE
  8
0
 62
     0
 10
1.66743
 20
103.881
 30
0.0
 11
1.87965
 21
103.463
 31
0.0
  0
LINE
  8
0
 62
     0
 10
1.87965
 20
103.463
 30
0.0
 11
2.21175
 21
103.131
 31
0.0
  0
LINE
  8
0
 62
     0
 10
2.21175
 20
103.131
 30
0.0
 11
2.6293
 21
102.917
 31
0.0
  0
LINE
  8
0
 62
     0
 10
2.6293
 20
102.917
 30
0.0
 11
3.0937
 21
102.843
 31
0.0
  0
LINE
  8
0
 62
     0
 10
3.0937
 20
102.843
 30
0.0
 11
3.55671
 21
102.917
 31
0.0
  0
LINE
  8
0
 62
     0
 10
3.55671
 20
102.917
 30
0.0
 11
3.97425
 21
103.131
 31
0.0
  0
LINE
  8
0
 62
     0
 10
3.97425
 20
103.131
 30
0.0
 11
4.30636
 21
103.463
 31
0.0
  0
LINE
  8
0
 62
     0
 10
4.30636
 20
103.463
 30
0.0
 11
4.51997
 21
103.881
 31
0.0
  0
LINE
  8
0
 62
     0
 10
4.51997
 20
103.881
 30
0.0
 11
4.59437
 21
104.344
 31
0.0
  0
LINE
  8
0
 62
     0
 10
4.59437
 20
104.344
 30
0.0
 11
4.51997
 21
104.808
 31
0.0
  0
LINE
  8
0
 62
     0
 10
4.51997
 20
104.808
 30
0.0
 11
4.30636
 21
105.226
 31
0.0
  0
LINE
  8
0
 62
     0
 10
4.30636
 20
105.226
 30
0.0
 11
3.97425
 21
105.558
 31
0.0
  0
LINE
  8
0
 62
     0
 10
3.97425
 20
105.558
 30
0.0
 11
3.55671
 21
105.77
 31
0.0
  0
LINE
  8
0
 62
     0
 10
3.55671
 20
105.77
 30
0.0
 11
3.0937
 21
105.843
 31
0.0
  0
LINE
  8
0
 62
     0
 10
3.0937
 20
105.843
 30
0.0
 11
2.6293
 21
105.77
 31
0.0
  0
LINE
  8
0
 62
     0
 10
98.5464
 20
105.77
 30
0.0
 11
98.1287
 21
105.558
 31
0.0
  0
LINE
  8
0
 62
     0
 10
98.1287
 20
105.558
 30
0.0
 11
97.7967
 21
105.226
 31
0.0
  0
LINE
  8
0
 62
     0
 10
97.7967
 20
105.226
 30
0.0
 11
97.5843
 21
104.808
 31
0.0
  0
LINE
  8
0
 62
     0
 10
97.5843
 20
104.808
 30
0.0
 11
97.5113
 21
104.344
 31
0.0
  0
LINE
  8
0
 62
     0
 10
97.5113
 20
104.344
 30
0.0
 11
97.5843
 21
103.881
 31
0.0
  0
LINE
  8
0
 62
     0
 10
97.5843
 20
103.881
 30
0.0
 11
97.7967
 21
103.463
 31
0.0
  0
LINE
  8
0
 62
     0
 10
97.7967
 20
103.463
 30
0.0
 11
98.1287
 21
103.131
 31
0.0
  0
LINE
  8
0
 62
     0
 10
98.1287
 20
103.131
 30
0.0
 11
98.5464
 21
102.917
 31
0.0
  0
LINE
  8
0
 62
     0
 10
98.5464
 20
102.917
 30
0.0
 11
99.0106
 21
102.843
 31
0.0
  0
LINE
  8
0
 62
     0
 10
99.0106
 20
102.843
 30
0.0
 11
99.4738
 21
102.917
 31
0.0
  0
LINE
  8
0
 62
     0
 10
99.4738
 20
102.917
 30
0.0
 11
99.8911
 21
103.131
 31
0.0
  0
LINE
  8
0
 62
     0
 10
99.8911
 20
103.131
 30
0.0
 11
100.223
 21
103.463
 31
0.0
  0
LINE
  8
0
 62
     0
 10
100.223
 20
103.463
 30
0.0
 11
100.437
 21
103.881
 31
0.0
  0
LINE
  8
0
 62
     0
 10
100.437
 20
103.881
 30
0.0
 11
100.511
 21
104.344
 31
0.0
  0
LINE
  8
0
 62
     0
 10
100.511
 20
104.344
 30
0.0
 11
100.437
 21
104.808
 31
0.0
  0
LINE
  8
0
 62
     0
 10
100.437
 20
104.808
 30
0.0
 11
100.223
 21
105.226
 31
0.0
  0
LINE
  8
0
 62
     0
 10
100.223
 20
105.226
 30
0.0
 11
99.8911
 21
105.558
 31
0.0
  0
LINE
  8
0
 62
     0
 10
99.8911
 20
105.558
 30
0.0
 11
99.4738
 21
105.77
 31
0.0
  0
LINE
  8
0
 62
     0
 10
99.4738
 20
105.77
 30
0.0
 11
99.0106
 21
105.843
 31
0.0
  0
LINE
  8
0
 62
     0
 10
99.0106
 20
105.843
 30
0.0
 11
98.5464
 21
105.77
 31
0.0
  0
LINE
  8
0
 62
     0
 10
194.463
 20
105.77
 30
0.0
 11
194.046
 21
105.558
 31
0.0
  0
LINE
  8
0
 62
     0
 10
194.046
 20
105.558
 30
0.0
 11
193.713
 21
105.226
 31
0.0
  0
LINE
  8
0
 62
     0
 10
193.713
 20
105.226
 30
0.0
 11
193.501
 21
104.808
 31
0.0
  0
LINE
  8
0
 62
     0
 10
193.501
 20
104.808
 30
0.0
 11
193.428
 21
104.344
 31
0.0
  0
LINE
  8
0
 62
     0
 10
193.428
 20
104.344
 30
0.0
 11
193.501
 21
103.881
 31
0.0
  0
LINE
  8
0
 62
     0
 10
193.501
 20
103.881
 30
0.0
 11
193.713
 21
103.463
 31
0.0
  0
LINE
  8
0
 62
     0
 10
193.713
 20
103.463
 30
0.0
 11
194.046
 21
103.131
 31
0.0
  0
LINE
  8
0
 62
     0
 10
194.046
 20
103.131
 30
0.0
 11
194.463
 21
102.917
 31
0.0
  0
LINE
  8
0
 62
     0
 10
194.463
 20
102.917
 30
0.0
 11
194.928
 21
102.843
 31
0.0
  0
LINE
  8
0
 62
     0
 10
194.928
 20
102.843
 30
0.0
 11
195.391
 21
102.917
 31
0.0
  0
LINE
  8
0
 62
     0
 10
195.391
 20
102.917
 30
0.0
 11
195.808
 21
103.131
 31
0.0
  0
LINE
  8
0
 62
     0
 10
195.808
 20
103.131
 30
0.0
 11
196.14
 21
103.463
 31
0.0
  0
LINE
  8
0
 62
     0
 10
196.14
 20
103.463
 30
0.0
 11
196.354
 21
103.881
 31
0.0
  0
LINE
  8
0
 62
     0
 10
196.354
 20
103.881
 30
0.0
 11
196.428
 21
104.344
 31
0.0
  0
LINE
  8
0
 62
     0
 10
196.428
 20
104.344
 30
0.0
 11
196.354
 21
104.808
 31
0.0
  0
LINE
  8
0
 62
     0
 10
196.354
 20
104.808
 30
0.0
 11
196.14
 21
105.226
 31
0.0
  0
LINE
  8
0
 62
     0
 10
196.14
 20
105.226
 30
0.0
 11
195.808
 21
105.558
 31
0.0
  0
LINE
  8
0
 62
     0
 10
195.808
 20
105.558
 30
0.0
 11
195.391
 21
105.77
 31
0.0
  0
LINE
  8
0
 62
     0
 10
195.391
 20
105.77
 30
0.0
 11
194.928
 21
105.843
 31
0.0
  0
LINE
  8
0
 62
     0
 10
194.928
 20
105.843
 30
0.0
 11
194.463
 21
105.77
 31
0.0
  0
LINE
  8
0
 62
     0
 10
290.38
 20
105.77
 30
0.0
 11
289.963
 21
105.558
 31
0.0
  0
LINE
  8
0
 62
     0
 10
289.963
 20
105.558
 30
0.0
 11
289.631
 21
105.226
 31
0.0
  0
LINE
  8
0
 62
     0
 10
289.631
 20
105.226
 30
0.0
 11
289.418
 21
104.808
 31
0.0
  0
LINE
  8
0
 62
     0
 10
289.418
 20
104.808
 30
0.0
 11
289.345
 21
104.344
 31
0.0
  0
LINE
  8
0
 62
     0
 10
289.345
 20
104.344
 30
0.0
 11
289.418
 21
103.881
 31
0.0
  0
LINE
  8
0
 62
     0
 10
289.418
 20
103.881
 30
0.0
 11
289.631
 21
103.463
 31
0.0
  0
LINE
  8
0
 62
     0
 10
289.631
 20
103.463
 30
0.0
 11
289.963
 21
103.131
 31
0.0
  0
LINE
  8
0
 62
     0
 10
289.963
 20
103.131
 30
0.0
 11
290.38
 21
102.917
 31
0.0
  0
LINE
  8
0
 62
     0
 10
290.38
 20
102.917
 30
0.0
 11
290.844
 21
102.843
 31
0.0
  0
LINE
  8
0
 62
     0
 10
290.844
 20
102.843
 30
0.0
 11
291.308
 21
102.917
 31
0.0
  0
LINE
  8
0
 62
     0
 10
291.308
 20
102.917
 30
0.0
 11
291.725
 21
103.131
 31
0.0
  0
LINE
  8
0
 62
     0
 10
291.725
 20
103.131
 30
0.0
 11
292.057
 21
103.463
 31
0.0
  0
LINE
  8
0
 62
     0
 10
292.057
 20
103.463
 30
0.0
 11
292.271
 21
103.881
 31
0.0
  0
LINE
  8
0
 62
     0
 10
292.271
 20
103.881
 30
0.0
 11
292.345
 21
104.344
 31
0.0
  0
LINE
  8
0
 62
     0
 10
292.345
 20
104.344
 30
0.0
 11
292.271
 21
104.808
 31
0.0
  0
LINE
  8
0
 62
     0
 10
292.271
 20
104.808
 30
0.0
 11
292.057
 21
105.226
 31
0.0
  0
LINE
  8
0
 62
     0
 10
292.057
 20
105.226
 30
0.0
 11
291.725
 21
105.558
 31
0.0
  0
LINE
  8
0
 62
     0
 10
291.725
 20
105.558
 30
0.0
 11
291.308
 21
105.77
 31
0.0
  0
LINE
  8
0
 62
     0
 10
291.308
 20
105.77
 30
0.0
 11
290.844
 21
105.843
 31
0.0
  0
LINE
  8
0
 62
     0
 10
290.844
 20
105.843
 30
0.0
 11
290.38
 21
105.77
 31
0.0
  0
ENDSEC
  0
EOF
